G04 (created by PCBNEW (2013-07-07 BZR 4022)-stable) date 07/04/2015 00:57:36*
%MOIN*%
G04 Gerber Fmt 3.4, Leading zero omitted, Abs format*
%FSLAX34Y34*%
G01*
G70*
G90*
G04 APERTURE LIST*
%ADD10C,0.00590551*%
%ADD11R,0.055X0.055*%
%ADD12C,0.055*%
%ADD13R,0.07X0.07*%
%ADD14C,0.07*%
%ADD15R,0.35X0.35*%
%ADD16R,0.0394X0.0315*%
%ADD17C,0.06*%
%ADD18C,0.15*%
%ADD19R,0.06X0.06*%
%ADD20R,0.1378X0.1378*%
G04 APERTURE END LIST*
G54D10*
G54D11*
X96000Y-61750D03*
G54D12*
X96000Y-63750D03*
G54D13*
X91750Y-53250D03*
G54D14*
X93750Y-53250D03*
X92750Y-53250D03*
G54D15*
X92750Y-46750D03*
G54D16*
X61433Y-53275D03*
X60567Y-53650D03*
X60567Y-52900D03*
X61433Y-57550D03*
X60567Y-57925D03*
X60567Y-57175D03*
X60567Y-55875D03*
X61433Y-55500D03*
X61433Y-56250D03*
X60567Y-51625D03*
X61433Y-51250D03*
X61433Y-52000D03*
G54D17*
X97250Y-57500D03*
X96250Y-56500D03*
X97250Y-55500D03*
X90500Y-69250D03*
X91500Y-68250D03*
X92500Y-69250D03*
G54D12*
X64500Y-61000D03*
X64500Y-64000D03*
X73800Y-61100D03*
X76800Y-61100D03*
X73800Y-62100D03*
X76800Y-62100D03*
X65500Y-61000D03*
X65500Y-64000D03*
X87750Y-54000D03*
X87750Y-57000D03*
X66500Y-61000D03*
X66500Y-64000D03*
X73800Y-64300D03*
X76800Y-64300D03*
X73800Y-63300D03*
X76800Y-63300D03*
X94750Y-56000D03*
X91750Y-56000D03*
X91750Y-54750D03*
X94750Y-54750D03*
X94250Y-69250D03*
X94250Y-66250D03*
X88250Y-66250D03*
X88250Y-69250D03*
X91750Y-57250D03*
X94750Y-57250D03*
X76000Y-55750D03*
X79000Y-55750D03*
X94250Y-59750D03*
X97250Y-59750D03*
G54D11*
X89250Y-57250D03*
G54D12*
X90250Y-57250D03*
G54D11*
X65500Y-68500D03*
G54D12*
X66500Y-68500D03*
X67500Y-68500D03*
X68500Y-68500D03*
X69500Y-68500D03*
X70500Y-68500D03*
X71500Y-68500D03*
X72500Y-68500D03*
X73500Y-68500D03*
X74500Y-68500D03*
X75500Y-68500D03*
X76500Y-68500D03*
X76500Y-65500D03*
X75500Y-65500D03*
X74500Y-65500D03*
X73500Y-65500D03*
X72500Y-65500D03*
X71500Y-65500D03*
X70500Y-65500D03*
X69500Y-65500D03*
X68500Y-65500D03*
X67500Y-65500D03*
X66500Y-65500D03*
X65500Y-65500D03*
G54D11*
X79000Y-60000D03*
G54D12*
X80000Y-60000D03*
X81000Y-60000D03*
X82000Y-60000D03*
X83000Y-60000D03*
X84000Y-60000D03*
X85000Y-60000D03*
X86000Y-60000D03*
X86000Y-57000D03*
X85000Y-57000D03*
X84000Y-57000D03*
X83000Y-57000D03*
X82000Y-57000D03*
X81000Y-57000D03*
X80000Y-57000D03*
X79000Y-57000D03*
G54D11*
X65500Y-54500D03*
G54D12*
X66500Y-54500D03*
X67500Y-54500D03*
X68500Y-54500D03*
X69500Y-54500D03*
X70500Y-54500D03*
X71500Y-54500D03*
X72500Y-54500D03*
X72500Y-51500D03*
X71500Y-51500D03*
X70500Y-51500D03*
X69500Y-51500D03*
X68500Y-51500D03*
X67500Y-51500D03*
X66500Y-51500D03*
X65500Y-51500D03*
G54D11*
X64500Y-59500D03*
G54D12*
X65500Y-59500D03*
X66500Y-59500D03*
X67500Y-59500D03*
X68500Y-59500D03*
X69500Y-59500D03*
X70500Y-59500D03*
X71500Y-59500D03*
X71500Y-56500D03*
X70500Y-56500D03*
X69500Y-56500D03*
X68500Y-56500D03*
X67500Y-56500D03*
X66500Y-56500D03*
X65500Y-56500D03*
X64500Y-56500D03*
G54D11*
X78000Y-54500D03*
G54D12*
X79000Y-54500D03*
X80000Y-54500D03*
X81000Y-54500D03*
X82000Y-54500D03*
X83000Y-54500D03*
X84000Y-54500D03*
X85000Y-54500D03*
X85000Y-51500D03*
X84000Y-51500D03*
X83000Y-51500D03*
X82000Y-51500D03*
X81000Y-51500D03*
X80000Y-51500D03*
X79000Y-51500D03*
X78000Y-51500D03*
G54D11*
X90000Y-59750D03*
G54D12*
X90000Y-60750D03*
X90000Y-61750D03*
X90000Y-62750D03*
X90000Y-63750D03*
X90000Y-64750D03*
X90000Y-65750D03*
X93000Y-65750D03*
X93000Y-64750D03*
X93000Y-63750D03*
X93000Y-62750D03*
X93000Y-61750D03*
X93000Y-60750D03*
X93000Y-59750D03*
G54D18*
X82750Y-48000D03*
X64250Y-48000D03*
G54D19*
X67000Y-49000D03*
G54D17*
X68100Y-49000D03*
X69150Y-49000D03*
X70250Y-49000D03*
X71350Y-49000D03*
X72450Y-49000D03*
X73500Y-49000D03*
X74600Y-49000D03*
X75700Y-49000D03*
X76800Y-49000D03*
X77850Y-49000D03*
X78950Y-49000D03*
X80050Y-49000D03*
X67620Y-48000D03*
X68620Y-48000D03*
X69720Y-48000D03*
X70800Y-48000D03*
X71880Y-48000D03*
X72980Y-48000D03*
X74060Y-48000D03*
X75140Y-48000D03*
X76260Y-48000D03*
X77320Y-48000D03*
X78400Y-48000D03*
X79500Y-48000D03*
G54D11*
X62900Y-65100D03*
G54D12*
X62900Y-62100D03*
X88750Y-61750D03*
X88750Y-59750D03*
X95500Y-53250D03*
X97500Y-53250D03*
X82000Y-55750D03*
X80000Y-55750D03*
X86500Y-55750D03*
X84500Y-55750D03*
X77000Y-57500D03*
X77000Y-59500D03*
X76000Y-52000D03*
X76000Y-54000D03*
X63500Y-52000D03*
X63500Y-54000D03*
X62500Y-57000D03*
X62500Y-59000D03*
G54D19*
X89750Y-53250D03*
G54D17*
X89750Y-54250D03*
G54D19*
X96250Y-51250D03*
G54D17*
X97250Y-51250D03*
G54D11*
X88250Y-64750D03*
G54D12*
X88250Y-63750D03*
G54D11*
X65000Y-70000D03*
G54D12*
X66000Y-70000D03*
X67000Y-70000D03*
X68000Y-70000D03*
X69000Y-70000D03*
X70000Y-70000D03*
X71000Y-70000D03*
X72000Y-70000D03*
X73000Y-70000D03*
X74000Y-70000D03*
G54D14*
X86000Y-50500D03*
G54D13*
X90000Y-50500D03*
G54D20*
X88000Y-48941D03*
X88000Y-46579D03*
X86150Y-47760D03*
G54D10*
G36*
X70900Y-62368D02*
X71288Y-62757D01*
X70900Y-63146D01*
X70511Y-62757D01*
X70900Y-62368D01*
X70900Y-62368D01*
G37*
G54D12*
X71607Y-62050D03*
X70900Y-61342D03*
G54D10*
G36*
X68550Y-62368D02*
X68938Y-62757D01*
X68550Y-63146D01*
X68161Y-62757D01*
X68550Y-62368D01*
X68550Y-62368D01*
G37*
G54D12*
X69257Y-62050D03*
X68550Y-61342D03*
M02*
