M48
INCH,TZ
T1C0.025
T2C0.032
T3C0.039
T4C0.040
T5C0.045
T6C0.120
%
G90
G05
T1
X60575Y-54650
X60575Y-59025
X61450Y-54300
X61950Y-58150
X63750Y-66150
X67350Y-52800
X68050Y-53300
X72500Y-52300
X73000Y-66150
X74150Y-53300
X74525Y-52800
X74925Y-52300
T2
X62500Y-57000
X62500Y-59000
X62900Y-62100
X62900Y-65100
X63500Y-52000
X63500Y-54000
X64500Y-56500
X64500Y-59500
X64500Y-61000
X64500Y-64000
X65000Y-70000
X65500Y-51500
X65500Y-54500
X65500Y-56500
X65500Y-59500
X65500Y-61000
X65500Y-64000
X65500Y-65500
X65500Y-68500
X66000Y-70000
X66500Y-51500
X66500Y-54500
X66500Y-56500
X66500Y-59500
X66500Y-61000
X66500Y-64000
X66500Y-65500
X66500Y-68500
X67000Y-70000
X67500Y-51500
X67500Y-54500
X67500Y-56500
X67500Y-59500
X67500Y-65500
X67500Y-68500
X68000Y-70000
X68500Y-51500
X68500Y-54500
X68500Y-56500
X68500Y-59500
X68500Y-65500
X68500Y-68500
X68550Y-61343
X68550Y-62757
X69000Y-70000
X69257Y-62050
X69500Y-51500
X69500Y-54500
X69500Y-56500
X69500Y-59500
X69500Y-65500
X69500Y-68500
X70000Y-70000
X70500Y-51500
X70500Y-54500
X70500Y-56500
X70500Y-59500
X70500Y-65500
X70500Y-68500
X70900Y-61343
X70900Y-62757
X71000Y-70000
X71500Y-51500
X71500Y-54500
X71500Y-56500
X71500Y-59500
X71500Y-65500
X71500Y-68500
X71607Y-62050
X72000Y-70000
X72500Y-51500
X72500Y-54500
X72500Y-65500
X72500Y-68500
X73000Y-70000
X73500Y-65500
X73500Y-68500
X73800Y-61100
X73800Y-62100
X73800Y-63300
X73800Y-64300
X74000Y-70000
X74500Y-65500
X74500Y-68500
X75500Y-65500
X75500Y-68500
X76000Y-52000
X76000Y-54000
X76000Y-55750
X76500Y-65500
X76500Y-68500
X76800Y-61100
X76800Y-62100
X76800Y-63300
X76800Y-64300
X77000Y-57500
X77000Y-59500
X78000Y-51500
X78000Y-54500
X79000Y-51500
X79000Y-54500
X79000Y-55750
X79000Y-57000
X79000Y-60000
X80000Y-51500
X80000Y-54500
X80000Y-55750
X80000Y-57000
X80000Y-60000
X81000Y-51500
X81000Y-54500
X81000Y-57000
X81000Y-60000
X82000Y-51500
X82000Y-54500
X82000Y-55750
X82000Y-57000
X82000Y-60000
X83000Y-51500
X83000Y-54500
X83000Y-57000
X83000Y-60000
X84000Y-51500
X84000Y-54500
X84000Y-57000
X84000Y-60000
X84500Y-55750
X85000Y-51500
X85000Y-54500
X85000Y-57000
X85000Y-60000
X86000Y-57000
X86000Y-60000
X86500Y-55750
X87750Y-54000
X87750Y-57000
X88250Y-63750
X88250Y-64750
X88250Y-66250
X88250Y-69250
X88750Y-59750
X88750Y-61750
X89250Y-57250
X89750Y-53250
X89750Y-54250
X90000Y-59750
X90000Y-60750
X90000Y-61750
X90000Y-62750
X90000Y-63750
X90000Y-64750
X90000Y-65750
X90250Y-57250
X90500Y-69250
X91500Y-68250
X91750Y-54750
X91750Y-56000
X91750Y-57250
X92500Y-69250
X93000Y-59750
X93000Y-60750
X93000Y-61750
X93000Y-62750
X93000Y-63750
X93000Y-64750
X93000Y-65750
X94250Y-59750
X94250Y-66250
X94250Y-69250
X94750Y-54750
X94750Y-56000
X94750Y-57250
X95500Y-53250
X96000Y-61750
X96000Y-63750
X96250Y-51250
X96250Y-56500
X97250Y-51250
X97250Y-55500
X97250Y-57500
X97250Y-59750
X97500Y-53250
T4
X67000Y-49000
X67620Y-48000
X68100Y-49000
X68620Y-48000
X69150Y-49000
X69720Y-48000
X70250Y-49000
X70800Y-48000
X71350Y-49000
X71880Y-48000
X72450Y-49000
X72980Y-48000
X73500Y-49000
X74060Y-48000
X74600Y-49000
X75140Y-48000
X75700Y-49000
X76260Y-48000
X76800Y-49000
X77320Y-48000
X77850Y-49000
X78400Y-48000
X78950Y-49000
X79500Y-48000
X80050Y-49000
X86000Y-50500
X90000Y-50500
T5
X91750Y-53250
X92750Y-53250
X93750Y-53250
T6
X64250Y-48000
X82750Y-48000
X92750Y-46750
T3
X86150Y-47367G85X86150Y-48153
G05
X88393Y-46579G85X87607Y-46579
G05
X88393Y-48941G85X87607Y-48941
G05
T0
M30
