G04 Layer_Color=2752767*
%FSLAX26Y26*%
%MOIN*%
%TF.FileFunction,Drawing*%
%TF.Part,Single*%
G01*
G75*
%TA.AperFunction,NonConductor*%
%ADD87C,0.005000*%
%ADD88C,0.006667*%
%ADD89C,0.004000*%
D87*
X195276Y6760630D02*
Y6800630D01*
X235276D01*
Y6760630D01*
X195276D01*
X439370Y6760787D02*
Y6800787D01*
X479370D01*
Y6760787D01*
X439370D01*
X315000Y6560000D02*
Y6600000D01*
X355000D01*
Y6560000D01*
X315000D01*
X389921Y3871890D02*
X369921Y3911890D01*
X409921D01*
X389921Y3871890D01*
X278110Y3926417D02*
X258110Y3966417D01*
X298110D01*
X278110Y3926417D01*
X389921Y3980945D02*
X369921Y4020945D01*
X409921D01*
X389921Y3980945D01*
X278110Y4035472D02*
X258110Y4075472D01*
X298110D01*
X278110Y4035472D01*
X389921Y4090000D02*
X369921Y4130000D01*
X409921D01*
X389921Y4090000D01*
X278110Y4144528D02*
X258110Y4184528D01*
X298110D01*
X278110Y4144528D01*
X389921Y4199055D02*
X369921Y4239055D01*
X409921D01*
X389921Y4199055D01*
X278110Y4253583D02*
X258110Y4293583D01*
X298110D01*
X278110Y4253583D01*
X389921Y4308110D02*
X369921Y4348110D01*
X409921D01*
X389921Y4308110D01*
X3670000Y130000D02*
X3680000Y140000D01*
X3690000D01*
X3680000Y150000D01*
X3690000Y160000D01*
X3680000D01*
X3670000Y170000D01*
X3660000Y160000D01*
X3650000D01*
X3660000Y150000D01*
X3650000Y140000D01*
X3660000D01*
X3670000Y130000D01*
X4070000D02*
X4080000Y140000D01*
X4090000D01*
X4080000Y150000D01*
X4090000Y160000D01*
X4080000D01*
X4070000Y170000D01*
X4060000Y160000D01*
X4050000D01*
X4060000Y150000D01*
X4050000Y140000D01*
X4060000D01*
X4070000Y130000D01*
X5020000D02*
X5030000Y140000D01*
X5040000D01*
X5030000Y150000D01*
X5040000Y160000D01*
X5030000D01*
X5020000Y170000D01*
X5010000Y160000D01*
X5000000D01*
X5010000Y150000D01*
X5000000Y140000D01*
X5010000D01*
X5020000Y130000D01*
X4620000D02*
X4630000Y140000D01*
X4640000D01*
X4630000Y150000D01*
X4640000Y160000D01*
X4630000D01*
X4620000Y170000D01*
X4610000Y160000D01*
X4600000D01*
X4610000Y150000D01*
X4600000Y140000D01*
X4610000D01*
X4620000Y130000D01*
X5379764D02*
X5389764Y150000D01*
X5379764Y170000D01*
X5399764Y160000D01*
X5419764Y170000D01*
X5409764Y150000D01*
X5419764Y130000D01*
X5399764Y140000D01*
X5379764Y130000D01*
X5100236D02*
X5110236Y150000D01*
X5100236Y170000D01*
X5120236Y160000D01*
X5140236Y170000D01*
X5130236Y150000D01*
X5140236Y130000D01*
X5120236Y140000D01*
X5100236Y130000D01*
X3670000Y330000D02*
X3680000Y340000D01*
X3690000D01*
X3680000Y350000D01*
X3690000Y360000D01*
X3680000D01*
X3670000Y370000D01*
X3660000Y360000D01*
X3650000D01*
X3660000Y350000D01*
X3650000Y340000D01*
X3660000D01*
X3670000Y330000D01*
X4070000D02*
X4080000Y340000D01*
X4090000D01*
X4080000Y350000D01*
X4090000Y360000D01*
X4080000D01*
X4070000Y370000D01*
X4060000Y360000D01*
X4050000D01*
X4060000Y350000D01*
X4050000Y340000D01*
X4060000D01*
X4070000Y330000D01*
X5020000D02*
X5030000Y340000D01*
X5040000D01*
X5030000Y350000D01*
X5040000Y360000D01*
X5030000D01*
X5020000Y370000D01*
X5010000Y360000D01*
X5000000D01*
X5010000Y350000D01*
X5000000Y340000D01*
X5010000D01*
X5020000Y330000D01*
X4620000D02*
X4630000Y340000D01*
X4640000D01*
X4630000Y350000D01*
X4640000Y360000D01*
X4630000D01*
X4620000Y370000D01*
X4610000Y360000D01*
X4600000D01*
X4610000Y350000D01*
X4600000Y340000D01*
X4610000D01*
X4620000Y330000D01*
X3590000Y840000D02*
Y830000D01*
X3610000D01*
Y840000D01*
X3620000D01*
Y860000D01*
X3610000D01*
Y870000D01*
X3590000D01*
Y860000D01*
X3580000D01*
Y840000D01*
X3590000D01*
X3690000D02*
Y830000D01*
X3710000D01*
Y840000D01*
X3720000D01*
Y860000D01*
X3710000D01*
Y870000D01*
X3690000D01*
Y860000D01*
X3680000D01*
Y840000D01*
X3690000D01*
X3450000Y230000D02*
X3460000D01*
X3470000Y240000D01*
X3480000Y230000D01*
X3490000D01*
Y240000D01*
X3480000Y250000D01*
X3490000Y260000D01*
Y270000D01*
X3480000D01*
X3470000Y260000D01*
X3460000Y270000D01*
X3450000D01*
Y260000D01*
X3460000Y250000D01*
X3450000Y240000D01*
Y230000D01*
X3250000D02*
X3260000D01*
X3270000Y240000D01*
X3280000Y230000D01*
X3290000D01*
Y240000D01*
X3280000Y250000D01*
X3290000Y260000D01*
Y270000D01*
X3280000D01*
X3270000Y260000D01*
X3260000Y270000D01*
X3250000D01*
Y260000D01*
X3260000Y250000D01*
X3250000Y240000D01*
Y230000D01*
Y130000D02*
X3260000D01*
X3270000Y140000D01*
X3280000Y130000D01*
X3290000D01*
Y140000D01*
X3280000Y150000D01*
X3290000Y160000D01*
Y170000D01*
X3280000D01*
X3270000Y160000D01*
X3260000Y170000D01*
X3250000D01*
Y160000D01*
X3260000Y150000D01*
X3250000Y140000D01*
Y130000D01*
X3450000D02*
X3460000D01*
X3470000Y140000D01*
X3480000Y130000D01*
X3490000D01*
Y140000D01*
X3480000Y150000D01*
X3490000Y160000D01*
Y170000D01*
X3480000D01*
X3470000Y160000D01*
X3460000Y170000D01*
X3450000D01*
Y160000D01*
X3460000Y150000D01*
X3450000Y140000D01*
Y130000D01*
X4240000Y890000D02*
Y880000D01*
X4260000D01*
Y890000D01*
X4270000D01*
Y910000D01*
X4260000D01*
Y920000D01*
X4240000D01*
Y910000D01*
X4230000D01*
Y890000D01*
X4240000D01*
Y790000D02*
Y780000D01*
X4260000D01*
Y790000D01*
X4270000D01*
Y810000D01*
X4260000D01*
Y820000D01*
X4240000D01*
Y810000D01*
X4230000D01*
Y790000D01*
X4240000D01*
X5520000Y330000D02*
X5530000Y340000D01*
X5540000D01*
X5530000Y350000D01*
X5540000Y360000D01*
X5530000D01*
X5520000Y370000D01*
X5510000Y360000D01*
X5500000D01*
X5510000Y350000D01*
X5500000Y340000D01*
X5510000D01*
X5520000Y330000D01*
X5120000D02*
X5130000Y340000D01*
X5140000D01*
X5130000Y350000D01*
X5140000Y360000D01*
X5130000D01*
X5120000Y370000D01*
X5110000Y360000D01*
X5100000D01*
X5110000Y350000D01*
X5100000Y340000D01*
X5110000D01*
X5120000Y330000D01*
X4440000Y790000D02*
Y780000D01*
X4460000D01*
Y790000D01*
X4470000D01*
Y810000D01*
X4460000D01*
Y820000D01*
X4440000D01*
Y810000D01*
X4430000D01*
Y790000D01*
X4440000D01*
Y890000D02*
Y880000D01*
X4460000D01*
Y890000D01*
X4470000D01*
Y910000D01*
X4460000D01*
Y920000D01*
X4440000D01*
Y910000D01*
X4430000D01*
Y890000D01*
X4440000D01*
X1140000Y2190000D02*
Y2180000D01*
X1160000D01*
Y2190000D01*
X1170000D01*
Y2210000D01*
X1160000D01*
Y2220000D01*
X1140000D01*
Y2210000D01*
X1130000D01*
Y2190000D01*
X1140000D01*
X1040000D02*
Y2180000D01*
X1060000D01*
Y2190000D01*
X1070000D01*
Y2210000D01*
X1060000D01*
Y2220000D01*
X1040000D01*
Y2210000D01*
X1030000D01*
Y2190000D01*
X1040000D01*
X3340000Y840000D02*
Y830000D01*
X3360000D01*
Y840000D01*
X3370000D01*
Y860000D01*
X3360000D01*
Y870000D01*
X3340000D01*
Y860000D01*
X3330000D01*
Y840000D01*
X3340000D01*
X3240000D02*
Y830000D01*
X3260000D01*
Y840000D01*
X3270000D01*
Y860000D01*
X3260000D01*
Y870000D01*
X3240000D01*
Y860000D01*
X3230000D01*
Y840000D01*
X3240000D01*
X4490000Y5140000D02*
Y5130000D01*
X4510000D01*
Y5140000D01*
X4520000D01*
Y5160000D01*
X4510000D01*
Y5170000D01*
X4490000D01*
Y5160000D01*
X4480000D01*
Y5140000D01*
X4490000D01*
X4390000D02*
Y5130000D01*
X4410000D01*
Y5140000D01*
X4420000D01*
Y5160000D01*
X4410000D01*
Y5170000D01*
X4390000D01*
Y5160000D01*
X4380000D01*
Y5140000D01*
X4390000D01*
X2790000D02*
Y5130000D01*
X2810000D01*
Y5140000D01*
X2820000D01*
Y5160000D01*
X2810000D01*
Y5170000D01*
X2790000D01*
Y5160000D01*
X2780000D01*
Y5140000D01*
X2790000D01*
X2690000D02*
Y5130000D01*
X2710000D01*
Y5140000D01*
X2720000D01*
Y5160000D01*
X2710000D01*
Y5170000D01*
X2690000D01*
Y5160000D01*
X2680000D01*
Y5140000D01*
X2690000D01*
X3640000D02*
Y5130000D01*
X3660000D01*
Y5140000D01*
X3670000D01*
Y5160000D01*
X3660000D01*
Y5170000D01*
X3640000D01*
Y5160000D01*
X3630000D01*
Y5140000D01*
X3640000D01*
X3540000D02*
Y5130000D01*
X3560000D01*
Y5140000D01*
X3570000D01*
Y5160000D01*
X3560000D01*
Y5170000D01*
X3540000D01*
Y5160000D01*
X3530000D01*
Y5140000D01*
X3540000D01*
X1840000Y2190000D02*
Y2180000D01*
X1860000D01*
Y2190000D01*
X1870000D01*
Y2210000D01*
X1860000D01*
Y2220000D01*
X1840000D01*
Y2210000D01*
X1830000D01*
Y2190000D01*
X1840000D01*
X1740000D02*
Y2180000D01*
X1760000D01*
Y2190000D01*
X1770000D01*
Y2210000D01*
X1760000D01*
Y2220000D01*
X1740000D01*
Y2210000D01*
X1730000D01*
Y2190000D01*
X1740000D01*
X4750000Y2070000D02*
Y2060000D01*
X4770000D01*
Y2070000D01*
X4780000D01*
Y2090000D01*
X4770000D01*
Y2100000D01*
X4750000D01*
Y2090000D01*
X4740000D01*
Y2070000D01*
X4750000D01*
X4850000D02*
Y2060000D01*
X4870000D01*
Y2070000D01*
X4880000D01*
Y2090000D01*
X4870000D01*
Y2100000D01*
X4850000D01*
Y2090000D01*
X4840000D01*
Y2070000D01*
X4850000D01*
X3940000Y840000D02*
Y830000D01*
X3960000D01*
Y840000D01*
X3970000D01*
Y860000D01*
X3960000D01*
Y870000D01*
X3940000D01*
Y860000D01*
X3930000D01*
Y840000D01*
X3940000D01*
X4040000D02*
Y830000D01*
X4060000D01*
Y840000D01*
X4070000D01*
Y860000D01*
X4060000D01*
Y870000D01*
X4040000D01*
Y860000D01*
X4030000D01*
Y840000D01*
X4040000D01*
X240000Y1340000D02*
Y1330000D01*
X260000D01*
Y1340000D01*
X270000D01*
Y1360000D01*
X260000D01*
Y1370000D01*
X240000D01*
Y1360000D01*
X230000D01*
Y1340000D01*
X240000D01*
X5340000Y5140000D02*
Y5130000D01*
X5360000D01*
Y5140000D01*
X5370000D01*
Y5160000D01*
X5360000D01*
Y5170000D01*
X5340000D01*
Y5160000D01*
X5330000D01*
Y5140000D01*
X5340000D01*
X5240000D02*
Y5130000D01*
X5260000D01*
Y5140000D01*
X5270000D01*
Y5160000D01*
X5260000D01*
Y5170000D01*
X5240000D01*
Y5160000D01*
X5230000D01*
Y5140000D01*
X5240000D01*
X1940000Y3540000D02*
Y3530000D01*
X1960000D01*
Y3540000D01*
X1970000D01*
Y3560000D01*
X1960000D01*
Y3570000D01*
X1940000D01*
Y3560000D01*
X1930000D01*
Y3540000D01*
X1940000D01*
X1840000D02*
Y3530000D01*
X1860000D01*
Y3540000D01*
X1870000D01*
Y3560000D01*
X1860000D01*
Y3570000D01*
X1840000D01*
Y3560000D01*
X1830000D01*
Y3540000D01*
X1840000D01*
X4130000Y4880000D02*
X4140000Y4900000D01*
X4130000Y4920000D01*
X4150000Y4910000D01*
X4170000Y4920000D01*
X4160000Y4900000D01*
X4170000Y4880000D01*
X4150000Y4890000D01*
X4130000Y4880000D01*
Y4780000D02*
X4140000Y4800000D01*
X4130000Y4820000D01*
X4150000Y4810000D01*
X4170000Y4820000D01*
X4160000Y4800000D01*
X4170000Y4780000D01*
X4150000Y4790000D01*
X4130000Y4780000D01*
Y4680000D02*
X4140000Y4700000D01*
X4130000Y4720000D01*
X4150000Y4710000D01*
X4170000Y4720000D01*
X4160000Y4700000D01*
X4170000Y4680000D01*
X4150000Y4690000D01*
X4130000Y4680000D01*
Y4580000D02*
X4140000Y4600000D01*
X4130000Y4620000D01*
X4150000Y4610000D01*
X4170000Y4620000D01*
X4160000Y4600000D01*
X4170000Y4580000D01*
X4150000Y4590000D01*
X4130000Y4580000D01*
Y4480000D02*
X4140000Y4500000D01*
X4130000Y4520000D01*
X4150000Y4510000D01*
X4170000Y4520000D01*
X4160000Y4500000D01*
X4170000Y4480000D01*
X4150000Y4490000D01*
X4130000Y4480000D01*
Y4380000D02*
X4140000Y4400000D01*
X4130000Y4420000D01*
X4150000Y4410000D01*
X4170000Y4420000D01*
X4160000Y4400000D01*
X4170000Y4380000D01*
X4150000Y4390000D01*
X4130000Y4380000D01*
Y4280000D02*
X4140000Y4300000D01*
X4130000Y4320000D01*
X4150000Y4310000D01*
X4170000Y4320000D01*
X4160000Y4300000D01*
X4170000Y4280000D01*
X4150000Y4290000D01*
X4130000Y4280000D01*
Y4180000D02*
X4140000Y4200000D01*
X4130000Y4220000D01*
X4150000Y4210000D01*
X4170000Y4220000D01*
X4160000Y4200000D01*
X4170000Y4180000D01*
X4150000Y4190000D01*
X4130000Y4180000D01*
Y4080000D02*
X4140000Y4100000D01*
X4130000Y4120000D01*
X4150000Y4110000D01*
X4170000Y4120000D01*
X4160000Y4100000D01*
X4170000Y4080000D01*
X4150000Y4090000D01*
X4130000Y4080000D01*
Y3980000D02*
X4140000Y4000000D01*
X4130000Y4020000D01*
X4150000Y4010000D01*
X4170000Y4020000D01*
X4160000Y4000000D01*
X4170000Y3980000D01*
X4150000Y3990000D01*
X4130000Y3980000D01*
Y3880000D02*
X4140000Y3900000D01*
X4130000Y3920000D01*
X4150000Y3910000D01*
X4170000Y3920000D01*
X4160000Y3900000D01*
X4170000Y3880000D01*
X4150000Y3890000D01*
X4130000Y3880000D01*
Y3780000D02*
X4140000Y3800000D01*
X4130000Y3820000D01*
X4150000Y3810000D01*
X4170000Y3820000D01*
X4160000Y3800000D01*
X4170000Y3780000D01*
X4150000Y3790000D01*
X4130000Y3780000D01*
Y3680000D02*
X4140000Y3700000D01*
X4130000Y3720000D01*
X4150000Y3710000D01*
X4170000Y3720000D01*
X4160000Y3700000D01*
X4170000Y3680000D01*
X4150000Y3690000D01*
X4130000Y3680000D01*
Y3580000D02*
X4140000Y3600000D01*
X4130000Y3620000D01*
X4150000Y3610000D01*
X4170000Y3620000D01*
X4160000Y3600000D01*
X4170000Y3580000D01*
X4150000Y3590000D01*
X4130000Y3580000D01*
X4730000Y4880000D02*
X4740000Y4900000D01*
X4730000Y4920000D01*
X4750000Y4910000D01*
X4770000Y4920000D01*
X4760000Y4900000D01*
X4770000Y4880000D01*
X4750000Y4890000D01*
X4730000Y4880000D01*
Y4780000D02*
X4740000Y4800000D01*
X4730000Y4820000D01*
X4750000Y4810000D01*
X4770000Y4820000D01*
X4760000Y4800000D01*
X4770000Y4780000D01*
X4750000Y4790000D01*
X4730000Y4780000D01*
Y4680000D02*
X4740000Y4700000D01*
X4730000Y4720000D01*
X4750000Y4710000D01*
X4770000Y4720000D01*
X4760000Y4700000D01*
X4770000Y4680000D01*
X4750000Y4690000D01*
X4730000Y4680000D01*
Y4580000D02*
X4740000Y4600000D01*
X4730000Y4620000D01*
X4750000Y4610000D01*
X4770000Y4620000D01*
X4760000Y4600000D01*
X4770000Y4580000D01*
X4750000Y4590000D01*
X4730000Y4580000D01*
Y4480000D02*
X4740000Y4500000D01*
X4730000Y4520000D01*
X4750000Y4510000D01*
X4770000Y4520000D01*
X4760000Y4500000D01*
X4770000Y4480000D01*
X4750000Y4490000D01*
X4730000Y4480000D01*
Y4380000D02*
X4740000Y4400000D01*
X4730000Y4420000D01*
X4750000Y4410000D01*
X4770000Y4420000D01*
X4760000Y4400000D01*
X4770000Y4380000D01*
X4750000Y4390000D01*
X4730000Y4380000D01*
Y4280000D02*
X4740000Y4300000D01*
X4730000Y4320000D01*
X4750000Y4310000D01*
X4770000Y4320000D01*
X4760000Y4300000D01*
X4770000Y4280000D01*
X4750000Y4290000D01*
X4730000Y4280000D01*
Y4180000D02*
X4740000Y4200000D01*
X4730000Y4220000D01*
X4750000Y4210000D01*
X4770000Y4220000D01*
X4760000Y4200000D01*
X4770000Y4180000D01*
X4750000Y4190000D01*
X4730000Y4180000D01*
Y4080000D02*
X4740000Y4100000D01*
X4730000Y4120000D01*
X4750000Y4110000D01*
X4770000Y4120000D01*
X4760000Y4100000D01*
X4770000Y4080000D01*
X4750000Y4090000D01*
X4730000Y4080000D01*
Y3980000D02*
X4740000Y4000000D01*
X4730000Y4020000D01*
X4750000Y4010000D01*
X4770000Y4020000D01*
X4760000Y4000000D01*
X4770000Y3980000D01*
X4750000Y3990000D01*
X4730000Y3980000D01*
Y3880000D02*
X4740000Y3900000D01*
X4730000Y3920000D01*
X4750000Y3910000D01*
X4770000Y3920000D01*
X4760000Y3900000D01*
X4770000Y3880000D01*
X4750000Y3890000D01*
X4730000Y3880000D01*
Y3780000D02*
X4740000Y3800000D01*
X4730000Y3820000D01*
X4750000Y3810000D01*
X4770000Y3820000D01*
X4760000Y3800000D01*
X4770000Y3780000D01*
X4750000Y3790000D01*
X4730000Y3780000D01*
Y3680000D02*
X4740000Y3700000D01*
X4730000Y3720000D01*
X4750000Y3710000D01*
X4770000Y3720000D01*
X4760000Y3700000D01*
X4770000Y3680000D01*
X4750000Y3690000D01*
X4730000Y3680000D01*
Y3580000D02*
X4740000Y3600000D01*
X4730000Y3620000D01*
X4750000Y3610000D01*
X4770000Y3620000D01*
X4760000Y3600000D01*
X4770000Y3580000D01*
X4750000Y3590000D01*
X4730000Y3580000D01*
X2430000Y4880000D02*
X2440000Y4900000D01*
X2430000Y4920000D01*
X2450000Y4910000D01*
X2470000Y4920000D01*
X2460000Y4900000D01*
X2470000Y4880000D01*
X2450000Y4890000D01*
X2430000Y4880000D01*
Y4780000D02*
X2440000Y4800000D01*
X2430000Y4820000D01*
X2450000Y4810000D01*
X2470000Y4820000D01*
X2460000Y4800000D01*
X2470000Y4780000D01*
X2450000Y4790000D01*
X2430000Y4780000D01*
Y4680000D02*
X2440000Y4700000D01*
X2430000Y4720000D01*
X2450000Y4710000D01*
X2470000Y4720000D01*
X2460000Y4700000D01*
X2470000Y4680000D01*
X2450000Y4690000D01*
X2430000Y4680000D01*
Y4580000D02*
X2440000Y4600000D01*
X2430000Y4620000D01*
X2450000Y4610000D01*
X2470000Y4620000D01*
X2460000Y4600000D01*
X2470000Y4580000D01*
X2450000Y4590000D01*
X2430000Y4580000D01*
Y4480000D02*
X2440000Y4500000D01*
X2430000Y4520000D01*
X2450000Y4510000D01*
X2470000Y4520000D01*
X2460000Y4500000D01*
X2470000Y4480000D01*
X2450000Y4490000D01*
X2430000Y4480000D01*
Y4380000D02*
X2440000Y4400000D01*
X2430000Y4420000D01*
X2450000Y4410000D01*
X2470000Y4420000D01*
X2460000Y4400000D01*
X2470000Y4380000D01*
X2450000Y4390000D01*
X2430000Y4380000D01*
Y4280000D02*
X2440000Y4300000D01*
X2430000Y4320000D01*
X2450000Y4310000D01*
X2470000Y4320000D01*
X2460000Y4300000D01*
X2470000Y4280000D01*
X2450000Y4290000D01*
X2430000Y4280000D01*
Y4180000D02*
X2440000Y4200000D01*
X2430000Y4220000D01*
X2450000Y4210000D01*
X2470000Y4220000D01*
X2460000Y4200000D01*
X2470000Y4180000D01*
X2450000Y4190000D01*
X2430000Y4180000D01*
Y4080000D02*
X2440000Y4100000D01*
X2430000Y4120000D01*
X2450000Y4110000D01*
X2470000Y4120000D01*
X2460000Y4100000D01*
X2470000Y4080000D01*
X2450000Y4090000D01*
X2430000Y4080000D01*
Y3980000D02*
X2440000Y4000000D01*
X2430000Y4020000D01*
X2450000Y4010000D01*
X2470000Y4020000D01*
X2460000Y4000000D01*
X2470000Y3980000D01*
X2450000Y3990000D01*
X2430000Y3980000D01*
Y3880000D02*
X2440000Y3900000D01*
X2430000Y3920000D01*
X2450000Y3910000D01*
X2470000Y3920000D01*
X2460000Y3900000D01*
X2470000Y3880000D01*
X2450000Y3890000D01*
X2430000Y3880000D01*
Y3780000D02*
X2440000Y3800000D01*
X2430000Y3820000D01*
X2450000Y3810000D01*
X2470000Y3820000D01*
X2460000Y3800000D01*
X2470000Y3780000D01*
X2450000Y3790000D01*
X2430000Y3780000D01*
Y3680000D02*
X2440000Y3700000D01*
X2430000Y3720000D01*
X2450000Y3710000D01*
X2470000Y3720000D01*
X2460000Y3700000D01*
X2470000Y3680000D01*
X2450000Y3690000D01*
X2430000Y3680000D01*
Y3580000D02*
X2440000Y3600000D01*
X2430000Y3620000D01*
X2450000Y3610000D01*
X2470000Y3620000D01*
X2460000Y3600000D01*
X2470000Y3580000D01*
X2450000Y3590000D01*
X2430000Y3580000D01*
X3030000Y4880000D02*
X3040000Y4900000D01*
X3030000Y4920000D01*
X3050000Y4910000D01*
X3070000Y4920000D01*
X3060000Y4900000D01*
X3070000Y4880000D01*
X3050000Y4890000D01*
X3030000Y4880000D01*
Y4780000D02*
X3040000Y4800000D01*
X3030000Y4820000D01*
X3050000Y4810000D01*
X3070000Y4820000D01*
X3060000Y4800000D01*
X3070000Y4780000D01*
X3050000Y4790000D01*
X3030000Y4780000D01*
Y4680000D02*
X3040000Y4700000D01*
X3030000Y4720000D01*
X3050000Y4710000D01*
X3070000Y4720000D01*
X3060000Y4700000D01*
X3070000Y4680000D01*
X3050000Y4690000D01*
X3030000Y4680000D01*
Y4580000D02*
X3040000Y4600000D01*
X3030000Y4620000D01*
X3050000Y4610000D01*
X3070000Y4620000D01*
X3060000Y4600000D01*
X3070000Y4580000D01*
X3050000Y4590000D01*
X3030000Y4580000D01*
Y4480000D02*
X3040000Y4500000D01*
X3030000Y4520000D01*
X3050000Y4510000D01*
X3070000Y4520000D01*
X3060000Y4500000D01*
X3070000Y4480000D01*
X3050000Y4490000D01*
X3030000Y4480000D01*
Y4380000D02*
X3040000Y4400000D01*
X3030000Y4420000D01*
X3050000Y4410000D01*
X3070000Y4420000D01*
X3060000Y4400000D01*
X3070000Y4380000D01*
X3050000Y4390000D01*
X3030000Y4380000D01*
Y4280000D02*
X3040000Y4300000D01*
X3030000Y4320000D01*
X3050000Y4310000D01*
X3070000Y4320000D01*
X3060000Y4300000D01*
X3070000Y4280000D01*
X3050000Y4290000D01*
X3030000Y4280000D01*
Y4180000D02*
X3040000Y4200000D01*
X3030000Y4220000D01*
X3050000Y4210000D01*
X3070000Y4220000D01*
X3060000Y4200000D01*
X3070000Y4180000D01*
X3050000Y4190000D01*
X3030000Y4180000D01*
Y4080000D02*
X3040000Y4100000D01*
X3030000Y4120000D01*
X3050000Y4110000D01*
X3070000Y4120000D01*
X3060000Y4100000D01*
X3070000Y4080000D01*
X3050000Y4090000D01*
X3030000Y4080000D01*
Y3980000D02*
X3040000Y4000000D01*
X3030000Y4020000D01*
X3050000Y4010000D01*
X3070000Y4020000D01*
X3060000Y4000000D01*
X3070000Y3980000D01*
X3050000Y3990000D01*
X3030000Y3980000D01*
Y3880000D02*
X3040000Y3900000D01*
X3030000Y3920000D01*
X3050000Y3910000D01*
X3070000Y3920000D01*
X3060000Y3900000D01*
X3070000Y3880000D01*
X3050000Y3890000D01*
X3030000Y3880000D01*
Y3780000D02*
X3040000Y3800000D01*
X3030000Y3820000D01*
X3050000Y3810000D01*
X3070000Y3820000D01*
X3060000Y3800000D01*
X3070000Y3780000D01*
X3050000Y3790000D01*
X3030000Y3780000D01*
Y3680000D02*
X3040000Y3700000D01*
X3030000Y3720000D01*
X3050000Y3710000D01*
X3070000Y3720000D01*
X3060000Y3700000D01*
X3070000Y3680000D01*
X3050000Y3690000D01*
X3030000Y3680000D01*
Y3580000D02*
X3040000Y3600000D01*
X3030000Y3620000D01*
X3050000Y3610000D01*
X3070000Y3620000D01*
X3060000Y3600000D01*
X3070000Y3580000D01*
X3050000Y3590000D01*
X3030000Y3580000D01*
X1390000Y2590000D02*
Y2580000D01*
X1410000D01*
Y2590000D01*
X1420000D01*
Y2610000D01*
X1410000D01*
Y2620000D01*
X1390000D01*
Y2610000D01*
X1380000D01*
Y2590000D01*
X1390000D01*
X1490000Y2490000D02*
Y2480000D01*
X1510000D01*
Y2490000D01*
X1520000D01*
Y2510000D01*
X1510000D01*
Y2520000D01*
X1490000D01*
Y2510000D01*
X1480000D01*
Y2490000D01*
X1490000D01*
Y2590000D02*
Y2580000D01*
X1510000D01*
Y2590000D01*
X1520000D01*
Y2610000D01*
X1510000D01*
Y2620000D01*
X1490000D01*
Y2610000D01*
X1480000D01*
Y2590000D01*
X1490000D01*
X1590000Y2490000D02*
Y2480000D01*
X1610000D01*
Y2490000D01*
X1620000D01*
Y2510000D01*
X1610000D01*
Y2520000D01*
X1590000D01*
Y2510000D01*
X1580000D01*
Y2490000D01*
X1590000D01*
Y2590000D02*
Y2580000D01*
X1610000D01*
Y2590000D01*
X1620000D01*
Y2610000D01*
X1610000D01*
Y2620000D01*
X1590000D01*
Y2610000D01*
X1580000D01*
Y2590000D01*
X1590000D01*
X1690000Y2490000D02*
Y2480000D01*
X1710000D01*
Y2490000D01*
X1720000D01*
Y2510000D01*
X1710000D01*
Y2520000D01*
X1690000D01*
Y2510000D01*
X1680000D01*
Y2490000D01*
X1690000D01*
X1790000Y2590000D02*
Y2580000D01*
X1810000D01*
Y2590000D01*
X1820000D01*
Y2610000D01*
X1810000D01*
Y2620000D01*
X1790000D01*
Y2610000D01*
X1780000D01*
Y2590000D01*
X1790000D01*
X1690000D02*
Y2580000D01*
X1710000D01*
Y2590000D01*
X1720000D01*
Y2610000D01*
X1710000D01*
Y2620000D01*
X1690000D01*
Y2610000D01*
X1680000D01*
Y2590000D01*
X1690000D01*
X1790000Y2690000D02*
Y2680000D01*
X1810000D01*
Y2690000D01*
X1820000D01*
Y2710000D01*
X1810000D01*
Y2720000D01*
X1790000D01*
Y2710000D01*
X1780000D01*
Y2690000D01*
X1790000D01*
X1690000D02*
Y2680000D01*
X1710000D01*
Y2690000D01*
X1720000D01*
Y2710000D01*
X1710000D01*
Y2720000D01*
X1690000D01*
Y2710000D01*
X1680000D01*
Y2690000D01*
X1690000D01*
X1790000Y2790000D02*
Y2780000D01*
X1810000D01*
Y2790000D01*
X1820000D01*
Y2810000D01*
X1810000D01*
Y2820000D01*
X1790000D01*
Y2810000D01*
X1780000D01*
Y2790000D01*
X1790000D01*
X1690000D02*
Y2780000D01*
X1710000D01*
Y2790000D01*
X1720000D01*
Y2810000D01*
X1710000D01*
Y2820000D01*
X1690000D01*
Y2810000D01*
X1680000D01*
Y2790000D01*
X1690000D01*
X1790000Y2890000D02*
Y2880000D01*
X1810000D01*
Y2890000D01*
X1820000D01*
Y2910000D01*
X1810000D01*
Y2920000D01*
X1790000D01*
Y2910000D01*
X1780000D01*
Y2890000D01*
X1790000D01*
X1690000D02*
Y2880000D01*
X1710000D01*
Y2890000D01*
X1720000D01*
Y2910000D01*
X1710000D01*
Y2920000D01*
X1690000D01*
Y2910000D01*
X1680000D01*
Y2890000D01*
X1690000D01*
X1790000Y2990000D02*
Y2980000D01*
X1810000D01*
Y2990000D01*
X1820000D01*
Y3010000D01*
X1810000D01*
Y3020000D01*
X1790000D01*
Y3010000D01*
X1780000D01*
Y2990000D01*
X1790000D01*
X1690000D02*
Y2980000D01*
X1710000D01*
Y2990000D01*
X1720000D01*
Y3010000D01*
X1710000D01*
Y3020000D01*
X1690000D01*
Y3010000D01*
X1680000D01*
Y2990000D01*
X1690000D01*
X1790000Y3090000D02*
Y3080000D01*
X1810000D01*
Y3090000D01*
X1820000D01*
Y3110000D01*
X1810000D01*
Y3120000D01*
X1790000D01*
Y3110000D01*
X1780000D01*
Y3090000D01*
X1790000D01*
X1690000Y3190000D02*
Y3180000D01*
X1710000D01*
Y3190000D01*
X1720000D01*
Y3210000D01*
X1710000D01*
Y3220000D01*
X1690000D01*
Y3210000D01*
X1680000D01*
Y3190000D01*
X1690000D01*
Y3090000D02*
Y3080000D01*
X1710000D01*
Y3090000D01*
X1720000D01*
Y3110000D01*
X1710000D01*
Y3120000D01*
X1690000D01*
Y3110000D01*
X1680000D01*
Y3090000D01*
X1690000D01*
X1590000Y3190000D02*
Y3180000D01*
X1610000D01*
Y3190000D01*
X1620000D01*
Y3210000D01*
X1610000D01*
Y3220000D01*
X1590000D01*
Y3210000D01*
X1580000D01*
Y3190000D01*
X1590000D01*
Y3090000D02*
Y3080000D01*
X1610000D01*
Y3090000D01*
X1620000D01*
Y3110000D01*
X1610000D01*
Y3120000D01*
X1590000D01*
Y3110000D01*
X1580000D01*
Y3090000D01*
X1590000D01*
X1490000Y3190000D02*
Y3180000D01*
X1510000D01*
Y3190000D01*
X1520000D01*
Y3210000D01*
X1510000D01*
Y3220000D01*
X1490000D01*
Y3210000D01*
X1480000D01*
Y3190000D01*
X1490000D01*
Y3090000D02*
Y3080000D01*
X1510000D01*
Y3090000D01*
X1520000D01*
Y3110000D01*
X1510000D01*
Y3120000D01*
X1490000D01*
Y3110000D01*
X1480000D01*
Y3090000D01*
X1490000D01*
X1390000Y3190000D02*
Y3180000D01*
X1410000D01*
Y3190000D01*
X1420000D01*
Y3210000D01*
X1410000D01*
Y3220000D01*
X1390000D01*
Y3210000D01*
X1380000D01*
Y3190000D01*
X1390000D01*
Y3090000D02*
Y3080000D01*
X1410000D01*
Y3090000D01*
X1420000D01*
Y3110000D01*
X1410000D01*
Y3120000D01*
X1390000D01*
Y3110000D01*
X1380000D01*
Y3090000D01*
X1390000D01*
X1190000Y2990000D02*
Y2980000D01*
X1210000D01*
Y2990000D01*
X1220000D01*
Y3010000D01*
X1210000D01*
Y3020000D01*
X1190000D01*
Y3010000D01*
X1180000D01*
Y2990000D01*
X1190000D01*
Y2890000D02*
Y2880000D01*
X1210000D01*
Y2890000D01*
X1220000D01*
Y2910000D01*
X1210000D01*
Y2920000D01*
X1190000D01*
Y2910000D01*
X1180000D01*
Y2890000D01*
X1190000D01*
Y3090000D02*
Y3080000D01*
X1210000D01*
Y3090000D01*
X1220000D01*
Y3110000D01*
X1210000D01*
Y3120000D01*
X1190000D01*
Y3110000D01*
X1180000D01*
Y3090000D01*
X1190000D01*
X1290000Y3190000D02*
Y3180000D01*
X1310000D01*
Y3190000D01*
X1320000D01*
Y3210000D01*
X1310000D01*
Y3220000D01*
X1290000D01*
Y3210000D01*
X1280000D01*
Y3190000D01*
X1290000D01*
Y3090000D02*
Y3080000D01*
X1310000D01*
Y3090000D01*
X1320000D01*
Y3110000D01*
X1310000D01*
Y3120000D01*
X1290000D01*
Y3110000D01*
X1280000D01*
Y3090000D01*
X1290000D01*
X1190000Y3190000D02*
Y3180000D01*
X1210000D01*
Y3190000D01*
X1220000D01*
Y3210000D01*
X1210000D01*
Y3220000D01*
X1190000D01*
Y3210000D01*
X1180000D01*
Y3190000D01*
X1190000D01*
X1290000Y2590000D02*
Y2580000D01*
X1310000D01*
Y2590000D01*
X1320000D01*
Y2610000D01*
X1310000D01*
Y2620000D01*
X1290000D01*
Y2610000D01*
X1280000D01*
Y2590000D01*
X1290000D01*
X1090000Y3090000D02*
Y3080000D01*
X1110000D01*
Y3090000D01*
X1120000D01*
Y3110000D01*
X1110000D01*
Y3120000D01*
X1090000D01*
Y3110000D01*
X1080000D01*
Y3090000D01*
X1090000D01*
X1290000Y2490000D02*
Y2480000D01*
X1310000D01*
Y2490000D01*
X1320000D01*
Y2510000D01*
X1310000D01*
Y2520000D01*
X1290000D01*
Y2510000D01*
X1280000D01*
Y2490000D01*
X1290000D01*
X1090000Y2990000D02*
Y2980000D01*
X1110000D01*
Y2990000D01*
X1120000D01*
Y3010000D01*
X1110000D01*
Y3020000D01*
X1090000D01*
Y3010000D01*
X1080000D01*
Y2990000D01*
X1090000D01*
Y2890000D02*
Y2880000D01*
X1110000D01*
Y2890000D01*
X1120000D01*
Y2910000D01*
X1110000D01*
Y2920000D01*
X1090000D01*
Y2910000D01*
X1080000D01*
Y2890000D01*
X1090000D01*
X1190000Y2790000D02*
Y2780000D01*
X1210000D01*
Y2790000D01*
X1220000D01*
Y2810000D01*
X1210000D01*
Y2820000D01*
X1190000D01*
Y2810000D01*
X1180000D01*
Y2790000D01*
X1190000D01*
Y2690000D02*
Y2680000D01*
X1210000D01*
Y2690000D01*
X1220000D01*
Y2710000D01*
X1210000D01*
Y2720000D01*
X1190000D01*
Y2710000D01*
X1180000D01*
Y2690000D01*
X1190000D01*
X1090000Y2790000D02*
Y2780000D01*
X1110000D01*
Y2790000D01*
X1120000D01*
Y2810000D01*
X1110000D01*
Y2820000D01*
X1090000D01*
Y2810000D01*
X1080000D01*
Y2790000D01*
X1090000D01*
X1190000Y2590000D02*
Y2580000D01*
X1210000D01*
Y2590000D01*
X1220000D01*
Y2610000D01*
X1210000D01*
Y2620000D01*
X1190000D01*
Y2610000D01*
X1180000D01*
Y2590000D01*
X1190000D01*
X1090000Y2690000D02*
Y2680000D01*
X1110000D01*
Y2690000D01*
X1120000D01*
Y2710000D01*
X1110000D01*
Y2720000D01*
X1090000D01*
Y2710000D01*
X1080000D01*
Y2690000D01*
X1090000D01*
Y2590000D02*
Y2580000D01*
X1110000D01*
Y2590000D01*
X1120000D01*
Y2610000D01*
X1110000D01*
Y2620000D01*
X1090000D01*
Y2610000D01*
X1080000D01*
Y2590000D01*
X1090000D01*
X1190000Y2490000D02*
Y2480000D01*
X1210000D01*
Y2490000D01*
X1220000D01*
Y2510000D01*
X1210000D01*
Y2520000D01*
X1190000D01*
Y2510000D01*
X1180000D01*
Y2490000D01*
X1190000D01*
X1390000D02*
Y2480000D01*
X1410000D01*
Y2490000D01*
X1420000D01*
Y2510000D01*
X1410000D01*
Y2520000D01*
X1390000D01*
Y2510000D01*
X1380000D01*
Y2490000D01*
X1390000D01*
X1320000Y5210000D02*
Y5200000D01*
X1340000D01*
Y5210000D01*
X1350000D01*
Y5230000D01*
X1340000D01*
Y5240000D01*
X1320000D01*
Y5230000D01*
X1310000D01*
Y5210000D01*
X1320000D01*
X1620000D02*
Y5200000D01*
X1640000D01*
Y5210000D01*
X1650000D01*
Y5230000D01*
X1640000D01*
Y5240000D01*
X1620000D01*
Y5230000D01*
X1610000D01*
Y5210000D01*
X1620000D01*
X770000D02*
Y5200000D01*
X790000D01*
Y5210000D01*
X800000D01*
Y5230000D01*
X790000D01*
Y5240000D01*
X770000D01*
Y5230000D01*
X760000D01*
Y5210000D01*
X770000D01*
X1070000D02*
Y5200000D01*
X1090000D01*
Y5210000D01*
X1100000D01*
Y5230000D01*
X1090000D01*
Y5240000D01*
X1070000D01*
Y5230000D01*
X1060000D01*
Y5210000D01*
X1070000D01*
X4980000Y4880000D02*
X4990000Y4900000D01*
X4980000Y4920000D01*
X5000000Y4910000D01*
X5020000Y4920000D01*
X5010000Y4900000D01*
X5020000Y4880000D01*
X5000000Y4890000D01*
X4980000Y4880000D01*
Y4780000D02*
X4990000Y4800000D01*
X4980000Y4820000D01*
X5000000Y4810000D01*
X5020000Y4820000D01*
X5010000Y4800000D01*
X5020000Y4780000D01*
X5000000Y4790000D01*
X4980000Y4780000D01*
Y4680000D02*
X4990000Y4700000D01*
X4980000Y4720000D01*
X5000000Y4710000D01*
X5020000Y4720000D01*
X5010000Y4700000D01*
X5020000Y4680000D01*
X5000000Y4690000D01*
X4980000Y4680000D01*
Y4580000D02*
X4990000Y4600000D01*
X4980000Y4620000D01*
X5000000Y4610000D01*
X5020000Y4620000D01*
X5010000Y4600000D01*
X5020000Y4580000D01*
X5000000Y4590000D01*
X4980000Y4580000D01*
Y4480000D02*
X4990000Y4500000D01*
X4980000Y4520000D01*
X5000000Y4510000D01*
X5020000Y4520000D01*
X5010000Y4500000D01*
X5020000Y4480000D01*
X5000000Y4490000D01*
X4980000Y4480000D01*
Y4380000D02*
X4990000Y4400000D01*
X4980000Y4420000D01*
X5000000Y4410000D01*
X5020000Y4420000D01*
X5010000Y4400000D01*
X5020000Y4380000D01*
X5000000Y4390000D01*
X4980000Y4380000D01*
Y4280000D02*
X4990000Y4300000D01*
X4980000Y4320000D01*
X5000000Y4310000D01*
X5020000Y4320000D01*
X5010000Y4300000D01*
X5020000Y4280000D01*
X5000000Y4290000D01*
X4980000Y4280000D01*
Y4180000D02*
X4990000Y4200000D01*
X4980000Y4220000D01*
X5000000Y4210000D01*
X5020000Y4220000D01*
X5010000Y4200000D01*
X5020000Y4180000D01*
X5000000Y4190000D01*
X4980000Y4180000D01*
Y4080000D02*
X4990000Y4100000D01*
X4980000Y4120000D01*
X5000000Y4110000D01*
X5020000Y4120000D01*
X5010000Y4100000D01*
X5020000Y4080000D01*
X5000000Y4090000D01*
X4980000Y4080000D01*
Y3980000D02*
X4990000Y4000000D01*
X4980000Y4020000D01*
X5000000Y4010000D01*
X5020000Y4020000D01*
X5010000Y4000000D01*
X5020000Y3980000D01*
X5000000Y3990000D01*
X4980000Y3980000D01*
Y3880000D02*
X4990000Y3900000D01*
X4980000Y3920000D01*
X5000000Y3910000D01*
X5020000Y3920000D01*
X5010000Y3900000D01*
X5020000Y3880000D01*
X5000000Y3890000D01*
X4980000Y3880000D01*
Y3780000D02*
X4990000Y3800000D01*
X4980000Y3820000D01*
X5000000Y3810000D01*
X5020000Y3820000D01*
X5010000Y3800000D01*
X5020000Y3780000D01*
X5000000Y3790000D01*
X4980000Y3780000D01*
Y3680000D02*
X4990000Y3700000D01*
X4980000Y3720000D01*
X5000000Y3710000D01*
X5020000Y3720000D01*
X5010000Y3700000D01*
X5020000Y3680000D01*
X5000000Y3690000D01*
X4980000Y3680000D01*
Y3580000D02*
X4990000Y3600000D01*
X4980000Y3620000D01*
X5000000Y3610000D01*
X5020000Y3620000D01*
X5010000Y3600000D01*
X5020000Y3580000D01*
X5000000Y3590000D01*
X4980000Y3580000D01*
X5580000Y4880000D02*
X5590000Y4900000D01*
X5580000Y4920000D01*
X5600000Y4910000D01*
X5620000Y4920000D01*
X5610000Y4900000D01*
X5620000Y4880000D01*
X5600000Y4890000D01*
X5580000Y4880000D01*
Y4780000D02*
X5590000Y4800000D01*
X5580000Y4820000D01*
X5600000Y4810000D01*
X5620000Y4820000D01*
X5610000Y4800000D01*
X5620000Y4780000D01*
X5600000Y4790000D01*
X5580000Y4780000D01*
Y4680000D02*
X5590000Y4700000D01*
X5580000Y4720000D01*
X5600000Y4710000D01*
X5620000Y4720000D01*
X5610000Y4700000D01*
X5620000Y4680000D01*
X5600000Y4690000D01*
X5580000Y4680000D01*
Y4580000D02*
X5590000Y4600000D01*
X5580000Y4620000D01*
X5600000Y4610000D01*
X5620000Y4620000D01*
X5610000Y4600000D01*
X5620000Y4580000D01*
X5600000Y4590000D01*
X5580000Y4580000D01*
Y4480000D02*
X5590000Y4500000D01*
X5580000Y4520000D01*
X5600000Y4510000D01*
X5620000Y4520000D01*
X5610000Y4500000D01*
X5620000Y4480000D01*
X5600000Y4490000D01*
X5580000Y4480000D01*
Y4380000D02*
X5590000Y4400000D01*
X5580000Y4420000D01*
X5600000Y4410000D01*
X5620000Y4420000D01*
X5610000Y4400000D01*
X5620000Y4380000D01*
X5600000Y4390000D01*
X5580000Y4380000D01*
Y4280000D02*
X5590000Y4300000D01*
X5580000Y4320000D01*
X5600000Y4310000D01*
X5620000Y4320000D01*
X5610000Y4300000D01*
X5620000Y4280000D01*
X5600000Y4290000D01*
X5580000Y4280000D01*
Y4180000D02*
X5590000Y4200000D01*
X5580000Y4220000D01*
X5600000Y4210000D01*
X5620000Y4220000D01*
X5610000Y4200000D01*
X5620000Y4180000D01*
X5600000Y4190000D01*
X5580000Y4180000D01*
Y4080000D02*
X5590000Y4100000D01*
X5580000Y4120000D01*
X5600000Y4110000D01*
X5620000Y4120000D01*
X5610000Y4100000D01*
X5620000Y4080000D01*
X5600000Y4090000D01*
X5580000Y4080000D01*
Y3980000D02*
X5590000Y4000000D01*
X5580000Y4020000D01*
X5600000Y4010000D01*
X5620000Y4020000D01*
X5610000Y4000000D01*
X5620000Y3980000D01*
X5600000Y3990000D01*
X5580000Y3980000D01*
Y3880000D02*
X5590000Y3900000D01*
X5580000Y3920000D01*
X5600000Y3910000D01*
X5620000Y3920000D01*
X5610000Y3900000D01*
X5620000Y3880000D01*
X5600000Y3890000D01*
X5580000Y3880000D01*
Y3780000D02*
X5590000Y3800000D01*
X5580000Y3820000D01*
X5600000Y3810000D01*
X5620000Y3820000D01*
X5610000Y3800000D01*
X5620000Y3780000D01*
X5600000Y3790000D01*
X5580000Y3780000D01*
Y3680000D02*
X5590000Y3700000D01*
X5580000Y3720000D01*
X5600000Y3710000D01*
X5620000Y3720000D01*
X5610000Y3700000D01*
X5620000Y3680000D01*
X5600000Y3690000D01*
X5580000Y3680000D01*
Y3580000D02*
X5590000Y3600000D01*
X5580000Y3620000D01*
X5600000Y3610000D01*
X5620000Y3620000D01*
X5610000Y3600000D01*
X5620000Y3580000D01*
X5600000Y3590000D01*
X5580000Y3580000D01*
X510000Y5210000D02*
Y5200000D01*
X530000D01*
Y5210000D01*
X540000D01*
Y5230000D01*
X530000D01*
Y5240000D01*
X510000D01*
Y5230000D01*
X500000D01*
Y5210000D01*
X510000D01*
X210000D02*
Y5200000D01*
X230000D01*
Y5210000D01*
X240000D01*
Y5230000D01*
X230000D01*
Y5240000D01*
X210000D01*
Y5230000D01*
X200000D01*
Y5210000D01*
X210000D01*
Y4920000D02*
Y4910000D01*
X230000D01*
Y4920000D01*
X240000D01*
Y4940000D01*
X230000D01*
Y4950000D01*
X210000D01*
Y4940000D01*
X200000D01*
Y4920000D01*
X210000D01*
X510000D02*
Y4910000D01*
X530000D01*
Y4920000D01*
X540000D01*
Y4940000D01*
X530000D01*
Y4950000D01*
X510000D01*
Y4940000D01*
X500000D01*
Y4920000D01*
X510000D01*
X690000Y4440000D02*
Y4430000D01*
X710000D01*
Y4440000D01*
X720000D01*
Y4460000D01*
X710000D01*
Y4470000D01*
X690000D01*
Y4460000D01*
X680000D01*
Y4440000D01*
X690000D01*
Y4540000D02*
Y4530000D01*
X710000D01*
Y4540000D01*
X720000D01*
Y4560000D01*
X710000D01*
Y4570000D01*
X690000D01*
Y4560000D01*
X680000D01*
Y4540000D01*
X690000D01*
Y4640000D02*
Y4630000D01*
X710000D01*
Y4640000D01*
X720000D01*
Y4660000D01*
X710000D01*
Y4670000D01*
X690000D01*
Y4660000D01*
X680000D01*
Y4640000D01*
X690000D01*
X340000Y2690000D02*
Y2680000D01*
X360000D01*
Y2690000D01*
X370000D01*
Y2710000D01*
X360000D01*
Y2720000D01*
X340000D01*
Y2710000D01*
X330000D01*
Y2690000D01*
X340000D01*
X240000D02*
Y2680000D01*
X260000D01*
Y2690000D01*
X270000D01*
Y2710000D01*
X260000D01*
Y2720000D01*
X240000D01*
Y2710000D01*
X230000D01*
Y2690000D01*
X240000D01*
X340000Y2790000D02*
Y2780000D01*
X360000D01*
Y2790000D01*
X370000D01*
Y2810000D01*
X360000D01*
Y2820000D01*
X340000D01*
Y2810000D01*
X330000D01*
Y2790000D01*
X340000D01*
X240000D02*
Y2780000D01*
X260000D01*
Y2790000D01*
X270000D01*
Y2810000D01*
X260000D01*
Y2820000D01*
X240000D01*
Y2810000D01*
X230000D01*
Y2790000D01*
X240000D01*
X340000Y2890000D02*
Y2880000D01*
X360000D01*
Y2890000D01*
X370000D01*
Y2910000D01*
X360000D01*
Y2920000D01*
X340000D01*
Y2910000D01*
X330000D01*
Y2890000D01*
X340000D01*
X240000D02*
Y2880000D01*
X260000D01*
Y2890000D01*
X270000D01*
Y2910000D01*
X260000D01*
Y2920000D01*
X240000D01*
Y2910000D01*
X230000D01*
Y2890000D01*
X240000D01*
X340000Y2990000D02*
Y2980000D01*
X360000D01*
Y2990000D01*
X370000D01*
Y3010000D01*
X360000D01*
Y3020000D01*
X340000D01*
Y3010000D01*
X330000D01*
Y2990000D01*
X340000D01*
X240000D02*
Y2980000D01*
X260000D01*
Y2990000D01*
X270000D01*
Y3010000D01*
X260000D01*
Y3020000D01*
X240000D01*
Y3010000D01*
X230000D01*
Y2990000D01*
X240000D01*
X340000Y3090000D02*
Y3080000D01*
X360000D01*
Y3090000D01*
X370000D01*
Y3110000D01*
X360000D01*
Y3120000D01*
X340000D01*
Y3110000D01*
X330000D01*
Y3090000D01*
X340000D01*
X240000D02*
Y3080000D01*
X260000D01*
Y3090000D01*
X270000D01*
Y3110000D01*
X260000D01*
Y3120000D01*
X240000D01*
Y3110000D01*
X230000D01*
Y3090000D01*
X240000D01*
X2580000Y780000D02*
X2590000Y800000D01*
X2580000Y820000D01*
X2600000Y810000D01*
X2620000Y820000D01*
X2610000Y800000D01*
X2620000Y780000D01*
X2600000Y790000D01*
X2580000Y780000D01*
X2480000D02*
X2490000Y800000D01*
X2480000Y820000D01*
X2500000Y810000D01*
X2520000Y820000D01*
X2510000Y800000D01*
X2520000Y780000D01*
X2500000Y790000D01*
X2480000Y780000D01*
X2380000D02*
X2390000Y800000D01*
X2380000Y820000D01*
X2400000Y810000D01*
X2420000Y820000D01*
X2410000Y800000D01*
X2420000Y780000D01*
X2400000Y790000D01*
X2380000Y780000D01*
X2280000D02*
X2290000Y800000D01*
X2280000Y820000D01*
X2300000Y810000D01*
X2320000Y820000D01*
X2310000Y800000D01*
X2320000Y780000D01*
X2300000Y790000D01*
X2280000Y780000D01*
X2180000D02*
X2190000Y800000D01*
X2180000Y820000D01*
X2200000Y810000D01*
X2220000Y820000D01*
X2210000Y800000D01*
X2220000Y780000D01*
X2200000Y790000D01*
X2180000Y780000D01*
X2080000D02*
X2090000Y800000D01*
X2080000Y820000D01*
X2100000Y810000D01*
X2120000Y820000D01*
X2110000Y800000D01*
X2120000Y780000D01*
X2100000Y790000D01*
X2080000Y780000D01*
X1980000D02*
X1990000Y800000D01*
X1980000Y820000D01*
X2000000Y810000D01*
X2020000Y820000D01*
X2010000Y800000D01*
X2020000Y780000D01*
X2000000Y790000D01*
X1980000Y780000D01*
X1880000D02*
X1890000Y800000D01*
X1880000Y820000D01*
X1900000Y810000D01*
X1920000Y820000D01*
X1910000Y800000D01*
X1920000Y780000D01*
X1900000Y790000D01*
X1880000Y780000D01*
X1780000D02*
X1790000Y800000D01*
X1780000Y820000D01*
X1800000Y810000D01*
X1820000Y820000D01*
X1810000Y800000D01*
X1820000Y780000D01*
X1800000Y790000D01*
X1780000Y780000D01*
X1680000D02*
X1690000Y800000D01*
X1680000Y820000D01*
X1700000Y810000D01*
X1720000Y820000D01*
X1710000Y800000D01*
X1720000Y780000D01*
X1700000Y790000D01*
X1680000Y780000D01*
X1580000D02*
X1590000Y800000D01*
X1580000Y820000D01*
X1600000Y810000D01*
X1620000Y820000D01*
X1610000Y800000D01*
X1620000Y780000D01*
X1600000Y790000D01*
X1580000Y780000D01*
X1480000D02*
X1490000Y800000D01*
X1480000Y820000D01*
X1500000Y810000D01*
X1520000Y820000D01*
X1510000Y800000D01*
X1520000Y780000D01*
X1500000Y790000D01*
X1480000Y780000D01*
X1380000D02*
X1390000Y800000D01*
X1380000Y820000D01*
X1400000Y810000D01*
X1420000Y820000D01*
X1410000Y800000D01*
X1420000Y780000D01*
X1400000Y790000D01*
X1380000Y780000D01*
X1280000D02*
X1290000Y800000D01*
X1280000Y820000D01*
X1300000Y810000D01*
X1320000Y820000D01*
X1310000Y800000D01*
X1320000Y780000D01*
X1300000Y790000D01*
X1280000Y780000D01*
X1180000D02*
X1190000Y800000D01*
X1180000Y820000D01*
X1200000Y810000D01*
X1220000Y820000D01*
X1210000Y800000D01*
X1220000Y780000D01*
X1200000Y790000D01*
X1180000Y780000D01*
X1080000D02*
X1090000Y800000D01*
X1080000Y820000D01*
X1100000Y810000D01*
X1120000Y820000D01*
X1110000Y800000D01*
X1120000Y780000D01*
X1100000Y790000D01*
X1080000Y780000D01*
X980000D02*
X990000Y800000D01*
X980000Y820000D01*
X1000000Y810000D01*
X1020000Y820000D01*
X1010000Y800000D01*
X1020000Y780000D01*
X1000000Y790000D01*
X980000Y780000D01*
X880000D02*
X890000Y800000D01*
X880000Y820000D01*
X900000Y810000D01*
X920000Y820000D01*
X910000Y800000D01*
X920000Y780000D01*
X900000Y790000D01*
X880000Y780000D01*
X780000D02*
X790000Y800000D01*
X780000Y820000D01*
X800000Y810000D01*
X820000Y820000D01*
X810000Y800000D01*
X820000Y780000D01*
X800000Y790000D01*
X780000Y780000D01*
X680000D02*
X690000Y800000D01*
X680000Y820000D01*
X700000Y810000D01*
X720000Y820000D01*
X710000Y800000D01*
X720000Y780000D01*
X700000Y790000D01*
X680000Y780000D01*
X2580000Y180000D02*
X2590000Y200000D01*
X2580000Y220000D01*
X2600000Y210000D01*
X2620000Y220000D01*
X2610000Y200000D01*
X2620000Y180000D01*
X2600000Y190000D01*
X2580000Y180000D01*
X2480000D02*
X2490000Y200000D01*
X2480000Y220000D01*
X2500000Y210000D01*
X2520000Y220000D01*
X2510000Y200000D01*
X2520000Y180000D01*
X2500000Y190000D01*
X2480000Y180000D01*
X2380000D02*
X2390000Y200000D01*
X2380000Y220000D01*
X2400000Y210000D01*
X2420000Y220000D01*
X2410000Y200000D01*
X2420000Y180000D01*
X2400000Y190000D01*
X2380000Y180000D01*
X2280000D02*
X2290000Y200000D01*
X2280000Y220000D01*
X2300000Y210000D01*
X2320000Y220000D01*
X2310000Y200000D01*
X2320000Y180000D01*
X2300000Y190000D01*
X2280000Y180000D01*
X2180000D02*
X2190000Y200000D01*
X2180000Y220000D01*
X2200000Y210000D01*
X2220000Y220000D01*
X2210000Y200000D01*
X2220000Y180000D01*
X2200000Y190000D01*
X2180000Y180000D01*
X2080000D02*
X2090000Y200000D01*
X2080000Y220000D01*
X2100000Y210000D01*
X2120000Y220000D01*
X2110000Y200000D01*
X2120000Y180000D01*
X2100000Y190000D01*
X2080000Y180000D01*
X1980000D02*
X1990000Y200000D01*
X1980000Y220000D01*
X2000000Y210000D01*
X2020000Y220000D01*
X2010000Y200000D01*
X2020000Y180000D01*
X2000000Y190000D01*
X1980000Y180000D01*
X1880000D02*
X1890000Y200000D01*
X1880000Y220000D01*
X1900000Y210000D01*
X1920000Y220000D01*
X1910000Y200000D01*
X1920000Y180000D01*
X1900000Y190000D01*
X1880000Y180000D01*
X1780000D02*
X1790000Y200000D01*
X1780000Y220000D01*
X1800000Y210000D01*
X1820000Y220000D01*
X1810000Y200000D01*
X1820000Y180000D01*
X1800000Y190000D01*
X1780000Y180000D01*
X1680000D02*
X1690000Y200000D01*
X1680000Y220000D01*
X1700000Y210000D01*
X1720000Y220000D01*
X1710000Y200000D01*
X1720000Y180000D01*
X1700000Y190000D01*
X1680000Y180000D01*
X1580000D02*
X1590000Y200000D01*
X1580000Y220000D01*
X1600000Y210000D01*
X1620000Y220000D01*
X1610000Y200000D01*
X1620000Y180000D01*
X1600000Y190000D01*
X1580000Y180000D01*
X1480000D02*
X1490000Y200000D01*
X1480000Y220000D01*
X1500000Y210000D01*
X1520000Y220000D01*
X1510000Y200000D01*
X1520000Y180000D01*
X1500000Y190000D01*
X1480000Y180000D01*
X1380000D02*
X1390000Y200000D01*
X1380000Y220000D01*
X1400000Y210000D01*
X1420000Y220000D01*
X1410000Y200000D01*
X1420000Y180000D01*
X1400000Y190000D01*
X1380000Y180000D01*
X1280000D02*
X1290000Y200000D01*
X1280000Y220000D01*
X1300000Y210000D01*
X1320000Y220000D01*
X1310000Y200000D01*
X1320000Y180000D01*
X1300000Y190000D01*
X1280000Y180000D01*
X1180000D02*
X1190000Y200000D01*
X1180000Y220000D01*
X1200000Y210000D01*
X1220000Y220000D01*
X1210000Y200000D01*
X1220000Y180000D01*
X1200000Y190000D01*
X1180000Y180000D01*
X1080000D02*
X1090000Y200000D01*
X1080000Y220000D01*
X1100000Y210000D01*
X1120000Y220000D01*
X1110000Y200000D01*
X1120000Y180000D01*
X1100000Y190000D01*
X1080000Y180000D01*
X980000D02*
X990000Y200000D01*
X980000Y220000D01*
X1000000Y210000D01*
X1020000Y220000D01*
X1010000Y200000D01*
X1020000Y180000D01*
X1000000Y190000D01*
X980000Y180000D01*
X880000D02*
X890000Y200000D01*
X880000Y220000D01*
X900000Y210000D01*
X920000Y220000D01*
X910000Y200000D01*
X920000Y180000D01*
X900000Y190000D01*
X880000Y180000D01*
X780000D02*
X790000Y200000D01*
X780000Y220000D01*
X800000Y210000D01*
X820000Y220000D01*
X810000Y200000D01*
X820000Y180000D01*
X800000Y190000D01*
X780000Y180000D01*
X680000D02*
X690000Y200000D01*
X680000Y220000D01*
X700000Y210000D01*
X720000Y220000D01*
X710000Y200000D01*
X720000Y180000D01*
X700000Y190000D01*
X680000Y180000D01*
X240000Y2140000D02*
Y2130000D01*
X260000D01*
Y2140000D01*
X270000D01*
Y2160000D01*
X260000D01*
Y2170000D01*
X240000D01*
Y2160000D01*
X230000D01*
Y2140000D01*
X240000D01*
X340000D02*
Y2130000D01*
X360000D01*
Y2140000D01*
X370000D01*
Y2160000D01*
X360000D01*
Y2170000D01*
X340000D01*
Y2160000D01*
X330000D01*
Y2140000D01*
X340000D01*
X240000Y2040000D02*
Y2030000D01*
X260000D01*
Y2040000D01*
X270000D01*
Y2060000D01*
X260000D01*
Y2070000D01*
X240000D01*
Y2060000D01*
X230000D01*
Y2040000D01*
X240000D01*
X340000D02*
Y2030000D01*
X360000D01*
Y2040000D01*
X370000D01*
Y2060000D01*
X360000D01*
Y2070000D01*
X340000D01*
Y2060000D01*
X330000D01*
Y2040000D01*
X340000D01*
X240000Y1940000D02*
Y1930000D01*
X260000D01*
Y1940000D01*
X270000D01*
Y1960000D01*
X260000D01*
Y1970000D01*
X240000D01*
Y1960000D01*
X230000D01*
Y1940000D01*
X240000D01*
X340000D02*
Y1930000D01*
X360000D01*
Y1940000D01*
X370000D01*
Y1960000D01*
X360000D01*
Y1970000D01*
X340000D01*
Y1960000D01*
X330000D01*
Y1940000D01*
X340000D01*
X240000Y1840000D02*
Y1830000D01*
X260000D01*
Y1840000D01*
X270000D01*
Y1860000D01*
X260000D01*
Y1870000D01*
X240000D01*
Y1860000D01*
X230000D01*
Y1840000D01*
X240000D01*
X340000D02*
Y1830000D01*
X360000D01*
Y1840000D01*
X370000D01*
Y1860000D01*
X360000D01*
Y1870000D01*
X340000D01*
Y1860000D01*
X330000D01*
Y1840000D01*
X340000D01*
X240000Y1740000D02*
Y1730000D01*
X260000D01*
Y1740000D01*
X270000D01*
Y1760000D01*
X260000D01*
Y1770000D01*
X240000D01*
Y1760000D01*
X230000D01*
Y1740000D01*
X240000D01*
X340000D02*
Y1730000D01*
X360000D01*
Y1740000D01*
X370000D01*
Y1760000D01*
X360000D01*
Y1770000D01*
X340000D01*
Y1760000D01*
X330000D01*
Y1740000D01*
X340000D01*
X240000Y940000D02*
Y930000D01*
X260000D01*
Y940000D01*
X270000D01*
Y960000D01*
X260000D01*
Y970000D01*
X240000D01*
Y960000D01*
X230000D01*
Y940000D01*
X240000D01*
X340000D02*
Y930000D01*
X360000D01*
Y940000D01*
X370000D01*
Y960000D01*
X360000D01*
Y970000D01*
X340000D01*
Y960000D01*
X330000D01*
Y940000D01*
X340000D01*
X240000Y840000D02*
Y830000D01*
X260000D01*
Y840000D01*
X270000D01*
Y860000D01*
X260000D01*
Y870000D01*
X240000D01*
Y860000D01*
X230000D01*
Y840000D01*
X240000D01*
X340000D02*
Y830000D01*
X360000D01*
Y840000D01*
X370000D01*
Y860000D01*
X360000D01*
Y870000D01*
X340000D01*
Y860000D01*
X330000D01*
Y840000D01*
X340000D01*
X240000Y740000D02*
Y730000D01*
X260000D01*
Y740000D01*
X270000D01*
Y760000D01*
X260000D01*
Y770000D01*
X240000D01*
Y760000D01*
X230000D01*
Y740000D01*
X240000D01*
X340000D02*
Y730000D01*
X360000D01*
Y740000D01*
X370000D01*
Y760000D01*
X360000D01*
Y770000D01*
X340000D01*
Y760000D01*
X330000D01*
Y740000D01*
X340000D01*
X240000Y640000D02*
Y630000D01*
X260000D01*
Y640000D01*
X270000D01*
Y660000D01*
X260000D01*
Y670000D01*
X240000D01*
Y660000D01*
X230000D01*
Y640000D01*
X240000D01*
X340000D02*
Y630000D01*
X360000D01*
Y640000D01*
X370000D01*
Y660000D01*
X360000D01*
Y670000D01*
X340000D01*
Y660000D01*
X330000D01*
Y640000D01*
X340000D01*
X240000Y540000D02*
Y530000D01*
X260000D01*
Y540000D01*
X270000D01*
Y560000D01*
X260000D01*
Y570000D01*
X240000D01*
Y560000D01*
X230000D01*
Y540000D01*
X240000D01*
X340000D02*
Y530000D01*
X360000D01*
Y540000D01*
X370000D01*
Y560000D01*
X360000D01*
Y570000D01*
X340000D01*
Y560000D01*
X330000D01*
Y540000D01*
X340000D01*
X6080000Y5620000D02*
X6090000Y5640000D01*
X6080000Y5660000D01*
X6100000Y5650000D01*
X6120000Y5660000D01*
X6110000Y5640000D01*
X6120000Y5620000D01*
X6100000Y5630000D01*
X6080000Y5620000D01*
Y5720000D02*
X6090000Y5740000D01*
X6080000Y5760000D01*
X6100000Y5750000D01*
X6120000Y5760000D01*
X6110000Y5740000D01*
X6120000Y5720000D01*
X6100000Y5730000D01*
X6080000Y5720000D01*
Y5820000D02*
X6090000Y5840000D01*
X6080000Y5860000D01*
X6100000Y5850000D01*
X6120000Y5860000D01*
X6110000Y5840000D01*
X6120000Y5820000D01*
X6100000Y5830000D01*
X6080000Y5820000D01*
Y5920000D02*
X6090000Y5940000D01*
X6080000Y5960000D01*
X6100000Y5950000D01*
X6120000Y5960000D01*
X6110000Y5940000D01*
X6120000Y5920000D01*
X6100000Y5930000D01*
X6080000Y5920000D01*
Y6020000D02*
X6090000Y6040000D01*
X6080000Y6060000D01*
X6100000Y6050000D01*
X6120000Y6060000D01*
X6110000Y6040000D01*
X6120000Y6020000D01*
X6100000Y6030000D01*
X6080000Y6020000D01*
Y6120000D02*
X6090000Y6140000D01*
X6080000Y6160000D01*
X6100000Y6150000D01*
X6120000Y6160000D01*
X6110000Y6140000D01*
X6120000Y6120000D01*
X6100000Y6130000D01*
X6080000Y6120000D01*
Y6220000D02*
X6090000Y6240000D01*
X6080000Y6260000D01*
X6100000Y6250000D01*
X6120000Y6260000D01*
X6110000Y6240000D01*
X6120000Y6220000D01*
X6100000Y6230000D01*
X6080000Y6220000D01*
Y6320000D02*
X6090000Y6340000D01*
X6080000Y6360000D01*
X6100000Y6350000D01*
X6120000Y6360000D01*
X6110000Y6340000D01*
X6120000Y6320000D01*
X6100000Y6330000D01*
X6080000Y6320000D01*
X5780000Y5620000D02*
X5790000Y5640000D01*
X5780000Y5660000D01*
X5800000Y5650000D01*
X5820000Y5660000D01*
X5810000Y5640000D01*
X5820000Y5620000D01*
X5800000Y5630000D01*
X5780000Y5620000D01*
Y5720000D02*
X5790000Y5740000D01*
X5780000Y5760000D01*
X5800000Y5750000D01*
X5820000Y5760000D01*
X5810000Y5740000D01*
X5820000Y5720000D01*
X5800000Y5730000D01*
X5780000Y5720000D01*
Y5820000D02*
X5790000Y5840000D01*
X5780000Y5860000D01*
X5800000Y5850000D01*
X5820000Y5860000D01*
X5810000Y5840000D01*
X5820000Y5820000D01*
X5800000Y5830000D01*
X5780000Y5820000D01*
Y5920000D02*
X5790000Y5940000D01*
X5780000Y5960000D01*
X5800000Y5950000D01*
X5820000Y5960000D01*
X5810000Y5940000D01*
X5820000Y5920000D01*
X5800000Y5930000D01*
X5780000Y5920000D01*
Y6020000D02*
X5790000Y6040000D01*
X5780000Y6060000D01*
X5800000Y6050000D01*
X5820000Y6060000D01*
X5810000Y6040000D01*
X5820000Y6020000D01*
X5800000Y6030000D01*
X5780000Y6020000D01*
Y6120000D02*
X5790000Y6140000D01*
X5780000Y6160000D01*
X5800000Y6150000D01*
X5820000Y6160000D01*
X5810000Y6140000D01*
X5820000Y6120000D01*
X5800000Y6130000D01*
X5780000Y6120000D01*
Y6220000D02*
X5790000Y6240000D01*
X5780000Y6260000D01*
X5800000Y6250000D01*
X5820000Y6260000D01*
X5810000Y6240000D01*
X5820000Y6220000D01*
X5800000Y6230000D01*
X5780000Y6220000D01*
Y6320000D02*
X5790000Y6340000D01*
X5780000Y6360000D01*
X5800000Y6350000D01*
X5820000Y6360000D01*
X5810000Y6340000D01*
X5820000Y6320000D01*
X5800000Y6330000D01*
X5780000Y6320000D01*
X5230000Y5710000D02*
X5240000Y5730000D01*
X5230000Y5750000D01*
X5250000Y5740000D01*
X5270000Y5750000D01*
X5260000Y5730000D01*
X5270000Y5710000D01*
X5250000Y5720000D01*
X5230000Y5710000D01*
X5330000D02*
X5340000Y5730000D01*
X5330000Y5750000D01*
X5350000Y5740000D01*
X5370000Y5750000D01*
X5360000Y5730000D01*
X5370000Y5710000D01*
X5350000Y5720000D01*
X5330000Y5710000D01*
X5430000D02*
X5440000Y5730000D01*
X5430000Y5750000D01*
X5450000Y5740000D01*
X5470000Y5750000D01*
X5460000Y5730000D01*
X5470000Y5710000D01*
X5450000Y5720000D01*
X5430000Y5710000D01*
X5530000D02*
X5540000Y5730000D01*
X5530000Y5750000D01*
X5550000Y5740000D01*
X5570000Y5750000D01*
X5560000Y5730000D01*
X5570000Y5710000D01*
X5550000Y5720000D01*
X5530000Y5710000D01*
X5630000D02*
X5640000Y5730000D01*
X5630000Y5750000D01*
X5650000Y5740000D01*
X5670000Y5750000D01*
X5660000Y5730000D01*
X5670000Y5710000D01*
X5650000Y5720000D01*
X5630000Y5710000D01*
X5230000Y6310000D02*
X5240000Y6330000D01*
X5230000Y6350000D01*
X5250000Y6340000D01*
X5270000Y6350000D01*
X5260000Y6330000D01*
X5270000Y6310000D01*
X5250000Y6320000D01*
X5230000Y6310000D01*
X5330000D02*
X5340000Y6330000D01*
X5330000Y6350000D01*
X5350000Y6340000D01*
X5370000Y6350000D01*
X5360000Y6330000D01*
X5370000Y6310000D01*
X5350000Y6320000D01*
X5330000Y6310000D01*
X5430000D02*
X5440000Y6330000D01*
X5430000Y6350000D01*
X5450000Y6340000D01*
X5470000Y6350000D01*
X5460000Y6330000D01*
X5470000Y6310000D01*
X5450000Y6320000D01*
X5430000Y6310000D01*
X5530000D02*
X5540000Y6330000D01*
X5530000Y6350000D01*
X5550000Y6340000D01*
X5570000Y6350000D01*
X5560000Y6330000D01*
X5570000Y6310000D01*
X5550000Y6320000D01*
X5530000Y6310000D01*
X5630000D02*
X5640000Y6330000D01*
X5630000Y6350000D01*
X5650000Y6340000D01*
X5670000Y6350000D01*
X5660000Y6330000D01*
X5670000Y6310000D01*
X5650000Y6320000D01*
X5630000Y6310000D01*
X4521762Y5620000D02*
X4531762Y5640000D01*
X4521762Y5660000D01*
X4541762Y5650000D01*
X4561762Y5660000D01*
X4551762Y5640000D01*
X4561762Y5620000D01*
X4541762Y5630000D01*
X4521762Y5620000D01*
Y5720000D02*
X4531762Y5740000D01*
X4521762Y5760000D01*
X4541762Y5750000D01*
X4561762Y5760000D01*
X4551762Y5740000D01*
X4561762Y5720000D01*
X4541762Y5730000D01*
X4521762Y5720000D01*
Y5820000D02*
X4531762Y5840000D01*
X4521762Y5860000D01*
X4541762Y5850000D01*
X4561762Y5860000D01*
X4551762Y5840000D01*
X4561762Y5820000D01*
X4541762Y5830000D01*
X4521762Y5820000D01*
Y5920000D02*
X4531762Y5940000D01*
X4521762Y5960000D01*
X4541762Y5950000D01*
X4561762Y5960000D01*
X4551762Y5940000D01*
X4561762Y5920000D01*
X4541762Y5930000D01*
X4521762Y5920000D01*
Y6020000D02*
X4531762Y6040000D01*
X4521762Y6060000D01*
X4541762Y6050000D01*
X4561762Y6060000D01*
X4551762Y6040000D01*
X4561762Y6020000D01*
X4541762Y6030000D01*
X4521762Y6020000D01*
Y6120000D02*
X4531762Y6140000D01*
X4521762Y6160000D01*
X4541762Y6150000D01*
X4561762Y6160000D01*
X4551762Y6140000D01*
X4561762Y6120000D01*
X4541762Y6130000D01*
X4521762Y6120000D01*
Y6220000D02*
X4531762Y6240000D01*
X4521762Y6260000D01*
X4541762Y6250000D01*
X4561762Y6260000D01*
X4551762Y6240000D01*
X4561762Y6220000D01*
X4541762Y6230000D01*
X4521762Y6220000D01*
Y6320000D02*
X4531762Y6340000D01*
X4521762Y6360000D01*
X4541762Y6350000D01*
X4561762Y6360000D01*
X4551762Y6340000D01*
X4561762Y6320000D01*
X4541762Y6330000D01*
X4521762Y6320000D01*
X4221762Y5620000D02*
X4231762Y5640000D01*
X4221762Y5660000D01*
X4241762Y5650000D01*
X4261762Y5660000D01*
X4251762Y5640000D01*
X4261762Y5620000D01*
X4241762Y5630000D01*
X4221762Y5620000D01*
Y5720000D02*
X4231762Y5740000D01*
X4221762Y5760000D01*
X4241762Y5750000D01*
X4261762Y5760000D01*
X4251762Y5740000D01*
X4261762Y5720000D01*
X4241762Y5730000D01*
X4221762Y5720000D01*
Y5820000D02*
X4231762Y5840000D01*
X4221762Y5860000D01*
X4241762Y5850000D01*
X4261762Y5860000D01*
X4251762Y5840000D01*
X4261762Y5820000D01*
X4241762Y5830000D01*
X4221762Y5820000D01*
Y5920000D02*
X4231762Y5940000D01*
X4221762Y5960000D01*
X4241762Y5950000D01*
X4261762Y5960000D01*
X4251762Y5940000D01*
X4261762Y5920000D01*
X4241762Y5930000D01*
X4221762Y5920000D01*
Y6020000D02*
X4231762Y6040000D01*
X4221762Y6060000D01*
X4241762Y6050000D01*
X4261762Y6060000D01*
X4251762Y6040000D01*
X4261762Y6020000D01*
X4241762Y6030000D01*
X4221762Y6020000D01*
Y6120000D02*
X4231762Y6140000D01*
X4221762Y6160000D01*
X4241762Y6150000D01*
X4261762Y6160000D01*
X4251762Y6140000D01*
X4261762Y6120000D01*
X4241762Y6130000D01*
X4221762Y6120000D01*
Y6220000D02*
X4231762Y6240000D01*
X4221762Y6260000D01*
X4241762Y6250000D01*
X4261762Y6260000D01*
X4251762Y6240000D01*
X4261762Y6220000D01*
X4241762Y6230000D01*
X4221762Y6220000D01*
Y6320000D02*
X4231762Y6340000D01*
X4221762Y6360000D01*
X4241762Y6350000D01*
X4261762Y6360000D01*
X4251762Y6340000D01*
X4261762Y6320000D01*
X4241762Y6330000D01*
X4221762Y6320000D01*
X4680000Y5710000D02*
X4690000Y5730000D01*
X4680000Y5750000D01*
X4700000Y5740000D01*
X4720000Y5750000D01*
X4710000Y5730000D01*
X4720000Y5710000D01*
X4700000Y5720000D01*
X4680000Y5710000D01*
X4780000D02*
X4790000Y5730000D01*
X4780000Y5750000D01*
X4800000Y5740000D01*
X4820000Y5750000D01*
X4810000Y5730000D01*
X4820000Y5710000D01*
X4800000Y5720000D01*
X4780000Y5710000D01*
X4880000D02*
X4890000Y5730000D01*
X4880000Y5750000D01*
X4900000Y5740000D01*
X4920000Y5750000D01*
X4910000Y5730000D01*
X4920000Y5710000D01*
X4900000Y5720000D01*
X4880000Y5710000D01*
X4980000D02*
X4990000Y5730000D01*
X4980000Y5750000D01*
X5000000Y5740000D01*
X5020000Y5750000D01*
X5010000Y5730000D01*
X5020000Y5710000D01*
X5000000Y5720000D01*
X4980000Y5710000D01*
X5080000D02*
X5090000Y5730000D01*
X5080000Y5750000D01*
X5100000Y5740000D01*
X5120000Y5750000D01*
X5110000Y5730000D01*
X5120000Y5710000D01*
X5100000Y5720000D01*
X5080000Y5710000D01*
X4680000Y6310000D02*
X4690000Y6330000D01*
X4680000Y6350000D01*
X4700000Y6340000D01*
X4720000Y6350000D01*
X4710000Y6330000D01*
X4720000Y6310000D01*
X4700000Y6320000D01*
X4680000Y6310000D01*
X4780000D02*
X4790000Y6330000D01*
X4780000Y6350000D01*
X4800000Y6340000D01*
X4820000Y6350000D01*
X4810000Y6330000D01*
X4820000Y6310000D01*
X4800000Y6320000D01*
X4780000Y6310000D01*
X4880000D02*
X4890000Y6330000D01*
X4880000Y6350000D01*
X4900000Y6340000D01*
X4920000Y6350000D01*
X4910000Y6330000D01*
X4920000Y6310000D01*
X4900000Y6320000D01*
X4880000Y6310000D01*
X4980000D02*
X4990000Y6330000D01*
X4980000Y6350000D01*
X5000000Y6340000D01*
X5020000Y6350000D01*
X5010000Y6330000D01*
X5020000Y6310000D01*
X5000000Y6320000D01*
X4980000Y6310000D01*
X5080000D02*
X5090000Y6330000D01*
X5080000Y6350000D01*
X5100000Y6340000D01*
X5120000Y6350000D01*
X5110000Y6330000D01*
X5120000Y6310000D01*
X5100000Y6320000D01*
X5080000Y6310000D01*
X2080000Y5620000D02*
X2090000Y5640000D01*
X2080000Y5660000D01*
X2100000Y5650000D01*
X2120000Y5660000D01*
X2110000Y5640000D01*
X2120000Y5620000D01*
X2100000Y5630000D01*
X2080000Y5620000D01*
Y5720000D02*
X2090000Y5740000D01*
X2080000Y5760000D01*
X2100000Y5750000D01*
X2120000Y5760000D01*
X2110000Y5740000D01*
X2120000Y5720000D01*
X2100000Y5730000D01*
X2080000Y5720000D01*
Y5820000D02*
X2090000Y5840000D01*
X2080000Y5860000D01*
X2100000Y5850000D01*
X2120000Y5860000D01*
X2110000Y5840000D01*
X2120000Y5820000D01*
X2100000Y5830000D01*
X2080000Y5820000D01*
Y5920000D02*
X2090000Y5940000D01*
X2080000Y5960000D01*
X2100000Y5950000D01*
X2120000Y5960000D01*
X2110000Y5940000D01*
X2120000Y5920000D01*
X2100000Y5930000D01*
X2080000Y5920000D01*
Y6020000D02*
X2090000Y6040000D01*
X2080000Y6060000D01*
X2100000Y6050000D01*
X2120000Y6060000D01*
X2110000Y6040000D01*
X2120000Y6020000D01*
X2100000Y6030000D01*
X2080000Y6020000D01*
Y6120000D02*
X2090000Y6140000D01*
X2080000Y6160000D01*
X2100000Y6150000D01*
X2120000Y6160000D01*
X2110000Y6140000D01*
X2120000Y6120000D01*
X2100000Y6130000D01*
X2080000Y6120000D01*
Y6220000D02*
X2090000Y6240000D01*
X2080000Y6260000D01*
X2100000Y6250000D01*
X2120000Y6260000D01*
X2110000Y6240000D01*
X2120000Y6220000D01*
X2100000Y6230000D01*
X2080000Y6220000D01*
Y6320000D02*
X2090000Y6340000D01*
X2080000Y6360000D01*
X2100000Y6350000D01*
X2120000Y6360000D01*
X2110000Y6340000D01*
X2120000Y6320000D01*
X2100000Y6330000D01*
X2080000Y6320000D01*
X1780000Y5620000D02*
X1790000Y5640000D01*
X1780000Y5660000D01*
X1800000Y5650000D01*
X1820000Y5660000D01*
X1810000Y5640000D01*
X1820000Y5620000D01*
X1800000Y5630000D01*
X1780000Y5620000D01*
Y5720000D02*
X1790000Y5740000D01*
X1780000Y5760000D01*
X1800000Y5750000D01*
X1820000Y5760000D01*
X1810000Y5740000D01*
X1820000Y5720000D01*
X1800000Y5730000D01*
X1780000Y5720000D01*
Y5820000D02*
X1790000Y5840000D01*
X1780000Y5860000D01*
X1800000Y5850000D01*
X1820000Y5860000D01*
X1810000Y5840000D01*
X1820000Y5820000D01*
X1800000Y5830000D01*
X1780000Y5820000D01*
Y5920000D02*
X1790000Y5940000D01*
X1780000Y5960000D01*
X1800000Y5950000D01*
X1820000Y5960000D01*
X1810000Y5940000D01*
X1820000Y5920000D01*
X1800000Y5930000D01*
X1780000Y5920000D01*
Y6020000D02*
X1790000Y6040000D01*
X1780000Y6060000D01*
X1800000Y6050000D01*
X1820000Y6060000D01*
X1810000Y6040000D01*
X1820000Y6020000D01*
X1800000Y6030000D01*
X1780000Y6020000D01*
Y6120000D02*
X1790000Y6140000D01*
X1780000Y6160000D01*
X1800000Y6150000D01*
X1820000Y6160000D01*
X1810000Y6140000D01*
X1820000Y6120000D01*
X1800000Y6130000D01*
X1780000Y6120000D01*
Y6220000D02*
X1790000Y6240000D01*
X1780000Y6260000D01*
X1800000Y6250000D01*
X1820000Y6260000D01*
X1810000Y6240000D01*
X1820000Y6220000D01*
X1800000Y6230000D01*
X1780000Y6220000D01*
Y6320000D02*
X1790000Y6340000D01*
X1780000Y6360000D01*
X1800000Y6350000D01*
X1820000Y6360000D01*
X1810000Y6340000D01*
X1820000Y6320000D01*
X1800000Y6330000D01*
X1780000Y6320000D01*
X1230000Y5710000D02*
X1240000Y5730000D01*
X1230000Y5750000D01*
X1250000Y5740000D01*
X1270000Y5750000D01*
X1260000Y5730000D01*
X1270000Y5710000D01*
X1250000Y5720000D01*
X1230000Y5710000D01*
X1330000D02*
X1340000Y5730000D01*
X1330000Y5750000D01*
X1350000Y5740000D01*
X1370000Y5750000D01*
X1360000Y5730000D01*
X1370000Y5710000D01*
X1350000Y5720000D01*
X1330000Y5710000D01*
X1430000D02*
X1440000Y5730000D01*
X1430000Y5750000D01*
X1450000Y5740000D01*
X1470000Y5750000D01*
X1460000Y5730000D01*
X1470000Y5710000D01*
X1450000Y5720000D01*
X1430000Y5710000D01*
X1530000D02*
X1540000Y5730000D01*
X1530000Y5750000D01*
X1550000Y5740000D01*
X1570000Y5750000D01*
X1560000Y5730000D01*
X1570000Y5710000D01*
X1550000Y5720000D01*
X1530000Y5710000D01*
X1630000D02*
X1640000Y5730000D01*
X1630000Y5750000D01*
X1650000Y5740000D01*
X1670000Y5750000D01*
X1660000Y5730000D01*
X1670000Y5710000D01*
X1650000Y5720000D01*
X1630000Y5710000D01*
X1230000Y6310000D02*
X1240000Y6330000D01*
X1230000Y6350000D01*
X1250000Y6340000D01*
X1270000Y6350000D01*
X1260000Y6330000D01*
X1270000Y6310000D01*
X1250000Y6320000D01*
X1230000Y6310000D01*
X1330000D02*
X1340000Y6330000D01*
X1330000Y6350000D01*
X1350000Y6340000D01*
X1370000Y6350000D01*
X1360000Y6330000D01*
X1370000Y6310000D01*
X1350000Y6320000D01*
X1330000Y6310000D01*
X1430000D02*
X1440000Y6330000D01*
X1430000Y6350000D01*
X1450000Y6340000D01*
X1470000Y6350000D01*
X1460000Y6330000D01*
X1470000Y6310000D01*
X1450000Y6320000D01*
X1430000Y6310000D01*
X1530000D02*
X1540000Y6330000D01*
X1530000Y6350000D01*
X1550000Y6340000D01*
X1570000Y6350000D01*
X1560000Y6330000D01*
X1570000Y6310000D01*
X1550000Y6320000D01*
X1530000Y6310000D01*
X1630000D02*
X1640000Y6330000D01*
X1630000Y6350000D01*
X1650000Y6340000D01*
X1670000Y6350000D01*
X1660000Y6330000D01*
X1670000Y6310000D01*
X1650000Y6320000D01*
X1630000Y6310000D01*
X530000Y5620000D02*
X540000Y5640000D01*
X530000Y5660000D01*
X550000Y5650000D01*
X570000Y5660000D01*
X560000Y5640000D01*
X570000Y5620000D01*
X550000Y5630000D01*
X530000Y5620000D01*
Y5720000D02*
X540000Y5740000D01*
X530000Y5760000D01*
X550000Y5750000D01*
X570000Y5760000D01*
X560000Y5740000D01*
X570000Y5720000D01*
X550000Y5730000D01*
X530000Y5720000D01*
Y5820000D02*
X540000Y5840000D01*
X530000Y5860000D01*
X550000Y5850000D01*
X570000Y5860000D01*
X560000Y5840000D01*
X570000Y5820000D01*
X550000Y5830000D01*
X530000Y5820000D01*
Y5920000D02*
X540000Y5940000D01*
X530000Y5960000D01*
X550000Y5950000D01*
X570000Y5960000D01*
X560000Y5940000D01*
X570000Y5920000D01*
X550000Y5930000D01*
X530000Y5920000D01*
Y6020000D02*
X540000Y6040000D01*
X530000Y6060000D01*
X550000Y6050000D01*
X570000Y6060000D01*
X560000Y6040000D01*
X570000Y6020000D01*
X550000Y6030000D01*
X530000Y6020000D01*
Y6120000D02*
X540000Y6140000D01*
X530000Y6160000D01*
X550000Y6150000D01*
X570000Y6160000D01*
X560000Y6140000D01*
X570000Y6120000D01*
X550000Y6130000D01*
X530000Y6120000D01*
Y6220000D02*
X540000Y6240000D01*
X530000Y6260000D01*
X550000Y6250000D01*
X570000Y6260000D01*
X560000Y6240000D01*
X570000Y6220000D01*
X550000Y6230000D01*
X530000Y6220000D01*
Y6320000D02*
X540000Y6340000D01*
X530000Y6360000D01*
X550000Y6350000D01*
X570000Y6360000D01*
X560000Y6340000D01*
X570000Y6320000D01*
X550000Y6330000D01*
X530000Y6320000D01*
X230000Y5620000D02*
X240000Y5640000D01*
X230000Y5660000D01*
X250000Y5650000D01*
X270000Y5660000D01*
X260000Y5640000D01*
X270000Y5620000D01*
X250000Y5630000D01*
X230000Y5620000D01*
Y5720000D02*
X240000Y5740000D01*
X230000Y5760000D01*
X250000Y5750000D01*
X270000Y5760000D01*
X260000Y5740000D01*
X270000Y5720000D01*
X250000Y5730000D01*
X230000Y5720000D01*
Y5820000D02*
X240000Y5840000D01*
X230000Y5860000D01*
X250000Y5850000D01*
X270000Y5860000D01*
X260000Y5840000D01*
X270000Y5820000D01*
X250000Y5830000D01*
X230000Y5820000D01*
Y5920000D02*
X240000Y5940000D01*
X230000Y5960000D01*
X250000Y5950000D01*
X270000Y5960000D01*
X260000Y5940000D01*
X270000Y5920000D01*
X250000Y5930000D01*
X230000Y5920000D01*
Y6020000D02*
X240000Y6040000D01*
X230000Y6060000D01*
X250000Y6050000D01*
X270000Y6060000D01*
X260000Y6040000D01*
X270000Y6020000D01*
X250000Y6030000D01*
X230000Y6020000D01*
Y6120000D02*
X240000Y6140000D01*
X230000Y6160000D01*
X250000Y6150000D01*
X270000Y6160000D01*
X260000Y6140000D01*
X270000Y6120000D01*
X250000Y6130000D01*
X230000Y6120000D01*
Y6220000D02*
X240000Y6240000D01*
X230000Y6260000D01*
X250000Y6250000D01*
X270000Y6260000D01*
X260000Y6240000D01*
X270000Y6220000D01*
X250000Y6230000D01*
X230000Y6220000D01*
Y6320000D02*
X240000Y6340000D01*
X230000Y6360000D01*
X250000Y6350000D01*
X270000Y6360000D01*
X260000Y6340000D01*
X270000Y6320000D01*
X250000Y6330000D01*
X230000Y6320000D01*
X680000Y5710000D02*
X690000Y5730000D01*
X680000Y5750000D01*
X700000Y5740000D01*
X720000Y5750000D01*
X710000Y5730000D01*
X720000Y5710000D01*
X700000Y5720000D01*
X680000Y5710000D01*
X780000D02*
X790000Y5730000D01*
X780000Y5750000D01*
X800000Y5740000D01*
X820000Y5750000D01*
X810000Y5730000D01*
X820000Y5710000D01*
X800000Y5720000D01*
X780000Y5710000D01*
X880000D02*
X890000Y5730000D01*
X880000Y5750000D01*
X900000Y5740000D01*
X920000Y5750000D01*
X910000Y5730000D01*
X920000Y5710000D01*
X900000Y5720000D01*
X880000Y5710000D01*
X980000D02*
X990000Y5730000D01*
X980000Y5750000D01*
X1000000Y5740000D01*
X1020000Y5750000D01*
X1010000Y5730000D01*
X1020000Y5710000D01*
X1000000Y5720000D01*
X980000Y5710000D01*
X1080000D02*
X1090000Y5730000D01*
X1080000Y5750000D01*
X1100000Y5740000D01*
X1120000Y5750000D01*
X1110000Y5730000D01*
X1120000Y5710000D01*
X1100000Y5720000D01*
X1080000Y5710000D01*
X680000Y6310000D02*
X690000Y6330000D01*
X680000Y6350000D01*
X700000Y6340000D01*
X720000Y6350000D01*
X710000Y6330000D01*
X720000Y6310000D01*
X700000Y6320000D01*
X680000Y6310000D01*
X780000D02*
X790000Y6330000D01*
X780000Y6350000D01*
X800000Y6340000D01*
X820000Y6350000D01*
X810000Y6330000D01*
X820000Y6310000D01*
X800000Y6320000D01*
X780000Y6310000D01*
X880000D02*
X890000Y6330000D01*
X880000Y6350000D01*
X900000Y6340000D01*
X920000Y6350000D01*
X910000Y6330000D01*
X920000Y6310000D01*
X900000Y6320000D01*
X880000Y6310000D01*
X980000D02*
X990000Y6330000D01*
X980000Y6350000D01*
X1000000Y6340000D01*
X1020000Y6350000D01*
X1010000Y6330000D01*
X1020000Y6310000D01*
X1000000Y6320000D01*
X980000Y6310000D01*
X1080000D02*
X1090000Y6330000D01*
X1080000Y6350000D01*
X1100000Y6340000D01*
X1120000Y6350000D01*
X1110000Y6330000D01*
X1120000Y6310000D01*
X1100000Y6320000D01*
X1080000Y6310000D01*
X1840000Y4790000D02*
Y4780000D01*
X1860000D01*
Y4790000D01*
X1870000D01*
Y4810000D01*
X1860000D01*
Y4820000D01*
X1840000D01*
Y4810000D01*
X1830000D01*
Y4790000D01*
X1840000D01*
X1940000D02*
Y4780000D01*
X1960000D01*
Y4790000D01*
X1970000D01*
Y4810000D01*
X1960000D01*
Y4820000D01*
X1940000D01*
Y4810000D01*
X1930000D01*
Y4790000D01*
X1940000D01*
X2100000Y3980000D02*
X2110000Y3990000D01*
X2120000D01*
X2110000Y4000000D01*
X2120000Y4010000D01*
X2110000D01*
X2100000Y4020000D01*
X2090000Y4010000D01*
X2080000D01*
X2090000Y4000000D01*
X2080000Y3990000D01*
X2090000D01*
X2100000Y3980000D01*
X1700000D02*
X1710000Y3990000D01*
X1720000D01*
X1710000Y4000000D01*
X1720000Y4010000D01*
X1710000D01*
X1700000Y4020000D01*
X1690000Y4010000D01*
X1680000D01*
X1690000Y4000000D01*
X1680000Y3990000D01*
X1690000D01*
X1700000Y3980000D01*
X1990000Y4540000D02*
Y4530000D01*
X2010000D01*
Y4540000D01*
X2020000D01*
Y4560000D01*
X2010000D01*
Y4570000D01*
X1990000D01*
Y4560000D01*
X1980000D01*
Y4540000D01*
X1990000D01*
X1790000D02*
Y4530000D01*
X1810000D01*
Y4540000D01*
X1820000D01*
Y4560000D01*
X1810000D01*
Y4570000D01*
X1790000D01*
Y4560000D01*
X1780000D01*
Y4540000D01*
X1790000D01*
X3230000Y5710000D02*
X3240000Y5730000D01*
X3230000Y5750000D01*
X3250000Y5740000D01*
X3270000Y5750000D01*
X3260000Y5730000D01*
X3270000Y5710000D01*
X3250000Y5720000D01*
X3230000Y5710000D01*
X3330000D02*
X3340000Y5730000D01*
X3330000Y5750000D01*
X3350000Y5740000D01*
X3370000Y5750000D01*
X3360000Y5730000D01*
X3370000Y5710000D01*
X3350000Y5720000D01*
X3330000Y5710000D01*
X3430000D02*
X3440000Y5730000D01*
X3430000Y5750000D01*
X3450000Y5740000D01*
X3470000Y5750000D01*
X3460000Y5730000D01*
X3470000Y5710000D01*
X3450000Y5720000D01*
X3430000Y5710000D01*
X3530000D02*
X3540000Y5730000D01*
X3530000Y5750000D01*
X3550000Y5740000D01*
X3570000Y5750000D01*
X3560000Y5730000D01*
X3570000Y5710000D01*
X3550000Y5720000D01*
X3530000Y5710000D01*
X3630000D02*
X3640000Y5730000D01*
X3630000Y5750000D01*
X3650000Y5740000D01*
X3670000Y5750000D01*
X3660000Y5730000D01*
X3670000Y5710000D01*
X3650000Y5720000D01*
X3630000Y5710000D01*
X3230000Y6310000D02*
X3240000Y6330000D01*
X3230000Y6350000D01*
X3250000Y6340000D01*
X3270000Y6350000D01*
X3260000Y6330000D01*
X3270000Y6310000D01*
X3250000Y6320000D01*
X3230000Y6310000D01*
X3330000D02*
X3340000Y6330000D01*
X3330000Y6350000D01*
X3350000Y6340000D01*
X3370000Y6350000D01*
X3360000Y6330000D01*
X3370000Y6310000D01*
X3350000Y6320000D01*
X3330000Y6310000D01*
X3430000D02*
X3440000Y6330000D01*
X3430000Y6350000D01*
X3450000Y6340000D01*
X3470000Y6350000D01*
X3460000Y6330000D01*
X3470000Y6310000D01*
X3450000Y6320000D01*
X3430000Y6310000D01*
X3530000D02*
X3540000Y6330000D01*
X3530000Y6350000D01*
X3550000Y6340000D01*
X3570000Y6350000D01*
X3560000Y6330000D01*
X3570000Y6310000D01*
X3550000Y6320000D01*
X3530000Y6310000D01*
X3630000D02*
X3640000Y6330000D01*
X3630000Y6350000D01*
X3650000Y6340000D01*
X3670000Y6350000D01*
X3660000Y6330000D01*
X3670000Y6310000D01*
X3650000Y6320000D01*
X3630000Y6310000D01*
X4080000Y5620000D02*
X4090000Y5640000D01*
X4080000Y5660000D01*
X4100000Y5650000D01*
X4120000Y5660000D01*
X4110000Y5640000D01*
X4120000Y5620000D01*
X4100000Y5630000D01*
X4080000Y5620000D01*
Y5720000D02*
X4090000Y5740000D01*
X4080000Y5760000D01*
X4100000Y5750000D01*
X4120000Y5760000D01*
X4110000Y5740000D01*
X4120000Y5720000D01*
X4100000Y5730000D01*
X4080000Y5720000D01*
Y5820000D02*
X4090000Y5840000D01*
X4080000Y5860000D01*
X4100000Y5850000D01*
X4120000Y5860000D01*
X4110000Y5840000D01*
X4120000Y5820000D01*
X4100000Y5830000D01*
X4080000Y5820000D01*
Y5920000D02*
X4090000Y5940000D01*
X4080000Y5960000D01*
X4100000Y5950000D01*
X4120000Y5960000D01*
X4110000Y5940000D01*
X4120000Y5920000D01*
X4100000Y5930000D01*
X4080000Y5920000D01*
Y6020000D02*
X4090000Y6040000D01*
X4080000Y6060000D01*
X4100000Y6050000D01*
X4120000Y6060000D01*
X4110000Y6040000D01*
X4120000Y6020000D01*
X4100000Y6030000D01*
X4080000Y6020000D01*
Y6120000D02*
X4090000Y6140000D01*
X4080000Y6160000D01*
X4100000Y6150000D01*
X4120000Y6160000D01*
X4110000Y6140000D01*
X4120000Y6120000D01*
X4100000Y6130000D01*
X4080000Y6120000D01*
Y6220000D02*
X4090000Y6240000D01*
X4080000Y6260000D01*
X4100000Y6250000D01*
X4120000Y6260000D01*
X4110000Y6240000D01*
X4120000Y6220000D01*
X4100000Y6230000D01*
X4080000Y6220000D01*
Y6320000D02*
X4090000Y6340000D01*
X4080000Y6360000D01*
X4100000Y6350000D01*
X4120000Y6360000D01*
X4110000Y6340000D01*
X4120000Y6320000D01*
X4100000Y6330000D01*
X4080000Y6320000D01*
X3780000Y5620000D02*
X3790000Y5640000D01*
X3780000Y5660000D01*
X3800000Y5650000D01*
X3820000Y5660000D01*
X3810000Y5640000D01*
X3820000Y5620000D01*
X3800000Y5630000D01*
X3780000Y5620000D01*
Y5720000D02*
X3790000Y5740000D01*
X3780000Y5760000D01*
X3800000Y5750000D01*
X3820000Y5760000D01*
X3810000Y5740000D01*
X3820000Y5720000D01*
X3800000Y5730000D01*
X3780000Y5720000D01*
Y5820000D02*
X3790000Y5840000D01*
X3780000Y5860000D01*
X3800000Y5850000D01*
X3820000Y5860000D01*
X3810000Y5840000D01*
X3820000Y5820000D01*
X3800000Y5830000D01*
X3780000Y5820000D01*
Y5920000D02*
X3790000Y5940000D01*
X3780000Y5960000D01*
X3800000Y5950000D01*
X3820000Y5960000D01*
X3810000Y5940000D01*
X3820000Y5920000D01*
X3800000Y5930000D01*
X3780000Y5920000D01*
Y6020000D02*
X3790000Y6040000D01*
X3780000Y6060000D01*
X3800000Y6050000D01*
X3820000Y6060000D01*
X3810000Y6040000D01*
X3820000Y6020000D01*
X3800000Y6030000D01*
X3780000Y6020000D01*
Y6120000D02*
X3790000Y6140000D01*
X3780000Y6160000D01*
X3800000Y6150000D01*
X3820000Y6160000D01*
X3810000Y6140000D01*
X3820000Y6120000D01*
X3800000Y6130000D01*
X3780000Y6120000D01*
Y6220000D02*
X3790000Y6240000D01*
X3780000Y6260000D01*
X3800000Y6250000D01*
X3820000Y6260000D01*
X3810000Y6240000D01*
X3820000Y6220000D01*
X3800000Y6230000D01*
X3780000Y6220000D01*
Y6320000D02*
X3790000Y6340000D01*
X3780000Y6360000D01*
X3800000Y6350000D01*
X3820000Y6360000D01*
X3810000Y6340000D01*
X3820000Y6320000D01*
X3800000Y6330000D01*
X3780000Y6320000D01*
X4390000Y1290000D02*
Y1280000D01*
X4410000D01*
Y1290000D01*
X4420000D01*
Y1310000D01*
X4410000D01*
Y1320000D01*
X4390000D01*
Y1310000D01*
X4380000D01*
Y1290000D01*
X4390000D01*
X4290000D02*
Y1280000D01*
X4310000D01*
Y1290000D01*
X4320000D01*
Y1310000D01*
X4310000D01*
Y1320000D01*
X4290000D01*
Y1310000D01*
X4280000D01*
Y1290000D01*
X4290000D01*
X4390000Y1390000D02*
Y1380000D01*
X4410000D01*
Y1390000D01*
X4420000D01*
Y1410000D01*
X4410000D01*
Y1420000D01*
X4390000D01*
Y1410000D01*
X4380000D01*
Y1390000D01*
X4390000D01*
X4290000D02*
Y1380000D01*
X4310000D01*
Y1390000D01*
X4320000D01*
Y1410000D01*
X4310000D01*
Y1420000D01*
X4290000D01*
Y1410000D01*
X4280000D01*
Y1390000D01*
X4290000D01*
X4390000Y1490000D02*
Y1480000D01*
X4410000D01*
Y1490000D01*
X4420000D01*
Y1510000D01*
X4410000D01*
Y1520000D01*
X4390000D01*
Y1510000D01*
X4380000D01*
Y1490000D01*
X4390000D01*
X4290000D02*
Y1480000D01*
X4310000D01*
Y1490000D01*
X4320000D01*
Y1510000D01*
X4310000D01*
Y1520000D01*
X4290000D01*
Y1510000D01*
X4280000D01*
Y1490000D01*
X4290000D01*
X4390000Y1590000D02*
Y1580000D01*
X4410000D01*
Y1590000D01*
X4420000D01*
Y1610000D01*
X4410000D01*
Y1620000D01*
X4390000D01*
Y1610000D01*
X4380000D01*
Y1590000D01*
X4390000D01*
X4290000D02*
Y1580000D01*
X4310000D01*
Y1590000D01*
X4320000D01*
Y1610000D01*
X4310000D01*
Y1620000D01*
X4290000D01*
Y1610000D01*
X4280000D01*
Y1590000D01*
X4290000D01*
X4390000Y1690000D02*
Y1680000D01*
X4410000D01*
Y1690000D01*
X4420000D01*
Y1710000D01*
X4410000D01*
Y1720000D01*
X4390000D01*
Y1710000D01*
X4380000D01*
Y1690000D01*
X4390000D01*
X4290000D02*
Y1680000D01*
X4310000D01*
Y1690000D01*
X4320000D01*
Y1710000D01*
X4310000D01*
Y1720000D01*
X4290000D01*
Y1710000D01*
X4280000D01*
Y1690000D01*
X4290000D01*
X2530000Y5620000D02*
X2540000Y5640000D01*
X2530000Y5660000D01*
X2550000Y5650000D01*
X2570000Y5660000D01*
X2560000Y5640000D01*
X2570000Y5620000D01*
X2550000Y5630000D01*
X2530000Y5620000D01*
Y5720000D02*
X2540000Y5740000D01*
X2530000Y5760000D01*
X2550000Y5750000D01*
X2570000Y5760000D01*
X2560000Y5740000D01*
X2570000Y5720000D01*
X2550000Y5730000D01*
X2530000Y5720000D01*
Y5820000D02*
X2540000Y5840000D01*
X2530000Y5860000D01*
X2550000Y5850000D01*
X2570000Y5860000D01*
X2560000Y5840000D01*
X2570000Y5820000D01*
X2550000Y5830000D01*
X2530000Y5820000D01*
Y5920000D02*
X2540000Y5940000D01*
X2530000Y5960000D01*
X2550000Y5950000D01*
X2570000Y5960000D01*
X2560000Y5940000D01*
X2570000Y5920000D01*
X2550000Y5930000D01*
X2530000Y5920000D01*
Y6020000D02*
X2540000Y6040000D01*
X2530000Y6060000D01*
X2550000Y6050000D01*
X2570000Y6060000D01*
X2560000Y6040000D01*
X2570000Y6020000D01*
X2550000Y6030000D01*
X2530000Y6020000D01*
Y6120000D02*
X2540000Y6140000D01*
X2530000Y6160000D01*
X2550000Y6150000D01*
X2570000Y6160000D01*
X2560000Y6140000D01*
X2570000Y6120000D01*
X2550000Y6130000D01*
X2530000Y6120000D01*
Y6220000D02*
X2540000Y6240000D01*
X2530000Y6260000D01*
X2550000Y6250000D01*
X2570000Y6260000D01*
X2560000Y6240000D01*
X2570000Y6220000D01*
X2550000Y6230000D01*
X2530000Y6220000D01*
Y6320000D02*
X2540000Y6340000D01*
X2530000Y6360000D01*
X2550000Y6350000D01*
X2570000Y6360000D01*
X2560000Y6340000D01*
X2570000Y6320000D01*
X2550000Y6330000D01*
X2530000Y6320000D01*
X2230000Y5620000D02*
X2240000Y5640000D01*
X2230000Y5660000D01*
X2250000Y5650000D01*
X2270000Y5660000D01*
X2260000Y5640000D01*
X2270000Y5620000D01*
X2250000Y5630000D01*
X2230000Y5620000D01*
Y5720000D02*
X2240000Y5740000D01*
X2230000Y5760000D01*
X2250000Y5750000D01*
X2270000Y5760000D01*
X2260000Y5740000D01*
X2270000Y5720000D01*
X2250000Y5730000D01*
X2230000Y5720000D01*
Y5820000D02*
X2240000Y5840000D01*
X2230000Y5860000D01*
X2250000Y5850000D01*
X2270000Y5860000D01*
X2260000Y5840000D01*
X2270000Y5820000D01*
X2250000Y5830000D01*
X2230000Y5820000D01*
Y5920000D02*
X2240000Y5940000D01*
X2230000Y5960000D01*
X2250000Y5950000D01*
X2270000Y5960000D01*
X2260000Y5940000D01*
X2270000Y5920000D01*
X2250000Y5930000D01*
X2230000Y5920000D01*
Y6020000D02*
X2240000Y6040000D01*
X2230000Y6060000D01*
X2250000Y6050000D01*
X2270000Y6060000D01*
X2260000Y6040000D01*
X2270000Y6020000D01*
X2250000Y6030000D01*
X2230000Y6020000D01*
Y6120000D02*
X2240000Y6140000D01*
X2230000Y6160000D01*
X2250000Y6150000D01*
X2270000Y6160000D01*
X2260000Y6140000D01*
X2270000Y6120000D01*
X2250000Y6130000D01*
X2230000Y6120000D01*
Y6220000D02*
X2240000Y6240000D01*
X2230000Y6260000D01*
X2250000Y6250000D01*
X2270000Y6260000D01*
X2260000Y6240000D01*
X2270000Y6220000D01*
X2250000Y6230000D01*
X2230000Y6220000D01*
Y6320000D02*
X2240000Y6340000D01*
X2230000Y6360000D01*
X2250000Y6350000D01*
X2270000Y6360000D01*
X2260000Y6340000D01*
X2270000Y6320000D01*
X2250000Y6330000D01*
X2230000Y6320000D01*
X2680000Y5710000D02*
X2690000Y5730000D01*
X2680000Y5750000D01*
X2700000Y5740000D01*
X2720000Y5750000D01*
X2710000Y5730000D01*
X2720000Y5710000D01*
X2700000Y5720000D01*
X2680000Y5710000D01*
X2780000D02*
X2790000Y5730000D01*
X2780000Y5750000D01*
X2800000Y5740000D01*
X2820000Y5750000D01*
X2810000Y5730000D01*
X2820000Y5710000D01*
X2800000Y5720000D01*
X2780000Y5710000D01*
X2880000D02*
X2890000Y5730000D01*
X2880000Y5750000D01*
X2900000Y5740000D01*
X2920000Y5750000D01*
X2910000Y5730000D01*
X2920000Y5710000D01*
X2900000Y5720000D01*
X2880000Y5710000D01*
X2980000D02*
X2990000Y5730000D01*
X2980000Y5750000D01*
X3000000Y5740000D01*
X3020000Y5750000D01*
X3010000Y5730000D01*
X3020000Y5710000D01*
X3000000Y5720000D01*
X2980000Y5710000D01*
X3080000D02*
X3090000Y5730000D01*
X3080000Y5750000D01*
X3100000Y5740000D01*
X3120000Y5750000D01*
X3110000Y5730000D01*
X3120000Y5710000D01*
X3100000Y5720000D01*
X3080000Y5710000D01*
X2680000Y6310000D02*
X2690000Y6330000D01*
X2680000Y6350000D01*
X2700000Y6340000D01*
X2720000Y6350000D01*
X2710000Y6330000D01*
X2720000Y6310000D01*
X2700000Y6320000D01*
X2680000Y6310000D01*
X2780000D02*
X2790000Y6330000D01*
X2780000Y6350000D01*
X2800000Y6340000D01*
X2820000Y6350000D01*
X2810000Y6330000D01*
X2820000Y6310000D01*
X2800000Y6320000D01*
X2780000Y6310000D01*
X2880000D02*
X2890000Y6330000D01*
X2880000Y6350000D01*
X2900000Y6340000D01*
X2920000Y6350000D01*
X2910000Y6330000D01*
X2920000Y6310000D01*
X2900000Y6320000D01*
X2880000Y6310000D01*
X2980000D02*
X2990000Y6330000D01*
X2980000Y6350000D01*
X3000000Y6340000D01*
X3020000Y6350000D01*
X3010000Y6330000D01*
X3020000Y6310000D01*
X3000000Y6320000D01*
X2980000Y6310000D01*
X3080000D02*
X3090000Y6330000D01*
X3080000Y6350000D01*
X3100000Y6340000D01*
X3120000Y6350000D01*
X3110000Y6330000D01*
X3120000Y6310000D01*
X3100000Y6320000D01*
X3080000Y6310000D01*
X5870551Y3418504D02*
X5890551Y3438504D01*
X5910551Y3418504D01*
X5890551Y3398504D01*
X5870551Y3418504D01*
Y3118504D02*
X5890551Y3138504D01*
X5910551Y3118504D01*
X5890551Y3098504D01*
X5870551Y3118504D01*
Y2818504D02*
X5890551Y2838504D01*
X5910551Y2818504D01*
X5890551Y2798504D01*
X5870551Y2818504D01*
Y2518504D02*
X5890551Y2538504D01*
X5910551Y2518504D01*
X5890551Y2498504D01*
X5870551Y2518504D01*
X6070551Y518504D02*
X6090551Y538504D01*
X6110551Y518504D01*
X6090551Y498504D01*
X6070551Y518504D01*
X6170551Y198504D02*
Y238504D01*
X6210551D01*
Y198504D01*
X6170551D01*
X6178551Y206504D02*
Y230504D01*
X6202551D01*
Y206504D01*
X6178551D01*
X6170551Y3698504D02*
Y3738504D01*
X6210551D01*
Y3698504D01*
X6170551D01*
X6178551Y3706504D02*
Y3730504D01*
X6202551D01*
Y3706504D01*
X6178551D01*
X5870551Y3518504D02*
X5890551Y3538504D01*
X5910551Y3518504D01*
X5890551Y3498504D01*
X5870551Y3518504D01*
Y3318504D02*
X5890551Y3338504D01*
X5910551Y3318504D01*
X5890551Y3298504D01*
X5870551Y3318504D01*
Y3218504D02*
X5890551Y3238504D01*
X5910551Y3218504D01*
X5890551Y3198504D01*
X5870551Y3218504D01*
Y3018504D02*
X5890551Y3038504D01*
X5910551Y3018504D01*
X5890551Y2998504D01*
X5870551Y3018504D01*
Y2918504D02*
X5890551Y2938504D01*
X5910551Y2918504D01*
X5890551Y2898504D01*
X5870551Y2918504D01*
Y2718504D02*
X5890551Y2738504D01*
X5910551Y2718504D01*
X5890551Y2698504D01*
X5870551Y2718504D01*
Y2618504D02*
X5890551Y2638504D01*
X5910551Y2618504D01*
X5890551Y2598504D01*
X5870551Y2618504D01*
Y2418504D02*
X5890551Y2438504D01*
X5910551Y2418504D01*
X5890551Y2398504D01*
X5870551Y2418504D01*
X6070551Y3518504D02*
X6090551Y3538504D01*
X6110551Y3518504D01*
X6090551Y3498504D01*
X6070551Y3518504D01*
Y3318504D02*
X6090551Y3338504D01*
X6110551Y3318504D01*
X6090551Y3298504D01*
X6070551Y3318504D01*
Y3218504D02*
X6090551Y3238504D01*
X6110551Y3218504D01*
X6090551Y3198504D01*
X6070551Y3218504D01*
Y3018504D02*
X6090551Y3038504D01*
X6110551Y3018504D01*
X6090551Y2998504D01*
X6070551Y3018504D01*
Y2918504D02*
X6090551Y2938504D01*
X6110551Y2918504D01*
X6090551Y2898504D01*
X6070551Y2918504D01*
Y2718504D02*
X6090551Y2738504D01*
X6110551Y2718504D01*
X6090551Y2698504D01*
X6070551Y2718504D01*
Y2618504D02*
X6090551Y2638504D01*
X6110551Y2618504D01*
X6090551Y2598504D01*
X6070551Y2618504D01*
Y2418504D02*
X6090551Y2438504D01*
X6110551Y2418504D01*
X6090551Y2398504D01*
X6070551Y2418504D01*
X5870551Y418504D02*
X5890551Y438504D01*
X5910551Y418504D01*
X5890551Y398504D01*
X5870551Y418504D01*
Y618504D02*
X5890551Y638504D01*
X5910551Y618504D01*
X5890551Y598504D01*
X5870551Y618504D01*
Y718504D02*
X5890551Y738504D01*
X5910551Y718504D01*
X5890551Y698504D01*
X5870551Y718504D01*
Y918504D02*
X5890551Y938504D01*
X5910551Y918504D01*
X5890551Y898504D01*
X5870551Y918504D01*
Y1018504D02*
X5890551Y1038504D01*
X5910551Y1018504D01*
X5890551Y998504D01*
X5870551Y1018504D01*
Y1218504D02*
X5890551Y1238504D01*
X5910551Y1218504D01*
X5890551Y1198504D01*
X5870551Y1218504D01*
Y1318504D02*
X5890551Y1338504D01*
X5910551Y1318504D01*
X5890551Y1298504D01*
X5870551Y1318504D01*
Y1518504D02*
X5890551Y1538504D01*
X5910551Y1518504D01*
X5890551Y1498504D01*
X5870551Y1518504D01*
X6070551Y418504D02*
X6090551Y438504D01*
X6110551Y418504D01*
X6090551Y398504D01*
X6070551Y418504D01*
Y618504D02*
X6090551Y638504D01*
X6110551Y618504D01*
X6090551Y598504D01*
X6070551Y618504D01*
Y718504D02*
X6090551Y738504D01*
X6110551Y718504D01*
X6090551Y698504D01*
X6070551Y718504D01*
Y918504D02*
X6090551Y938504D01*
X6110551Y918504D01*
X6090551Y898504D01*
X6070551Y918504D01*
Y1018504D02*
X6090551Y1038504D01*
X6110551Y1018504D01*
X6090551Y998504D01*
X6070551Y1018504D01*
Y1218504D02*
X6090551Y1238504D01*
X6110551Y1218504D01*
X6090551Y1198504D01*
X6070551Y1218504D01*
Y1318504D02*
X6090551Y1338504D01*
X6110551Y1318504D01*
X6090551Y1298504D01*
X6070551Y1318504D01*
Y1518504D02*
X6090551Y1538504D01*
X6110551Y1518504D01*
X6090551Y1498504D01*
X6070551Y1518504D01*
X5870551Y1618504D02*
X5890551Y1638504D01*
X5910551Y1618504D01*
X5890551Y1598504D01*
X5870551Y1618504D01*
Y1718504D02*
X5890551Y1738504D01*
X5910551Y1718504D01*
X5890551Y1698504D01*
X5870551Y1718504D01*
Y1818504D02*
X5890551Y1838504D01*
X5910551Y1818504D01*
X5890551Y1798504D01*
X5870551Y1818504D01*
Y1918504D02*
X5890551Y1938504D01*
X5910551Y1918504D01*
X5890551Y1898504D01*
X5870551Y1918504D01*
Y2018504D02*
X5890551Y2038504D01*
X5910551Y2018504D01*
X5890551Y1998504D01*
X5870551Y2018504D01*
Y2118504D02*
X5890551Y2138504D01*
X5910551Y2118504D01*
X5890551Y2098504D01*
X5870551Y2118504D01*
Y2218504D02*
X5890551Y2238504D01*
X5910551Y2218504D01*
X5890551Y2198504D01*
X5870551Y2218504D01*
Y2318504D02*
X5890551Y2338504D01*
X5910551Y2318504D01*
X5890551Y2298504D01*
X5870551Y2318504D01*
X6070551Y1618504D02*
X6090551Y1638504D01*
X6110551Y1618504D01*
X6090551Y1598504D01*
X6070551Y1618504D01*
Y1718504D02*
X6090551Y1738504D01*
X6110551Y1718504D01*
X6090551Y1698504D01*
X6070551Y1718504D01*
Y1818504D02*
X6090551Y1838504D01*
X6110551Y1818504D01*
X6090551Y1798504D01*
X6070551Y1818504D01*
Y1918504D02*
X6090551Y1938504D01*
X6110551Y1918504D01*
X6090551Y1898504D01*
X6070551Y1918504D01*
Y2018504D02*
X6090551Y2038504D01*
X6110551Y2018504D01*
X6090551Y1998504D01*
X6070551Y2018504D01*
Y2118504D02*
X6090551Y2138504D01*
X6110551Y2118504D01*
X6090551Y2098504D01*
X6070551Y2118504D01*
Y2218504D02*
X6090551Y2238504D01*
X6110551Y2218504D01*
X6090551Y2198504D01*
X6070551Y2218504D01*
Y2318504D02*
X6090551Y2338504D01*
X6110551Y2318504D01*
X6090551Y2298504D01*
X6070551Y2318504D01*
Y3418504D02*
X6090551Y3438504D01*
X6110551Y3418504D01*
X6090551Y3398504D01*
X6070551Y3418504D01*
Y3118504D02*
X6090551Y3138504D01*
X6110551Y3118504D01*
X6090551Y3098504D01*
X6070551Y3118504D01*
Y2818504D02*
X6090551Y2838504D01*
X6110551Y2818504D01*
X6090551Y2798504D01*
X6070551Y2818504D01*
Y2518504D02*
X6090551Y2538504D01*
X6110551Y2518504D01*
X6090551Y2498504D01*
X6070551Y2518504D01*
Y1418504D02*
X6090551Y1438504D01*
X6110551Y1418504D01*
X6090551Y1398504D01*
X6070551Y1418504D01*
Y1118504D02*
X6090551Y1138504D01*
X6110551Y1118504D01*
X6090551Y1098504D01*
X6070551Y1118504D01*
Y818504D02*
X6090551Y838504D01*
X6110551Y818504D01*
X6090551Y798504D01*
X6070551Y818504D01*
X5870551Y518504D02*
X5890551Y538504D01*
X5910551Y518504D01*
X5890551Y498504D01*
X5870551Y518504D01*
Y818504D02*
X5890551Y838504D01*
X5910551Y818504D01*
X5890551Y798504D01*
X5870551Y818504D01*
Y1118504D02*
X5890551Y1138504D01*
X5910551Y1118504D01*
X5890551Y1098504D01*
X5870551Y1118504D01*
Y1418504D02*
X5890551Y1438504D01*
X5910551Y1418504D01*
X5890551Y1398504D01*
X5870551Y1418504D01*
X1990000Y6820000D02*
X2000000D01*
X2010000Y6830000D01*
X2020000Y6820000D01*
X2030000D01*
Y6830000D01*
X2020000Y6840000D01*
X2030000Y6850000D01*
Y6860000D01*
X2020000D01*
X2010000Y6850000D01*
X2000000Y6860000D01*
X1990000D01*
Y6850000D01*
X2000000Y6840000D01*
X1990000Y6830000D01*
Y6820000D01*
X2090000D02*
X2100000D01*
X2110000Y6830000D01*
X2120000Y6820000D01*
X2130000D01*
Y6830000D01*
X2120000Y6840000D01*
X2130000Y6850000D01*
Y6860000D01*
X2120000D01*
X2110000Y6850000D01*
X2100000Y6860000D01*
X2090000D01*
Y6850000D01*
X2100000Y6840000D01*
X2090000Y6830000D01*
Y6820000D01*
X3010000Y6840000D02*
Y6830000D01*
X3030000D01*
Y6840000D01*
X3040000D01*
Y6860000D01*
X3030000D01*
Y6870000D01*
X3010000D01*
Y6860000D01*
X3000000D01*
Y6840000D01*
X3010000D01*
X2910000D02*
Y6830000D01*
X2930000D01*
Y6840000D01*
X2940000D01*
Y6860000D01*
X2930000D01*
Y6870000D01*
X2910000D01*
Y6860000D01*
X2900000D01*
Y6840000D01*
X2910000D01*
X2810000D02*
Y6830000D01*
X2830000D01*
Y6840000D01*
X2840000D01*
Y6860000D01*
X2830000D01*
Y6870000D01*
X2810000D01*
Y6860000D01*
X2800000D01*
Y6840000D01*
X2810000D01*
X2540000Y6890000D02*
Y6880000D01*
X2560000D01*
Y6890000D01*
X2570000D01*
Y6910000D01*
X2560000D01*
Y6920000D01*
X2540000D01*
Y6910000D01*
X2530000D01*
Y6890000D01*
X2540000D01*
Y6790000D02*
Y6780000D01*
X2560000D01*
Y6790000D01*
X2570000D01*
Y6810000D01*
X2560000D01*
Y6820000D01*
X2540000D01*
Y6810000D01*
X2530000D01*
Y6790000D01*
X2540000D01*
X1660000Y6870000D02*
Y6860000D01*
X1680000D01*
Y6870000D01*
X1690000D01*
Y6890000D01*
X1680000D01*
Y6900000D01*
X1660000D01*
Y6890000D01*
X1650000D01*
Y6870000D01*
X1660000D01*
X1360000D02*
Y6860000D01*
X1380000D01*
Y6870000D01*
X1390000D01*
Y6890000D01*
X1380000D01*
Y6900000D01*
X1360000D01*
Y6890000D01*
X1350000D01*
Y6870000D01*
X1360000D01*
X1790000Y4240000D02*
Y4230000D01*
X1810000D01*
Y4240000D01*
X1820000D01*
Y4260000D01*
X1810000D01*
Y4270000D01*
X1790000D01*
Y4260000D01*
X1780000D01*
Y4240000D01*
X1790000D01*
X1990000D02*
Y4230000D01*
X2010000D01*
Y4240000D01*
X2020000D01*
Y4260000D01*
X2010000D01*
Y4270000D01*
X1990000D01*
Y4260000D01*
X1980000D01*
Y4240000D01*
X1990000D01*
X5170000Y970000D02*
Y960000D01*
X5190000D01*
Y970000D01*
X5200000D01*
Y990000D01*
X5190000D01*
Y1000000D01*
X5170000D01*
Y990000D01*
X5160000D01*
Y970000D01*
X5170000D01*
Y570000D02*
Y560000D01*
X5190000D01*
Y570000D01*
X5200000D01*
Y590000D01*
X5190000D01*
Y600000D01*
X5170000D01*
Y590000D01*
X5160000D01*
Y570000D01*
X5170000D01*
X3989764D02*
X3999764Y590000D01*
X3989764Y610000D01*
X4009764Y600000D01*
X4029764Y610000D01*
X4019764Y590000D01*
X4029764Y570000D01*
X4009764Y580000D01*
X3989764Y570000D01*
X3710236D02*
X3720236Y590000D01*
X3710236Y610000D01*
X3730236Y600000D01*
X3750236Y610000D01*
X3740236Y590000D01*
X3750236Y570000D01*
X3730236Y580000D01*
X3710236Y570000D01*
X5990000Y4440000D02*
Y4430000D01*
X6010000D01*
Y4440000D01*
X6020000D01*
Y4460000D01*
X6010000D01*
Y4470000D01*
X5990000D01*
Y4460000D01*
X5980000D01*
Y4440000D01*
X5990000D01*
X5890000D02*
Y4430000D01*
X5910000D01*
Y4440000D01*
X5920000D01*
Y4460000D01*
X5910000D01*
Y4470000D01*
X5890000D01*
Y4460000D01*
X5880000D01*
Y4440000D01*
X5890000D01*
X5990000Y4540000D02*
Y4530000D01*
X6010000D01*
Y4540000D01*
X6020000D01*
Y4560000D01*
X6010000D01*
Y4570000D01*
X5990000D01*
Y4560000D01*
X5980000D01*
Y4540000D01*
X5990000D01*
X5890000D02*
Y4530000D01*
X5910000D01*
Y4540000D01*
X5920000D01*
Y4560000D01*
X5910000D01*
Y4570000D01*
X5890000D01*
Y4560000D01*
X5880000D01*
Y4540000D01*
X5890000D01*
X5990000Y4640000D02*
Y4630000D01*
X6010000D01*
Y4640000D01*
X6020000D01*
Y4660000D01*
X6010000D01*
Y4670000D01*
X5990000D01*
Y4660000D01*
X5980000D01*
Y4640000D01*
X5990000D01*
X5890000D02*
Y4630000D01*
X5910000D01*
Y4640000D01*
X5920000D01*
Y4660000D01*
X5910000D01*
Y4670000D01*
X5890000D01*
Y4660000D01*
X5880000D01*
Y4640000D01*
X5890000D01*
X5990000Y4740000D02*
Y4730000D01*
X6010000D01*
Y4740000D01*
X6020000D01*
Y4760000D01*
X6010000D01*
Y4770000D01*
X5990000D01*
Y4760000D01*
X5980000D01*
Y4740000D01*
X5990000D01*
X5890000D02*
Y4730000D01*
X5910000D01*
Y4740000D01*
X5920000D01*
Y4760000D01*
X5910000D01*
Y4770000D01*
X5890000D01*
Y4760000D01*
X5880000D01*
Y4740000D01*
X5890000D01*
X5990000Y4840000D02*
Y4830000D01*
X6010000D01*
Y4840000D01*
X6020000D01*
Y4860000D01*
X6010000D01*
Y4870000D01*
X5990000D01*
Y4860000D01*
X5980000D01*
Y4840000D01*
X5990000D01*
X5890000D02*
Y4830000D01*
X5910000D01*
Y4840000D01*
X5920000D01*
Y4860000D01*
X5910000D01*
Y4870000D01*
X5890000D01*
Y4860000D01*
X5880000D01*
Y4840000D01*
X5890000D01*
X630000Y3230000D02*
X640000Y3250000D01*
X630000Y3270000D01*
X650000Y3260000D01*
X670000Y3270000D01*
X660000Y3250000D01*
X670000Y3230000D01*
X650000Y3240000D01*
X630000Y3230000D01*
X730000D02*
X740000Y3250000D01*
X730000Y3270000D01*
X750000Y3260000D01*
X770000Y3270000D01*
X760000Y3250000D01*
X770000Y3230000D01*
X750000Y3240000D01*
X730000Y3230000D01*
X630000Y3130000D02*
X640000Y3150000D01*
X630000Y3170000D01*
X650000Y3160000D01*
X670000Y3170000D01*
X660000Y3150000D01*
X670000Y3130000D01*
X650000Y3140000D01*
X630000Y3130000D01*
X730000D02*
X740000Y3150000D01*
X730000Y3170000D01*
X750000Y3160000D01*
X770000Y3170000D01*
X760000Y3150000D01*
X770000Y3130000D01*
X750000Y3140000D01*
X730000Y3130000D01*
X630000Y3030000D02*
X640000Y3050000D01*
X630000Y3070000D01*
X650000Y3060000D01*
X670000Y3070000D01*
X660000Y3050000D01*
X670000Y3030000D01*
X650000Y3040000D01*
X630000Y3030000D01*
X730000D02*
X740000Y3050000D01*
X730000Y3070000D01*
X750000Y3060000D01*
X770000Y3070000D01*
X760000Y3050000D01*
X770000Y3030000D01*
X750000Y3040000D01*
X730000Y3030000D01*
X630000Y2930000D02*
X640000Y2950000D01*
X630000Y2970000D01*
X650000Y2960000D01*
X670000Y2970000D01*
X660000Y2950000D01*
X670000Y2930000D01*
X650000Y2940000D01*
X630000Y2930000D01*
X730000D02*
X740000Y2950000D01*
X730000Y2970000D01*
X750000Y2960000D01*
X770000Y2970000D01*
X760000Y2950000D01*
X770000Y2930000D01*
X750000Y2940000D01*
X730000Y2930000D01*
X630000Y2830000D02*
X640000Y2850000D01*
X630000Y2870000D01*
X650000Y2860000D01*
X670000Y2870000D01*
X660000Y2850000D01*
X670000Y2830000D01*
X650000Y2840000D01*
X630000Y2830000D01*
X730000D02*
X740000Y2850000D01*
X730000Y2870000D01*
X750000Y2860000D01*
X770000Y2870000D01*
X760000Y2850000D01*
X770000Y2830000D01*
X750000Y2840000D01*
X730000Y2830000D01*
X630000Y2730000D02*
X640000Y2750000D01*
X630000Y2770000D01*
X650000Y2760000D01*
X670000Y2770000D01*
X660000Y2750000D01*
X670000Y2730000D01*
X650000Y2740000D01*
X630000Y2730000D01*
X730000D02*
X740000Y2750000D01*
X730000Y2770000D01*
X750000Y2760000D01*
X770000Y2770000D01*
X760000Y2750000D01*
X770000Y2730000D01*
X750000Y2740000D01*
X730000Y2730000D01*
X630000Y2630000D02*
X640000Y2650000D01*
X630000Y2670000D01*
X650000Y2660000D01*
X670000Y2670000D01*
X660000Y2650000D01*
X670000Y2630000D01*
X650000Y2640000D01*
X630000Y2630000D01*
X730000D02*
X740000Y2650000D01*
X730000Y2670000D01*
X750000Y2660000D01*
X770000Y2670000D01*
X760000Y2650000D01*
X770000Y2630000D01*
X750000Y2640000D01*
X730000Y2630000D01*
X630000Y2530000D02*
X640000Y2550000D01*
X630000Y2570000D01*
X650000Y2560000D01*
X670000Y2570000D01*
X660000Y2550000D01*
X670000Y2530000D01*
X650000Y2540000D01*
X630000Y2530000D01*
X730000D02*
X740000Y2550000D01*
X730000Y2570000D01*
X750000Y2560000D01*
X770000Y2570000D01*
X760000Y2550000D01*
X770000Y2530000D01*
X750000Y2540000D01*
X730000Y2530000D01*
X2100000Y3790000D02*
X2110000Y3800000D01*
X2120000D01*
X2110000Y3810000D01*
X2120000Y3820000D01*
X2110000D01*
X2100000Y3830000D01*
X2090000Y3820000D01*
X2080000D01*
X2090000Y3810000D01*
X2080000Y3800000D01*
X2090000D01*
X2100000Y3790000D01*
X1700000D02*
X1710000Y3800000D01*
X1720000D01*
X1710000Y3810000D01*
X1720000Y3820000D01*
X1710000D01*
X1700000Y3830000D01*
X1690000Y3820000D01*
X1680000D01*
X1690000Y3810000D01*
X1680000Y3800000D01*
X1690000D01*
X1700000Y3790000D01*
X2960000Y650000D02*
Y640000D01*
X2980000D01*
Y650000D01*
X2990000D01*
Y670000D01*
X2980000D01*
Y680000D01*
X2960000D01*
Y670000D01*
X2950000D01*
Y650000D01*
X2960000D01*
Y490000D02*
Y480000D01*
X2980000D01*
Y490000D01*
X2990000D01*
Y510000D01*
X2980000D01*
Y520000D01*
X2960000D01*
Y510000D01*
X2950000D01*
Y490000D01*
X2960000D01*
Y410000D02*
Y400000D01*
X2980000D01*
Y410000D01*
X2990000D01*
Y430000D01*
X2980000D01*
Y440000D01*
X2960000D01*
Y430000D01*
X2950000D01*
Y410000D01*
X2960000D01*
Y330000D02*
Y320000D01*
X2980000D01*
Y330000D01*
X2990000D01*
Y350000D01*
X2980000D01*
Y360000D01*
X2960000D01*
Y350000D01*
X2950000D01*
Y330000D01*
X2960000D01*
X4410000Y230000D02*
X4420000D01*
X4430000Y240000D01*
X4440000Y230000D01*
X4450000D01*
Y240000D01*
X4440000Y250000D01*
X4450000Y260000D01*
Y270000D01*
X4440000D01*
X4430000Y260000D01*
X4420000Y270000D01*
X4410000D01*
Y260000D01*
X4420000Y250000D01*
X4410000Y240000D01*
Y230000D01*
X4210000D02*
X4220000D01*
X4230000Y240000D01*
X4240000Y230000D01*
X4250000D01*
Y240000D01*
X4240000Y250000D01*
X4250000Y260000D01*
Y270000D01*
X4240000D01*
X4230000Y260000D01*
X4220000Y270000D01*
X4210000D01*
Y260000D01*
X4220000Y250000D01*
X4210000Y240000D01*
Y230000D01*
Y130000D02*
X4220000D01*
X4230000Y140000D01*
X4240000Y130000D01*
X4250000D01*
Y140000D01*
X4240000Y150000D01*
X4250000Y160000D01*
Y170000D01*
X4240000D01*
X4230000Y160000D01*
X4220000Y170000D01*
X4210000D01*
Y160000D01*
X4220000Y150000D01*
X4210000Y140000D01*
Y130000D01*
X4410000D02*
X4420000D01*
X4430000Y140000D01*
X4440000Y130000D01*
X4450000D01*
Y140000D01*
X4440000Y150000D01*
X4450000Y160000D01*
Y170000D01*
X4440000D01*
X4430000Y160000D01*
X4420000Y170000D01*
X4410000D01*
Y160000D01*
X4420000Y150000D01*
X4410000Y140000D01*
Y130000D01*
X2580000Y1980000D02*
X2590000Y2000000D01*
X2580000Y2020000D01*
X2600000Y2010000D01*
X2620000Y2020000D01*
X2610000Y2000000D01*
X2620000Y1980000D01*
X2600000Y1990000D01*
X2580000Y1980000D01*
X2480000D02*
X2490000Y2000000D01*
X2480000Y2020000D01*
X2500000Y2010000D01*
X2520000Y2020000D01*
X2510000Y2000000D01*
X2520000Y1980000D01*
X2500000Y1990000D01*
X2480000Y1980000D01*
X2380000D02*
X2390000Y2000000D01*
X2380000Y2020000D01*
X2400000Y2010000D01*
X2420000Y2020000D01*
X2410000Y2000000D01*
X2420000Y1980000D01*
X2400000Y1990000D01*
X2380000Y1980000D01*
X2280000D02*
X2290000Y2000000D01*
X2280000Y2020000D01*
X2300000Y2010000D01*
X2320000Y2020000D01*
X2310000Y2000000D01*
X2320000Y1980000D01*
X2300000Y1990000D01*
X2280000Y1980000D01*
X2180000D02*
X2190000Y2000000D01*
X2180000Y2020000D01*
X2200000Y2010000D01*
X2220000Y2020000D01*
X2210000Y2000000D01*
X2220000Y1980000D01*
X2200000Y1990000D01*
X2180000Y1980000D01*
X2080000D02*
X2090000Y2000000D01*
X2080000Y2020000D01*
X2100000Y2010000D01*
X2120000Y2020000D01*
X2110000Y2000000D01*
X2120000Y1980000D01*
X2100000Y1990000D01*
X2080000Y1980000D01*
X1980000D02*
X1990000Y2000000D01*
X1980000Y2020000D01*
X2000000Y2010000D01*
X2020000Y2020000D01*
X2010000Y2000000D01*
X2020000Y1980000D01*
X2000000Y1990000D01*
X1980000Y1980000D01*
X1880000D02*
X1890000Y2000000D01*
X1880000Y2020000D01*
X1900000Y2010000D01*
X1920000Y2020000D01*
X1910000Y2000000D01*
X1920000Y1980000D01*
X1900000Y1990000D01*
X1880000Y1980000D01*
X1780000D02*
X1790000Y2000000D01*
X1780000Y2020000D01*
X1800000Y2010000D01*
X1820000Y2020000D01*
X1810000Y2000000D01*
X1820000Y1980000D01*
X1800000Y1990000D01*
X1780000Y1980000D01*
X1680000D02*
X1690000Y2000000D01*
X1680000Y2020000D01*
X1700000Y2010000D01*
X1720000Y2020000D01*
X1710000Y2000000D01*
X1720000Y1980000D01*
X1700000Y1990000D01*
X1680000Y1980000D01*
X1580000D02*
X1590000Y2000000D01*
X1580000Y2020000D01*
X1600000Y2010000D01*
X1620000Y2020000D01*
X1610000Y2000000D01*
X1620000Y1980000D01*
X1600000Y1990000D01*
X1580000Y1980000D01*
X1480000D02*
X1490000Y2000000D01*
X1480000Y2020000D01*
X1500000Y2010000D01*
X1520000Y2020000D01*
X1510000Y2000000D01*
X1520000Y1980000D01*
X1500000Y1990000D01*
X1480000Y1980000D01*
X1380000D02*
X1390000Y2000000D01*
X1380000Y2020000D01*
X1400000Y2010000D01*
X1420000Y2020000D01*
X1410000Y2000000D01*
X1420000Y1980000D01*
X1400000Y1990000D01*
X1380000Y1980000D01*
X1280000D02*
X1290000Y2000000D01*
X1280000Y2020000D01*
X1300000Y2010000D01*
X1320000Y2020000D01*
X1310000Y2000000D01*
X1320000Y1980000D01*
X1300000Y1990000D01*
X1280000Y1980000D01*
X1180000D02*
X1190000Y2000000D01*
X1180000Y2020000D01*
X1200000Y2010000D01*
X1220000Y2020000D01*
X1210000Y2000000D01*
X1220000Y1980000D01*
X1200000Y1990000D01*
X1180000Y1980000D01*
X1080000D02*
X1090000Y2000000D01*
X1080000Y2020000D01*
X1100000Y2010000D01*
X1120000Y2020000D01*
X1110000Y2000000D01*
X1120000Y1980000D01*
X1100000Y1990000D01*
X1080000Y1980000D01*
X980000D02*
X990000Y2000000D01*
X980000Y2020000D01*
X1000000Y2010000D01*
X1020000Y2020000D01*
X1010000Y2000000D01*
X1020000Y1980000D01*
X1000000Y1990000D01*
X980000Y1980000D01*
X880000D02*
X890000Y2000000D01*
X880000Y2020000D01*
X900000Y2010000D01*
X920000Y2020000D01*
X910000Y2000000D01*
X920000Y1980000D01*
X900000Y1990000D01*
X880000Y1980000D01*
X780000D02*
X790000Y2000000D01*
X780000Y2020000D01*
X800000Y2010000D01*
X820000Y2020000D01*
X810000Y2000000D01*
X820000Y1980000D01*
X800000Y1990000D01*
X780000Y1980000D01*
X680000D02*
X690000Y2000000D01*
X680000Y2020000D01*
X700000Y2010000D01*
X720000Y2020000D01*
X710000Y2000000D01*
X720000Y1980000D01*
X700000Y1990000D01*
X680000Y1980000D01*
X2580000Y1380000D02*
X2590000Y1400000D01*
X2580000Y1420000D01*
X2600000Y1410000D01*
X2620000Y1420000D01*
X2610000Y1400000D01*
X2620000Y1380000D01*
X2600000Y1390000D01*
X2580000Y1380000D01*
X2480000D02*
X2490000Y1400000D01*
X2480000Y1420000D01*
X2500000Y1410000D01*
X2520000Y1420000D01*
X2510000Y1400000D01*
X2520000Y1380000D01*
X2500000Y1390000D01*
X2480000Y1380000D01*
X2380000D02*
X2390000Y1400000D01*
X2380000Y1420000D01*
X2400000Y1410000D01*
X2420000Y1420000D01*
X2410000Y1400000D01*
X2420000Y1380000D01*
X2400000Y1390000D01*
X2380000Y1380000D01*
X2280000D02*
X2290000Y1400000D01*
X2280000Y1420000D01*
X2300000Y1410000D01*
X2320000Y1420000D01*
X2310000Y1400000D01*
X2320000Y1380000D01*
X2300000Y1390000D01*
X2280000Y1380000D01*
X2180000D02*
X2190000Y1400000D01*
X2180000Y1420000D01*
X2200000Y1410000D01*
X2220000Y1420000D01*
X2210000Y1400000D01*
X2220000Y1380000D01*
X2200000Y1390000D01*
X2180000Y1380000D01*
X2080000D02*
X2090000Y1400000D01*
X2080000Y1420000D01*
X2100000Y1410000D01*
X2120000Y1420000D01*
X2110000Y1400000D01*
X2120000Y1380000D01*
X2100000Y1390000D01*
X2080000Y1380000D01*
X1980000D02*
X1990000Y1400000D01*
X1980000Y1420000D01*
X2000000Y1410000D01*
X2020000Y1420000D01*
X2010000Y1400000D01*
X2020000Y1380000D01*
X2000000Y1390000D01*
X1980000Y1380000D01*
X1880000D02*
X1890000Y1400000D01*
X1880000Y1420000D01*
X1900000Y1410000D01*
X1920000Y1420000D01*
X1910000Y1400000D01*
X1920000Y1380000D01*
X1900000Y1390000D01*
X1880000Y1380000D01*
X1780000D02*
X1790000Y1400000D01*
X1780000Y1420000D01*
X1800000Y1410000D01*
X1820000Y1420000D01*
X1810000Y1400000D01*
X1820000Y1380000D01*
X1800000Y1390000D01*
X1780000Y1380000D01*
X1680000D02*
X1690000Y1400000D01*
X1680000Y1420000D01*
X1700000Y1410000D01*
X1720000Y1420000D01*
X1710000Y1400000D01*
X1720000Y1380000D01*
X1700000Y1390000D01*
X1680000Y1380000D01*
X1580000D02*
X1590000Y1400000D01*
X1580000Y1420000D01*
X1600000Y1410000D01*
X1620000Y1420000D01*
X1610000Y1400000D01*
X1620000Y1380000D01*
X1600000Y1390000D01*
X1580000Y1380000D01*
X1480000D02*
X1490000Y1400000D01*
X1480000Y1420000D01*
X1500000Y1410000D01*
X1520000Y1420000D01*
X1510000Y1400000D01*
X1520000Y1380000D01*
X1500000Y1390000D01*
X1480000Y1380000D01*
X1380000D02*
X1390000Y1400000D01*
X1380000Y1420000D01*
X1400000Y1410000D01*
X1420000Y1420000D01*
X1410000Y1400000D01*
X1420000Y1380000D01*
X1400000Y1390000D01*
X1380000Y1380000D01*
X1280000D02*
X1290000Y1400000D01*
X1280000Y1420000D01*
X1300000Y1410000D01*
X1320000Y1420000D01*
X1310000Y1400000D01*
X1320000Y1380000D01*
X1300000Y1390000D01*
X1280000Y1380000D01*
X1180000D02*
X1190000Y1400000D01*
X1180000Y1420000D01*
X1200000Y1410000D01*
X1220000Y1420000D01*
X1210000Y1400000D01*
X1220000Y1380000D01*
X1200000Y1390000D01*
X1180000Y1380000D01*
X1080000D02*
X1090000Y1400000D01*
X1080000Y1420000D01*
X1100000Y1410000D01*
X1120000Y1420000D01*
X1110000Y1400000D01*
X1120000Y1380000D01*
X1100000Y1390000D01*
X1080000Y1380000D01*
X980000D02*
X990000Y1400000D01*
X980000Y1420000D01*
X1000000Y1410000D01*
X1020000Y1420000D01*
X1010000Y1400000D01*
X1020000Y1380000D01*
X1000000Y1390000D01*
X980000Y1380000D01*
X880000D02*
X890000Y1400000D01*
X880000Y1420000D01*
X900000Y1410000D01*
X920000Y1420000D01*
X910000Y1400000D01*
X920000Y1380000D01*
X900000Y1390000D01*
X880000Y1380000D01*
X780000D02*
X790000Y1400000D01*
X780000Y1420000D01*
X800000Y1410000D01*
X820000Y1420000D01*
X810000Y1400000D01*
X820000Y1380000D01*
X800000Y1390000D01*
X780000Y1380000D01*
X680000D02*
X690000Y1400000D01*
X680000Y1420000D01*
X700000Y1410000D01*
X720000Y1420000D01*
X710000Y1400000D01*
X720000Y1380000D01*
X700000Y1390000D01*
X680000Y1380000D01*
X3280000Y4880000D02*
X3290000Y4900000D01*
X3280000Y4920000D01*
X3300000Y4910000D01*
X3320000Y4920000D01*
X3310000Y4900000D01*
X3320000Y4880000D01*
X3300000Y4890000D01*
X3280000Y4880000D01*
Y4780000D02*
X3290000Y4800000D01*
X3280000Y4820000D01*
X3300000Y4810000D01*
X3320000Y4820000D01*
X3310000Y4800000D01*
X3320000Y4780000D01*
X3300000Y4790000D01*
X3280000Y4780000D01*
Y4680000D02*
X3290000Y4700000D01*
X3280000Y4720000D01*
X3300000Y4710000D01*
X3320000Y4720000D01*
X3310000Y4700000D01*
X3320000Y4680000D01*
X3300000Y4690000D01*
X3280000Y4680000D01*
Y4580000D02*
X3290000Y4600000D01*
X3280000Y4620000D01*
X3300000Y4610000D01*
X3320000Y4620000D01*
X3310000Y4600000D01*
X3320000Y4580000D01*
X3300000Y4590000D01*
X3280000Y4580000D01*
Y4480000D02*
X3290000Y4500000D01*
X3280000Y4520000D01*
X3300000Y4510000D01*
X3320000Y4520000D01*
X3310000Y4500000D01*
X3320000Y4480000D01*
X3300000Y4490000D01*
X3280000Y4480000D01*
Y4380000D02*
X3290000Y4400000D01*
X3280000Y4420000D01*
X3300000Y4410000D01*
X3320000Y4420000D01*
X3310000Y4400000D01*
X3320000Y4380000D01*
X3300000Y4390000D01*
X3280000Y4380000D01*
Y4280000D02*
X3290000Y4300000D01*
X3280000Y4320000D01*
X3300000Y4310000D01*
X3320000Y4320000D01*
X3310000Y4300000D01*
X3320000Y4280000D01*
X3300000Y4290000D01*
X3280000Y4280000D01*
Y4180000D02*
X3290000Y4200000D01*
X3280000Y4220000D01*
X3300000Y4210000D01*
X3320000Y4220000D01*
X3310000Y4200000D01*
X3320000Y4180000D01*
X3300000Y4190000D01*
X3280000Y4180000D01*
Y4080000D02*
X3290000Y4100000D01*
X3280000Y4120000D01*
X3300000Y4110000D01*
X3320000Y4120000D01*
X3310000Y4100000D01*
X3320000Y4080000D01*
X3300000Y4090000D01*
X3280000Y4080000D01*
Y3980000D02*
X3290000Y4000000D01*
X3280000Y4020000D01*
X3300000Y4010000D01*
X3320000Y4020000D01*
X3310000Y4000000D01*
X3320000Y3980000D01*
X3300000Y3990000D01*
X3280000Y3980000D01*
Y3880000D02*
X3290000Y3900000D01*
X3280000Y3920000D01*
X3300000Y3910000D01*
X3320000Y3920000D01*
X3310000Y3900000D01*
X3320000Y3880000D01*
X3300000Y3890000D01*
X3280000Y3880000D01*
Y3780000D02*
X3290000Y3800000D01*
X3280000Y3820000D01*
X3300000Y3810000D01*
X3320000Y3820000D01*
X3310000Y3800000D01*
X3320000Y3780000D01*
X3300000Y3790000D01*
X3280000Y3780000D01*
Y3680000D02*
X3290000Y3700000D01*
X3280000Y3720000D01*
X3300000Y3710000D01*
X3320000Y3720000D01*
X3310000Y3700000D01*
X3320000Y3680000D01*
X3300000Y3690000D01*
X3280000Y3680000D01*
Y3580000D02*
X3290000Y3600000D01*
X3280000Y3620000D01*
X3300000Y3610000D01*
X3320000Y3620000D01*
X3310000Y3600000D01*
X3320000Y3580000D01*
X3300000Y3590000D01*
X3280000Y3580000D01*
X3880000Y4880000D02*
X3890000Y4900000D01*
X3880000Y4920000D01*
X3900000Y4910000D01*
X3920000Y4920000D01*
X3910000Y4900000D01*
X3920000Y4880000D01*
X3900000Y4890000D01*
X3880000Y4880000D01*
Y4780000D02*
X3890000Y4800000D01*
X3880000Y4820000D01*
X3900000Y4810000D01*
X3920000Y4820000D01*
X3910000Y4800000D01*
X3920000Y4780000D01*
X3900000Y4790000D01*
X3880000Y4780000D01*
Y4680000D02*
X3890000Y4700000D01*
X3880000Y4720000D01*
X3900000Y4710000D01*
X3920000Y4720000D01*
X3910000Y4700000D01*
X3920000Y4680000D01*
X3900000Y4690000D01*
X3880000Y4680000D01*
Y4580000D02*
X3890000Y4600000D01*
X3880000Y4620000D01*
X3900000Y4610000D01*
X3920000Y4620000D01*
X3910000Y4600000D01*
X3920000Y4580000D01*
X3900000Y4590000D01*
X3880000Y4580000D01*
Y4480000D02*
X3890000Y4500000D01*
X3880000Y4520000D01*
X3900000Y4510000D01*
X3920000Y4520000D01*
X3910000Y4500000D01*
X3920000Y4480000D01*
X3900000Y4490000D01*
X3880000Y4480000D01*
Y4380000D02*
X3890000Y4400000D01*
X3880000Y4420000D01*
X3900000Y4410000D01*
X3920000Y4420000D01*
X3910000Y4400000D01*
X3920000Y4380000D01*
X3900000Y4390000D01*
X3880000Y4380000D01*
Y4280000D02*
X3890000Y4300000D01*
X3880000Y4320000D01*
X3900000Y4310000D01*
X3920000Y4320000D01*
X3910000Y4300000D01*
X3920000Y4280000D01*
X3900000Y4290000D01*
X3880000Y4280000D01*
Y4180000D02*
X3890000Y4200000D01*
X3880000Y4220000D01*
X3900000Y4210000D01*
X3920000Y4220000D01*
X3910000Y4200000D01*
X3920000Y4180000D01*
X3900000Y4190000D01*
X3880000Y4180000D01*
Y4080000D02*
X3890000Y4100000D01*
X3880000Y4120000D01*
X3900000Y4110000D01*
X3920000Y4120000D01*
X3910000Y4100000D01*
X3920000Y4080000D01*
X3900000Y4090000D01*
X3880000Y4080000D01*
Y3980000D02*
X3890000Y4000000D01*
X3880000Y4020000D01*
X3900000Y4010000D01*
X3920000Y4020000D01*
X3910000Y4000000D01*
X3920000Y3980000D01*
X3900000Y3990000D01*
X3880000Y3980000D01*
Y3880000D02*
X3890000Y3900000D01*
X3880000Y3920000D01*
X3900000Y3910000D01*
X3920000Y3920000D01*
X3910000Y3900000D01*
X3920000Y3880000D01*
X3900000Y3890000D01*
X3880000Y3880000D01*
Y3780000D02*
X3890000Y3800000D01*
X3880000Y3820000D01*
X3900000Y3810000D01*
X3920000Y3820000D01*
X3910000Y3800000D01*
X3920000Y3780000D01*
X3900000Y3790000D01*
X3880000Y3780000D01*
Y3680000D02*
X3890000Y3700000D01*
X3880000Y3720000D01*
X3900000Y3710000D01*
X3920000Y3720000D01*
X3910000Y3700000D01*
X3920000Y3680000D01*
X3900000Y3690000D01*
X3880000Y3680000D01*
Y3580000D02*
X3890000Y3600000D01*
X3880000Y3620000D01*
X3900000Y3610000D01*
X3920000Y3620000D01*
X3910000Y3600000D01*
X3920000Y3580000D01*
X3900000Y3590000D01*
X3880000Y3580000D01*
X3690000Y1740000D02*
Y1730000D01*
X3710000D01*
Y1740000D01*
X3720000D01*
Y1760000D01*
X3710000D01*
Y1770000D01*
X3690000D01*
Y1760000D01*
X3680000D01*
Y1740000D01*
X3690000D01*
X3590000Y1840000D02*
Y1830000D01*
X3610000D01*
Y1840000D01*
X3620000D01*
Y1860000D01*
X3610000D01*
Y1870000D01*
X3590000D01*
Y1860000D01*
X3580000D01*
Y1840000D01*
X3590000D01*
Y1740000D02*
Y1730000D01*
X3610000D01*
Y1740000D01*
X3620000D01*
Y1760000D01*
X3610000D01*
Y1770000D01*
X3590000D01*
Y1760000D01*
X3580000D01*
Y1740000D01*
X3590000D01*
X3490000Y1840000D02*
Y1830000D01*
X3510000D01*
Y1840000D01*
X3520000D01*
Y1860000D01*
X3510000D01*
Y1870000D01*
X3490000D01*
Y1860000D01*
X3480000D01*
Y1840000D01*
X3490000D01*
Y1740000D02*
Y1730000D01*
X3510000D01*
Y1740000D01*
X3520000D01*
Y1760000D01*
X3510000D01*
Y1770000D01*
X3490000D01*
Y1760000D01*
X3480000D01*
Y1740000D01*
X3490000D01*
X3390000Y1840000D02*
Y1830000D01*
X3410000D01*
Y1840000D01*
X3420000D01*
Y1860000D01*
X3410000D01*
Y1870000D01*
X3390000D01*
Y1860000D01*
X3380000D01*
Y1840000D01*
X3390000D01*
X3290000Y1740000D02*
Y1730000D01*
X3310000D01*
Y1740000D01*
X3320000D01*
Y1760000D01*
X3310000D01*
Y1770000D01*
X3290000D01*
Y1760000D01*
X3280000D01*
Y1740000D01*
X3290000D01*
X3390000D02*
Y1730000D01*
X3410000D01*
Y1740000D01*
X3420000D01*
Y1760000D01*
X3410000D01*
Y1770000D01*
X3390000D01*
Y1760000D01*
X3380000D01*
Y1740000D01*
X3390000D01*
X3290000Y1640000D02*
Y1630000D01*
X3310000D01*
Y1640000D01*
X3320000D01*
Y1660000D01*
X3310000D01*
Y1670000D01*
X3290000D01*
Y1660000D01*
X3280000D01*
Y1640000D01*
X3290000D01*
X3390000D02*
Y1630000D01*
X3410000D01*
Y1640000D01*
X3420000D01*
Y1660000D01*
X3410000D01*
Y1670000D01*
X3390000D01*
Y1660000D01*
X3380000D01*
Y1640000D01*
X3390000D01*
X3290000Y1540000D02*
Y1530000D01*
X3310000D01*
Y1540000D01*
X3320000D01*
Y1560000D01*
X3310000D01*
Y1570000D01*
X3290000D01*
Y1560000D01*
X3280000D01*
Y1540000D01*
X3290000D01*
X3390000D02*
Y1530000D01*
X3410000D01*
Y1540000D01*
X3420000D01*
Y1560000D01*
X3410000D01*
Y1570000D01*
X3390000D01*
Y1560000D01*
X3380000D01*
Y1540000D01*
X3390000D01*
X3290000Y1440000D02*
Y1430000D01*
X3310000D01*
Y1440000D01*
X3320000D01*
Y1460000D01*
X3310000D01*
Y1470000D01*
X3290000D01*
Y1460000D01*
X3280000D01*
Y1440000D01*
X3290000D01*
X3390000D02*
Y1430000D01*
X3410000D01*
Y1440000D01*
X3420000D01*
Y1460000D01*
X3410000D01*
Y1470000D01*
X3390000D01*
Y1460000D01*
X3380000D01*
Y1440000D01*
X3390000D01*
X3290000Y1340000D02*
Y1330000D01*
X3310000D01*
Y1340000D01*
X3320000D01*
Y1360000D01*
X3310000D01*
Y1370000D01*
X3290000D01*
Y1360000D01*
X3280000D01*
Y1340000D01*
X3290000D01*
X3390000D02*
Y1330000D01*
X3410000D01*
Y1340000D01*
X3420000D01*
Y1360000D01*
X3410000D01*
Y1370000D01*
X3390000D01*
Y1360000D01*
X3380000D01*
Y1340000D01*
X3390000D01*
X3290000Y1240000D02*
Y1230000D01*
X3310000D01*
Y1240000D01*
X3320000D01*
Y1260000D01*
X3310000D01*
Y1270000D01*
X3290000D01*
Y1260000D01*
X3280000D01*
Y1240000D01*
X3290000D01*
X3390000Y1140000D02*
Y1130000D01*
X3410000D01*
Y1140000D01*
X3420000D01*
Y1160000D01*
X3410000D01*
Y1170000D01*
X3390000D01*
Y1160000D01*
X3380000D01*
Y1140000D01*
X3390000D01*
Y1240000D02*
Y1230000D01*
X3410000D01*
Y1240000D01*
X3420000D01*
Y1260000D01*
X3410000D01*
Y1270000D01*
X3390000D01*
Y1260000D01*
X3380000D01*
Y1240000D01*
X3390000D01*
X3490000Y1140000D02*
Y1130000D01*
X3510000D01*
Y1140000D01*
X3520000D01*
Y1160000D01*
X3510000D01*
Y1170000D01*
X3490000D01*
Y1160000D01*
X3480000D01*
Y1140000D01*
X3490000D01*
Y1240000D02*
Y1230000D01*
X3510000D01*
Y1240000D01*
X3520000D01*
Y1260000D01*
X3510000D01*
Y1270000D01*
X3490000D01*
Y1260000D01*
X3480000D01*
Y1240000D01*
X3490000D01*
X3590000Y1140000D02*
Y1130000D01*
X3610000D01*
Y1140000D01*
X3620000D01*
Y1160000D01*
X3610000D01*
Y1170000D01*
X3590000D01*
Y1160000D01*
X3580000D01*
Y1140000D01*
X3590000D01*
Y1240000D02*
Y1230000D01*
X3610000D01*
Y1240000D01*
X3620000D01*
Y1260000D01*
X3610000D01*
Y1270000D01*
X3590000D01*
Y1260000D01*
X3580000D01*
Y1240000D01*
X3590000D01*
X3690000Y1140000D02*
Y1130000D01*
X3710000D01*
Y1140000D01*
X3720000D01*
Y1160000D01*
X3710000D01*
Y1170000D01*
X3690000D01*
Y1160000D01*
X3680000D01*
Y1140000D01*
X3690000D01*
Y1240000D02*
Y1230000D01*
X3710000D01*
Y1240000D01*
X3720000D01*
Y1260000D01*
X3710000D01*
Y1270000D01*
X3690000D01*
Y1260000D01*
X3680000D01*
Y1240000D01*
X3690000D01*
X3890000Y1340000D02*
Y1330000D01*
X3910000D01*
Y1340000D01*
X3920000D01*
Y1360000D01*
X3910000D01*
Y1370000D01*
X3890000D01*
Y1360000D01*
X3880000D01*
Y1340000D01*
X3890000D01*
Y1440000D02*
Y1430000D01*
X3910000D01*
Y1440000D01*
X3920000D01*
Y1460000D01*
X3910000D01*
Y1470000D01*
X3890000D01*
Y1460000D01*
X3880000D01*
Y1440000D01*
X3890000D01*
Y1240000D02*
Y1230000D01*
X3910000D01*
Y1240000D01*
X3920000D01*
Y1260000D01*
X3910000D01*
Y1270000D01*
X3890000D01*
Y1260000D01*
X3880000D01*
Y1240000D01*
X3890000D01*
X3790000Y1140000D02*
Y1130000D01*
X3810000D01*
Y1140000D01*
X3820000D01*
Y1160000D01*
X3810000D01*
Y1170000D01*
X3790000D01*
Y1160000D01*
X3780000D01*
Y1140000D01*
X3790000D01*
Y1240000D02*
Y1230000D01*
X3810000D01*
Y1240000D01*
X3820000D01*
Y1260000D01*
X3810000D01*
Y1270000D01*
X3790000D01*
Y1260000D01*
X3780000D01*
Y1240000D01*
X3790000D01*
X3890000Y1140000D02*
Y1130000D01*
X3910000D01*
Y1140000D01*
X3920000D01*
Y1160000D01*
X3910000D01*
Y1170000D01*
X3890000D01*
Y1160000D01*
X3880000D01*
Y1140000D01*
X3890000D01*
X3790000Y1740000D02*
Y1730000D01*
X3810000D01*
Y1740000D01*
X3820000D01*
Y1760000D01*
X3810000D01*
Y1770000D01*
X3790000D01*
Y1760000D01*
X3780000D01*
Y1740000D01*
X3790000D01*
X3990000Y1240000D02*
Y1230000D01*
X4010000D01*
Y1240000D01*
X4020000D01*
Y1260000D01*
X4010000D01*
Y1270000D01*
X3990000D01*
Y1260000D01*
X3980000D01*
Y1240000D01*
X3990000D01*
X3790000Y1840000D02*
Y1830000D01*
X3810000D01*
Y1840000D01*
X3820000D01*
Y1860000D01*
X3810000D01*
Y1870000D01*
X3790000D01*
Y1860000D01*
X3780000D01*
Y1840000D01*
X3790000D01*
X3990000Y1340000D02*
Y1330000D01*
X4010000D01*
Y1340000D01*
X4020000D01*
Y1360000D01*
X4010000D01*
Y1370000D01*
X3990000D01*
Y1360000D01*
X3980000D01*
Y1340000D01*
X3990000D01*
Y1440000D02*
Y1430000D01*
X4010000D01*
Y1440000D01*
X4020000D01*
Y1460000D01*
X4010000D01*
Y1470000D01*
X3990000D01*
Y1460000D01*
X3980000D01*
Y1440000D01*
X3990000D01*
X3890000Y1540000D02*
Y1530000D01*
X3910000D01*
Y1540000D01*
X3920000D01*
Y1560000D01*
X3910000D01*
Y1570000D01*
X3890000D01*
Y1560000D01*
X3880000D01*
Y1540000D01*
X3890000D01*
Y1640000D02*
Y1630000D01*
X3910000D01*
Y1640000D01*
X3920000D01*
Y1660000D01*
X3910000D01*
Y1670000D01*
X3890000D01*
Y1660000D01*
X3880000D01*
Y1640000D01*
X3890000D01*
X3990000Y1540000D02*
Y1530000D01*
X4010000D01*
Y1540000D01*
X4020000D01*
Y1560000D01*
X4010000D01*
Y1570000D01*
X3990000D01*
Y1560000D01*
X3980000D01*
Y1540000D01*
X3990000D01*
X3890000Y1740000D02*
Y1730000D01*
X3910000D01*
Y1740000D01*
X3920000D01*
Y1760000D01*
X3910000D01*
Y1770000D01*
X3890000D01*
Y1760000D01*
X3880000D01*
Y1740000D01*
X3890000D01*
X3990000Y1640000D02*
Y1630000D01*
X4010000D01*
Y1640000D01*
X4020000D01*
Y1660000D01*
X4010000D01*
Y1670000D01*
X3990000D01*
Y1660000D01*
X3980000D01*
Y1640000D01*
X3990000D01*
Y1740000D02*
Y1730000D01*
X4010000D01*
Y1740000D01*
X4020000D01*
Y1760000D01*
X4010000D01*
Y1770000D01*
X3990000D01*
Y1760000D01*
X3980000D01*
Y1740000D01*
X3990000D01*
X3890000Y1840000D02*
Y1830000D01*
X3910000D01*
Y1840000D01*
X3920000D01*
Y1860000D01*
X3910000D01*
Y1870000D01*
X3890000D01*
Y1860000D01*
X3880000D01*
Y1840000D01*
X3890000D01*
X3690000D02*
Y1830000D01*
X3710000D01*
Y1840000D01*
X3720000D01*
Y1860000D01*
X3710000D01*
Y1870000D01*
X3690000D01*
Y1860000D01*
X3680000D01*
Y1840000D01*
X3690000D01*
X930000Y4880000D02*
X940000Y4900000D01*
X930000Y4920000D01*
X950000Y4910000D01*
X970000Y4920000D01*
X960000Y4900000D01*
X970000Y4880000D01*
X950000Y4890000D01*
X930000Y4880000D01*
Y4780000D02*
X940000Y4800000D01*
X930000Y4820000D01*
X950000Y4810000D01*
X970000Y4820000D01*
X960000Y4800000D01*
X970000Y4780000D01*
X950000Y4790000D01*
X930000Y4780000D01*
Y4680000D02*
X940000Y4700000D01*
X930000Y4720000D01*
X950000Y4710000D01*
X970000Y4720000D01*
X960000Y4700000D01*
X970000Y4680000D01*
X950000Y4690000D01*
X930000Y4680000D01*
Y4580000D02*
X940000Y4600000D01*
X930000Y4620000D01*
X950000Y4610000D01*
X970000Y4620000D01*
X960000Y4600000D01*
X970000Y4580000D01*
X950000Y4590000D01*
X930000Y4580000D01*
Y4480000D02*
X940000Y4500000D01*
X930000Y4520000D01*
X950000Y4510000D01*
X970000Y4520000D01*
X960000Y4500000D01*
X970000Y4480000D01*
X950000Y4490000D01*
X930000Y4480000D01*
Y4380000D02*
X940000Y4400000D01*
X930000Y4420000D01*
X950000Y4410000D01*
X970000Y4420000D01*
X960000Y4400000D01*
X970000Y4380000D01*
X950000Y4390000D01*
X930000Y4380000D01*
Y4280000D02*
X940000Y4300000D01*
X930000Y4320000D01*
X950000Y4310000D01*
X970000Y4320000D01*
X960000Y4300000D01*
X970000Y4280000D01*
X950000Y4290000D01*
X930000Y4280000D01*
Y4180000D02*
X940000Y4200000D01*
X930000Y4220000D01*
X950000Y4210000D01*
X970000Y4220000D01*
X960000Y4200000D01*
X970000Y4180000D01*
X950000Y4190000D01*
X930000Y4180000D01*
Y4080000D02*
X940000Y4100000D01*
X930000Y4120000D01*
X950000Y4110000D01*
X970000Y4120000D01*
X960000Y4100000D01*
X970000Y4080000D01*
X950000Y4090000D01*
X930000Y4080000D01*
Y3980000D02*
X940000Y4000000D01*
X930000Y4020000D01*
X950000Y4010000D01*
X970000Y4020000D01*
X960000Y4000000D01*
X970000Y3980000D01*
X950000Y3990000D01*
X930000Y3980000D01*
Y3880000D02*
X940000Y3900000D01*
X930000Y3920000D01*
X950000Y3910000D01*
X970000Y3920000D01*
X960000Y3900000D01*
X970000Y3880000D01*
X950000Y3890000D01*
X930000Y3880000D01*
Y3780000D02*
X940000Y3800000D01*
X930000Y3820000D01*
X950000Y3810000D01*
X970000Y3820000D01*
X960000Y3800000D01*
X970000Y3780000D01*
X950000Y3790000D01*
X930000Y3780000D01*
Y3680000D02*
X940000Y3700000D01*
X930000Y3720000D01*
X950000Y3710000D01*
X970000Y3720000D01*
X960000Y3700000D01*
X970000Y3680000D01*
X950000Y3690000D01*
X930000Y3680000D01*
Y3580000D02*
X940000Y3600000D01*
X930000Y3620000D01*
X950000Y3610000D01*
X970000Y3620000D01*
X960000Y3600000D01*
X970000Y3580000D01*
X950000Y3590000D01*
X930000Y3580000D01*
X1530000Y4880000D02*
X1540000Y4900000D01*
X1530000Y4920000D01*
X1550000Y4910000D01*
X1570000Y4920000D01*
X1560000Y4900000D01*
X1570000Y4880000D01*
X1550000Y4890000D01*
X1530000Y4880000D01*
Y4780000D02*
X1540000Y4800000D01*
X1530000Y4820000D01*
X1550000Y4810000D01*
X1570000Y4820000D01*
X1560000Y4800000D01*
X1570000Y4780000D01*
X1550000Y4790000D01*
X1530000Y4780000D01*
Y4680000D02*
X1540000Y4700000D01*
X1530000Y4720000D01*
X1550000Y4710000D01*
X1570000Y4720000D01*
X1560000Y4700000D01*
X1570000Y4680000D01*
X1550000Y4690000D01*
X1530000Y4680000D01*
Y4580000D02*
X1540000Y4600000D01*
X1530000Y4620000D01*
X1550000Y4610000D01*
X1570000Y4620000D01*
X1560000Y4600000D01*
X1570000Y4580000D01*
X1550000Y4590000D01*
X1530000Y4580000D01*
Y4480000D02*
X1540000Y4500000D01*
X1530000Y4520000D01*
X1550000Y4510000D01*
X1570000Y4520000D01*
X1560000Y4500000D01*
X1570000Y4480000D01*
X1550000Y4490000D01*
X1530000Y4480000D01*
Y4380000D02*
X1540000Y4400000D01*
X1530000Y4420000D01*
X1550000Y4410000D01*
X1570000Y4420000D01*
X1560000Y4400000D01*
X1570000Y4380000D01*
X1550000Y4390000D01*
X1530000Y4380000D01*
Y4280000D02*
X1540000Y4300000D01*
X1530000Y4320000D01*
X1550000Y4310000D01*
X1570000Y4320000D01*
X1560000Y4300000D01*
X1570000Y4280000D01*
X1550000Y4290000D01*
X1530000Y4280000D01*
Y4180000D02*
X1540000Y4200000D01*
X1530000Y4220000D01*
X1550000Y4210000D01*
X1570000Y4220000D01*
X1560000Y4200000D01*
X1570000Y4180000D01*
X1550000Y4190000D01*
X1530000Y4180000D01*
Y4080000D02*
X1540000Y4100000D01*
X1530000Y4120000D01*
X1550000Y4110000D01*
X1570000Y4120000D01*
X1560000Y4100000D01*
X1570000Y4080000D01*
X1550000Y4090000D01*
X1530000Y4080000D01*
Y3980000D02*
X1540000Y4000000D01*
X1530000Y4020000D01*
X1550000Y4010000D01*
X1570000Y4020000D01*
X1560000Y4000000D01*
X1570000Y3980000D01*
X1550000Y3990000D01*
X1530000Y3980000D01*
Y3880000D02*
X1540000Y3900000D01*
X1530000Y3920000D01*
X1550000Y3910000D01*
X1570000Y3920000D01*
X1560000Y3900000D01*
X1570000Y3880000D01*
X1550000Y3890000D01*
X1530000Y3880000D01*
Y3780000D02*
X1540000Y3800000D01*
X1530000Y3820000D01*
X1550000Y3810000D01*
X1570000Y3820000D01*
X1560000Y3800000D01*
X1570000Y3780000D01*
X1550000Y3790000D01*
X1530000Y3780000D01*
Y3680000D02*
X1540000Y3700000D01*
X1530000Y3720000D01*
X1550000Y3710000D01*
X1570000Y3720000D01*
X1560000Y3700000D01*
X1570000Y3680000D01*
X1550000Y3690000D01*
X1530000Y3680000D01*
Y3580000D02*
X1540000Y3600000D01*
X1530000Y3620000D01*
X1550000Y3610000D01*
X1570000Y3620000D01*
X1560000Y3600000D01*
X1570000Y3580000D01*
X1550000Y3590000D01*
X1530000Y3580000D01*
X4940000Y560000D02*
X4950000Y580000D01*
X4940000Y600000D01*
X4960000Y590000D01*
X4980000Y600000D01*
X4970000Y580000D01*
X4980000Y560000D01*
X4960000Y570000D01*
X4940000Y560000D01*
Y660000D02*
X4950000Y680000D01*
X4940000Y700000D01*
X4960000Y690000D01*
X4980000Y700000D01*
X4970000Y680000D01*
X4980000Y660000D01*
X4960000Y670000D01*
X4940000Y660000D01*
Y760000D02*
X4950000Y780000D01*
X4940000Y800000D01*
X4960000Y790000D01*
X4980000Y800000D01*
X4970000Y780000D01*
X4980000Y760000D01*
X4960000Y770000D01*
X4940000Y760000D01*
Y860000D02*
X4950000Y880000D01*
X4940000Y900000D01*
X4960000Y890000D01*
X4980000Y900000D01*
X4970000Y880000D01*
X4980000Y860000D01*
X4960000Y870000D01*
X4940000Y860000D01*
X4640000Y560000D02*
X4650000Y580000D01*
X4640000Y600000D01*
X4660000Y590000D01*
X4680000Y600000D01*
X4670000Y580000D01*
X4680000Y560000D01*
X4660000Y570000D01*
X4640000Y560000D01*
Y660000D02*
X4650000Y680000D01*
X4640000Y700000D01*
X4660000Y690000D01*
X4680000Y700000D01*
X4670000Y680000D01*
X4680000Y660000D01*
X4660000Y670000D01*
X4640000Y660000D01*
Y760000D02*
X4650000Y780000D01*
X4640000Y800000D01*
X4660000Y790000D01*
X4680000Y800000D01*
X4670000Y780000D01*
X4680000Y760000D01*
X4660000Y770000D01*
X4640000Y760000D01*
Y860000D02*
X4650000Y880000D01*
X4640000Y900000D01*
X4660000Y890000D01*
X4680000Y900000D01*
X4670000Y880000D01*
X4680000Y860000D01*
X4660000Y870000D01*
X4640000Y860000D01*
X4940000Y1180000D02*
X4950000Y1200000D01*
X4940000Y1220000D01*
X4960000Y1210000D01*
X4980000Y1220000D01*
X4970000Y1200000D01*
X4980000Y1180000D01*
X4960000Y1190000D01*
X4940000Y1180000D01*
Y1280000D02*
X4950000Y1300000D01*
X4940000Y1320000D01*
X4960000Y1310000D01*
X4980000Y1320000D01*
X4970000Y1300000D01*
X4980000Y1280000D01*
X4960000Y1290000D01*
X4940000Y1280000D01*
Y1380000D02*
X4950000Y1400000D01*
X4940000Y1420000D01*
X4960000Y1410000D01*
X4980000Y1420000D01*
X4970000Y1400000D01*
X4980000Y1380000D01*
X4960000Y1390000D01*
X4940000Y1380000D01*
Y1480000D02*
X4950000Y1500000D01*
X4940000Y1520000D01*
X4960000Y1510000D01*
X4980000Y1520000D01*
X4970000Y1500000D01*
X4980000Y1480000D01*
X4960000Y1490000D01*
X4940000Y1480000D01*
Y1580000D02*
X4950000Y1600000D01*
X4940000Y1620000D01*
X4960000Y1610000D01*
X4980000Y1620000D01*
X4970000Y1600000D01*
X4980000Y1580000D01*
X4960000Y1590000D01*
X4940000Y1580000D01*
Y1680000D02*
X4950000Y1700000D01*
X4940000Y1720000D01*
X4960000Y1710000D01*
X4980000Y1720000D01*
X4970000Y1700000D01*
X4980000Y1680000D01*
X4960000Y1690000D01*
X4940000Y1680000D01*
Y1780000D02*
X4950000Y1800000D01*
X4940000Y1820000D01*
X4960000Y1810000D01*
X4980000Y1820000D01*
X4970000Y1800000D01*
X4980000Y1780000D01*
X4960000Y1790000D01*
X4940000Y1780000D01*
X4640000Y1180000D02*
X4650000Y1200000D01*
X4640000Y1220000D01*
X4660000Y1210000D01*
X4680000Y1220000D01*
X4670000Y1200000D01*
X4680000Y1180000D01*
X4660000Y1190000D01*
X4640000Y1180000D01*
Y1280000D02*
X4650000Y1300000D01*
X4640000Y1320000D01*
X4660000Y1310000D01*
X4680000Y1320000D01*
X4670000Y1300000D01*
X4680000Y1280000D01*
X4660000Y1290000D01*
X4640000Y1280000D01*
Y1380000D02*
X4650000Y1400000D01*
X4640000Y1420000D01*
X4660000Y1410000D01*
X4680000Y1420000D01*
X4670000Y1400000D01*
X4680000Y1380000D01*
X4660000Y1390000D01*
X4640000Y1380000D01*
Y1480000D02*
X4650000Y1500000D01*
X4640000Y1520000D01*
X4660000Y1510000D01*
X4680000Y1520000D01*
X4670000Y1500000D01*
X4680000Y1480000D01*
X4660000Y1490000D01*
X4640000Y1480000D01*
Y1580000D02*
X4650000Y1600000D01*
X4640000Y1620000D01*
X4660000Y1610000D01*
X4680000Y1620000D01*
X4670000Y1600000D01*
X4680000Y1580000D01*
X4660000Y1590000D01*
X4640000Y1580000D01*
Y1680000D02*
X4650000Y1700000D01*
X4640000Y1720000D01*
X4660000Y1710000D01*
X4680000Y1720000D01*
X4670000Y1700000D01*
X4680000Y1680000D01*
X4660000Y1690000D01*
X4640000Y1680000D01*
Y1780000D02*
X4650000Y1800000D01*
X4640000Y1820000D01*
X4660000Y1810000D01*
X4680000Y1820000D01*
X4670000Y1800000D01*
X4680000Y1780000D01*
X4660000Y1790000D01*
X4640000Y1780000D01*
X2190000Y6820000D02*
X2200000D01*
X2210000Y6830000D01*
X2220000Y6820000D01*
X2230000D01*
Y6830000D01*
X2220000Y6840000D01*
X2230000Y6850000D01*
Y6860000D01*
X2220000D01*
X2210000Y6850000D01*
X2200000Y6860000D01*
X2190000D01*
Y6850000D01*
X2200000Y6840000D01*
X2190000Y6830000D01*
Y6820000D01*
X340000Y1340000D02*
Y1330000D01*
X360000D01*
Y1340000D01*
X370000D01*
Y1360000D01*
X360000D01*
Y1370000D01*
X340000D01*
Y1360000D01*
X330000D01*
Y1340000D01*
X340000D01*
X880000Y6928425D02*
X890000Y6948425D01*
X880000Y6968425D01*
X900000Y6958425D01*
X920000Y6968425D01*
X910000Y6948425D01*
X920000Y6928425D01*
X900000Y6938425D01*
X880000Y6928425D01*
Y6731575D02*
X890000Y6751575D01*
X880000Y6771575D01*
X900000Y6761575D01*
X920000Y6771575D01*
X910000Y6751575D01*
X920000Y6731575D01*
X900000Y6741575D01*
X880000Y6731575D01*
X121732Y198504D02*
Y238504D01*
X161732D01*
Y198504D01*
X121732D01*
X129732Y206504D02*
Y230504D01*
X153732D01*
Y206504D01*
X129732D01*
X6170551Y5448504D02*
Y5488504D01*
X6210551D01*
Y5448504D01*
X6170551D01*
X6178551Y5456504D02*
Y5480504D01*
X6202551D01*
Y5456504D01*
X6178551D01*
X121732Y5448504D02*
Y5488504D01*
X161732D01*
Y5448504D01*
X121732D01*
X129732Y5456504D02*
Y5480504D01*
X153732D01*
Y5456504D01*
X129732D01*
D88*
X354016Y4601929D02*
G03*
X354016Y4601929I-20000J0D01*
G01*
Y3618071D02*
G03*
X354016Y3618071I-20000J0D01*
G01*
X3870000Y900000D02*
G03*
X3870000Y900000I-20000J0D01*
G01*
X1570000Y770000D02*
G03*
X1570000Y770000I-20000J0D01*
G01*
X1500000Y1300000D02*
G03*
X1500000Y1300000I-20000J0D01*
G01*
X2710000Y1370000D02*
G03*
X2710000Y1370000I-20000J0D01*
G01*
Y1330000D02*
G03*
X2710000Y1330000I-20000J0D01*
G01*
Y1290000D02*
G03*
X2710000Y1290000I-20000J0D01*
G01*
Y1250000D02*
G03*
X2710000Y1250000I-20000J0D01*
G01*
Y1210000D02*
G03*
X2710000Y1210000I-20000J0D01*
G01*
X3220000Y1240000D02*
G03*
X3220000Y1240000I-20000J0D01*
G01*
X1830000Y1050000D02*
G03*
X1830000Y1050000I-20000J0D01*
G01*
X1860000Y1090000D02*
G03*
X1860000Y1090000I-20000J0D01*
G01*
X2910000Y200000D02*
G03*
X2910000Y200000I-20000J0D01*
G01*
X1670000Y1120000D02*
G03*
X1670000Y1120000I-20000J0D01*
G01*
X5390000Y3320000D02*
G03*
X5390000Y3320000I-20000J0D01*
G01*
X5360000Y3270000D02*
G03*
X5360000Y3270000I-20000J0D01*
G01*
X5330000Y3220000D02*
G03*
X5330000Y3220000I-20000J0D01*
G01*
X5300000Y3170000D02*
G03*
X5300000Y3170000I-20000J0D01*
G01*
X5270000Y3118504D02*
G03*
X5270000Y3118504I-20000J0D01*
G01*
X5240000Y3070000D02*
G03*
X5240000Y3070000I-20000J0D01*
G01*
X5180000Y2970000D02*
G03*
X5180000Y2970000I-20000J0D01*
G01*
X5210000Y3018504D02*
G03*
X5210000Y3018504I-20000J0D01*
G01*
X4510000Y2220000D02*
G03*
X4510000Y2220000I-20000J0D01*
G01*
X4540000Y2270000D02*
G03*
X4540000Y2270000I-20000J0D01*
G01*
X4130000Y1400000D02*
G03*
X4130000Y1400000I-20000J0D01*
G01*
Y1300000D02*
G03*
X4130000Y1300000I-20000J0D01*
G01*
X4690000Y3170000D02*
G03*
X4690000Y3170000I-20000J0D01*
G01*
X4660000Y3120000D02*
G03*
X4660000Y3120000I-20000J0D01*
G01*
X4630000Y3070000D02*
G03*
X4630000Y3070000I-20000J0D01*
G01*
X4600000Y3020000D02*
G03*
X4600000Y3020000I-20000J0D01*
G01*
X4570000Y2970000D02*
G03*
X4570000Y2970000I-20000J0D01*
G01*
X4300000Y3320000D02*
G03*
X4300000Y3320000I-20000J0D01*
G01*
X4270000Y3270000D02*
G03*
X4270000Y3270000I-20000J0D01*
G01*
X4240000Y3220000D02*
G03*
X4240000Y3220000I-20000J0D01*
G01*
X2570000Y860000D02*
G03*
X2570000Y860000I-20000J0D01*
G01*
X2070000Y1900000D02*
G03*
X2070000Y1900000I-20000J0D01*
G01*
X1970000D02*
G03*
X1970000Y1900000I-20000J0D01*
G01*
X1870000D02*
G03*
X1870000Y1900000I-20000J0D01*
G01*
X4870000Y730000D02*
G03*
X4870000Y730000I-20000J0D01*
G01*
X1100000Y3900000D02*
G03*
X1100000Y3900000I-20000J0D01*
G01*
X600000Y3640000D02*
G03*
X600000Y3640000I-20000J0D01*
G01*
X2980000Y3440000D02*
G03*
X2980000Y3440000I-20000J0D01*
G01*
X2920000Y3470000D02*
G03*
X2920000Y3470000I-20000J0D01*
G01*
X1980000Y2192500D02*
G03*
X1980000Y2192500I-20000J0D01*
G01*
X2620000Y1900000D02*
G03*
X2620000Y1900000I-20000J0D01*
G01*
X2520000D02*
G03*
X2520000Y1900000I-20000J0D01*
G01*
X2420000D02*
G03*
X2420000Y1900000I-20000J0D01*
G01*
X2320000D02*
G03*
X2320000Y1900000I-20000J0D01*
G01*
X2220000D02*
G03*
X2220000Y1900000I-20000J0D01*
G01*
X2120000D02*
G03*
X2120000Y1900000I-20000J0D01*
G01*
X2020000D02*
G03*
X2020000Y1900000I-20000J0D01*
G01*
X1920000D02*
G03*
X1920000Y1900000I-20000J0D01*
G01*
X1820000D02*
G03*
X1820000Y1900000I-20000J0D01*
G01*
X1720000D02*
G03*
X1720000Y1900000I-20000J0D01*
G01*
X1620000D02*
G03*
X1620000Y1900000I-20000J0D01*
G01*
X3750000Y2520000D02*
G03*
X3750000Y2520000I-20000J0D01*
G01*
X3780000Y2470000D02*
G03*
X3780000Y2470000I-20000J0D01*
G01*
X2730000Y2490000D02*
G03*
X2730000Y2490000I-20000J0D01*
G01*
X2700000Y2560000D02*
G03*
X2700000Y2560000I-20000J0D01*
G01*
X2670000Y2630000D02*
G03*
X2670000Y2630000I-20000J0D01*
G01*
X2640000Y2700000D02*
G03*
X2640000Y2700000I-20000J0D01*
G01*
X2610000Y2770000D02*
G03*
X2610000Y2770000I-20000J0D01*
G01*
X2580000Y2820000D02*
G03*
X2580000Y2820000I-20000J0D01*
G01*
X2550000Y2870000D02*
G03*
X2550000Y2870000I-20000J0D01*
G01*
X2520000Y2918504D02*
G03*
X2520000Y2918504I-20000J0D01*
G01*
X3810000Y2370000D02*
G03*
X3810000Y2370000I-20000J0D01*
G01*
X3840000Y2418504D02*
G03*
X3840000Y2418504I-20000J0D01*
G01*
X1470000Y3310000D02*
G03*
X1470000Y3310000I-20000J0D01*
G01*
X1370000Y3260000D02*
G03*
X1370000Y3260000I-20000J0D01*
G01*
X880000Y3480000D02*
G03*
X880000Y3480000I-20000J0D01*
G01*
X1280000Y3590000D02*
G03*
X1280000Y3590000I-20000J0D01*
G01*
X1350000D02*
G03*
X1350000Y3590000I-20000J0D01*
G01*
X1220000Y4450000D02*
G03*
X1220000Y4450000I-20000J0D01*
G01*
X920000Y3440000D02*
G03*
X920000Y3440000I-20000J0D01*
G01*
X570000Y4300000D02*
G03*
X570000Y4300000I-20000J0D01*
G01*
X540000Y4200000D02*
G03*
X540000Y4200000I-20000J0D01*
G01*
X1010000Y3370000D02*
G03*
X1010000Y3370000I-20000J0D01*
G01*
X1420000Y3590000D02*
G03*
X1420000Y3590000I-20000J0D01*
G01*
X890000Y4250000D02*
G03*
X890000Y4250000I-20000J0D01*
G01*
X2170000Y5570000D02*
G03*
X2170000Y5570000I-20000J0D01*
G01*
X2120000Y5530000D02*
G03*
X2120000Y5530000I-20000J0D01*
G01*
X2840000Y5380000D02*
G03*
X2840000Y5380000I-20000J0D01*
G01*
X1870000Y5530000D02*
G03*
X1870000Y5530000I-20000J0D01*
G01*
X2840000Y5340000D02*
G03*
X2840000Y5340000I-20000J0D01*
G01*
Y5300000D02*
G03*
X2840000Y5300000I-20000J0D01*
G01*
X1770000Y5410000D02*
G03*
X1770000Y5410000I-20000J0D01*
G01*
X2840000Y5420000D02*
G03*
X2840000Y5420000I-20000J0D01*
G01*
X4470000Y1850000D02*
G03*
X4470000Y1850000I-20000J0D01*
G01*
X4070000Y2270000D02*
G03*
X4070000Y2270000I-20000J0D01*
G01*
X4110000Y2220000D02*
G03*
X4110000Y2220000I-20000J0D01*
G01*
X4150000Y2170000D02*
G03*
X4150000Y2170000I-20000J0D01*
G01*
X4240000Y1960000D02*
G03*
X4240000Y1960000I-20000J0D01*
G01*
X4270000Y1930000D02*
G03*
X4270000Y1930000I-20000J0D01*
G01*
X4300000Y1900000D02*
G03*
X4300000Y1900000I-20000J0D01*
G01*
X3770000Y2320000D02*
G03*
X3770000Y2320000I-20000J0D01*
G01*
X1270000Y1850000D02*
G03*
X1270000Y1850000I-20000J0D01*
G01*
X870000Y2260000D02*
G03*
X870000Y2260000I-20000J0D01*
G01*
X1230000Y700000D02*
G03*
X1230000Y700000I-20000J0D01*
G01*
Y1700000D02*
G03*
X1230000Y1700000I-20000J0D01*
G01*
X1220000Y3350000D02*
G03*
X1220000Y3350000I-20000J0D01*
G01*
X1300000Y3380000D02*
G03*
X1300000Y3380000I-20000J0D01*
G01*
X1400000Y3410000D02*
G03*
X1400000Y3410000I-20000J0D01*
G01*
X5090000Y1990000D02*
G03*
X5090000Y1990000I-20000J0D01*
G01*
X5150000Y2010000D02*
G03*
X5150000Y2010000I-20000J0D01*
G01*
X5120000Y1720000D02*
G03*
X5120000Y1720000I-20000J0D01*
G01*
X5610000Y1350000D02*
G03*
X5610000Y1350000I-20000J0D01*
G01*
Y1220000D02*
G03*
X5610000Y1220000I-20000J0D01*
G01*
X2250000Y4830000D02*
G03*
X2250000Y4830000I-20000J0D01*
G01*
X6040000Y290000D02*
G03*
X6040000Y290000I-20000J0D01*
G01*
X5420000Y1750000D02*
G03*
X5420000Y1750000I-20000J0D01*
G01*
X5720000Y1000000D02*
G03*
X5720000Y1000000I-20000J0D01*
G01*
X6010000Y970000D02*
G03*
X6010000Y970000I-20000J0D01*
G01*
X5750000Y1080000D02*
G03*
X5750000Y1080000I-20000J0D01*
G01*
X5420000Y1110000D02*
G03*
X5420000Y1110000I-20000J0D01*
G01*
X5450000Y1180000D02*
G03*
X5450000Y1180000I-20000J0D01*
G01*
X5060000Y1080000D02*
G03*
X5060000Y1080000I-20000J0D01*
G01*
Y2070236D02*
G03*
X5060000Y2070236I-20000J0D01*
G01*
X6180000Y2070000D02*
G03*
X6180000Y2070000I-20000J0D01*
G01*
X4020000Y3370000D02*
G03*
X4020000Y3370000I-20000J0D01*
G01*
X3210000D02*
G03*
X3210000Y3370000I-20000J0D01*
G01*
X3570000Y1320000D02*
G03*
X3570000Y1320000I-20000J0D01*
G01*
X2740000Y1860000D02*
G03*
X2740000Y1860000I-20000J0D01*
G01*
X4750000Y3370000D02*
G03*
X4750000Y3370000I-20000J0D01*
G01*
X5620000D02*
G03*
X5620000Y3370000I-20000J0D01*
G01*
X5150000Y890000D02*
G03*
X5150000Y890000I-20000J0D01*
G01*
X4200000Y5410000D02*
G03*
X4200000Y5410000I-20000J0D01*
G01*
X4340000D02*
G03*
X4340000Y5410000I-20000J0D01*
G01*
X4560000D02*
G03*
X4560000Y5410000I-20000J0D01*
G01*
X4630000D02*
G03*
X4630000Y5410000I-20000J0D01*
G01*
X2850000Y1920000D02*
G03*
X2850000Y1920000I-20000J0D01*
G01*
X2830000Y1980000D02*
G03*
X2830000Y1980000I-20000J0D01*
G01*
X2810000Y2040000D02*
G03*
X2810000Y2040000I-20000J0D01*
G01*
D89*
X3862000Y900000D02*
G03*
X3862000Y900000I-12000J0D01*
G01*
X1562000Y770000D02*
G03*
X1562000Y770000I-12000J0D01*
G01*
X1492000Y1300000D02*
G03*
X1492000Y1300000I-12000J0D01*
G01*
X2702000Y1370000D02*
G03*
X2702000Y1370000I-12000J0D01*
G01*
Y1330000D02*
G03*
X2702000Y1330000I-12000J0D01*
G01*
Y1290000D02*
G03*
X2702000Y1290000I-12000J0D01*
G01*
Y1250000D02*
G03*
X2702000Y1250000I-12000J0D01*
G01*
Y1210000D02*
G03*
X2702000Y1210000I-12000J0D01*
G01*
X3212000Y1240000D02*
G03*
X3212000Y1240000I-12000J0D01*
G01*
X1822000Y1050000D02*
G03*
X1822000Y1050000I-12000J0D01*
G01*
X1852000Y1090000D02*
G03*
X1852000Y1090000I-12000J0D01*
G01*
X2902000Y200000D02*
G03*
X2902000Y200000I-12000J0D01*
G01*
X1662000Y1120000D02*
G03*
X1662000Y1120000I-12000J0D01*
G01*
X5382000Y3320000D02*
G03*
X5382000Y3320000I-12000J0D01*
G01*
X5352000Y3270000D02*
G03*
X5352000Y3270000I-12000J0D01*
G01*
X5322000Y3220000D02*
G03*
X5322000Y3220000I-12000J0D01*
G01*
X5292000Y3170000D02*
G03*
X5292000Y3170000I-12000J0D01*
G01*
X5262000Y3118504D02*
G03*
X5262000Y3118504I-12000J0D01*
G01*
X5232000Y3070000D02*
G03*
X5232000Y3070000I-12000J0D01*
G01*
X5172000Y2970000D02*
G03*
X5172000Y2970000I-12000J0D01*
G01*
X5202000Y3018504D02*
G03*
X5202000Y3018504I-12000J0D01*
G01*
X4502000Y2220000D02*
G03*
X4502000Y2220000I-12000J0D01*
G01*
X4532000Y2270000D02*
G03*
X4532000Y2270000I-12000J0D01*
G01*
X4122000Y1400000D02*
G03*
X4122000Y1400000I-12000J0D01*
G01*
Y1300000D02*
G03*
X4122000Y1300000I-12000J0D01*
G01*
X4682000Y3170000D02*
G03*
X4682000Y3170000I-12000J0D01*
G01*
X4652000Y3120000D02*
G03*
X4652000Y3120000I-12000J0D01*
G01*
X4622000Y3070000D02*
G03*
X4622000Y3070000I-12000J0D01*
G01*
X4592000Y3020000D02*
G03*
X4592000Y3020000I-12000J0D01*
G01*
X4562000Y2970000D02*
G03*
X4562000Y2970000I-12000J0D01*
G01*
X4292000Y3320000D02*
G03*
X4292000Y3320000I-12000J0D01*
G01*
X4262000Y3270000D02*
G03*
X4262000Y3270000I-12000J0D01*
G01*
X4232000Y3220000D02*
G03*
X4232000Y3220000I-12000J0D01*
G01*
X2562000Y860000D02*
G03*
X2562000Y860000I-12000J0D01*
G01*
X2062000Y1900000D02*
G03*
X2062000Y1900000I-12000J0D01*
G01*
X1962000D02*
G03*
X1962000Y1900000I-12000J0D01*
G01*
X1862000D02*
G03*
X1862000Y1900000I-12000J0D01*
G01*
X4862000Y730000D02*
G03*
X4862000Y730000I-12000J0D01*
G01*
X1092000Y3900000D02*
G03*
X1092000Y3900000I-12000J0D01*
G01*
X592000Y3640000D02*
G03*
X592000Y3640000I-12000J0D01*
G01*
X2972000Y3440000D02*
G03*
X2972000Y3440000I-12000J0D01*
G01*
X2912000Y3470000D02*
G03*
X2912000Y3470000I-12000J0D01*
G01*
X1972000Y2192500D02*
G03*
X1972000Y2192500I-12000J0D01*
G01*
X2612000Y1900000D02*
G03*
X2612000Y1900000I-12000J0D01*
G01*
X2512000D02*
G03*
X2512000Y1900000I-12000J0D01*
G01*
X2412000D02*
G03*
X2412000Y1900000I-12000J0D01*
G01*
X2312000D02*
G03*
X2312000Y1900000I-12000J0D01*
G01*
X2212000D02*
G03*
X2212000Y1900000I-12000J0D01*
G01*
X2112000D02*
G03*
X2112000Y1900000I-12000J0D01*
G01*
X2012000D02*
G03*
X2012000Y1900000I-12000J0D01*
G01*
X1912000D02*
G03*
X1912000Y1900000I-12000J0D01*
G01*
X1812000D02*
G03*
X1812000Y1900000I-12000J0D01*
G01*
X1712000D02*
G03*
X1712000Y1900000I-12000J0D01*
G01*
X1612000D02*
G03*
X1612000Y1900000I-12000J0D01*
G01*
X3742000Y2520000D02*
G03*
X3742000Y2520000I-12000J0D01*
G01*
X3772000Y2470000D02*
G03*
X3772000Y2470000I-12000J0D01*
G01*
X2722000Y2490000D02*
G03*
X2722000Y2490000I-12000J0D01*
G01*
X2692000Y2560000D02*
G03*
X2692000Y2560000I-12000J0D01*
G01*
X2662000Y2630000D02*
G03*
X2662000Y2630000I-12000J0D01*
G01*
X2632000Y2700000D02*
G03*
X2632000Y2700000I-12000J0D01*
G01*
X2602000Y2770000D02*
G03*
X2602000Y2770000I-12000J0D01*
G01*
X2572000Y2820000D02*
G03*
X2572000Y2820000I-12000J0D01*
G01*
X2542000Y2870000D02*
G03*
X2542000Y2870000I-12000J0D01*
G01*
X2512000Y2918504D02*
G03*
X2512000Y2918504I-12000J0D01*
G01*
X3802000Y2370000D02*
G03*
X3802000Y2370000I-12000J0D01*
G01*
X3832000Y2418504D02*
G03*
X3832000Y2418504I-12000J0D01*
G01*
X1462000Y3310000D02*
G03*
X1462000Y3310000I-12000J0D01*
G01*
X1362000Y3260000D02*
G03*
X1362000Y3260000I-12000J0D01*
G01*
X872000Y3480000D02*
G03*
X872000Y3480000I-12000J0D01*
G01*
X1272000Y3590000D02*
G03*
X1272000Y3590000I-12000J0D01*
G01*
X1342000D02*
G03*
X1342000Y3590000I-12000J0D01*
G01*
X1212000Y4450000D02*
G03*
X1212000Y4450000I-12000J0D01*
G01*
X912000Y3440000D02*
G03*
X912000Y3440000I-12000J0D01*
G01*
X562000Y4300000D02*
G03*
X562000Y4300000I-12000J0D01*
G01*
X532000Y4200000D02*
G03*
X532000Y4200000I-12000J0D01*
G01*
X1002000Y3370000D02*
G03*
X1002000Y3370000I-12000J0D01*
G01*
X1412000Y3590000D02*
G03*
X1412000Y3590000I-12000J0D01*
G01*
X882000Y4250000D02*
G03*
X882000Y4250000I-12000J0D01*
G01*
X2162000Y5570000D02*
G03*
X2162000Y5570000I-12000J0D01*
G01*
X2112000Y5530000D02*
G03*
X2112000Y5530000I-12000J0D01*
G01*
X2832000Y5380000D02*
G03*
X2832000Y5380000I-12000J0D01*
G01*
X1862000Y5530000D02*
G03*
X1862000Y5530000I-12000J0D01*
G01*
X2832000Y5340000D02*
G03*
X2832000Y5340000I-12000J0D01*
G01*
Y5300000D02*
G03*
X2832000Y5300000I-12000J0D01*
G01*
X1762000Y5410000D02*
G03*
X1762000Y5410000I-12000J0D01*
G01*
X2832000Y5420000D02*
G03*
X2832000Y5420000I-12000J0D01*
G01*
X4462000Y1850000D02*
G03*
X4462000Y1850000I-12000J0D01*
G01*
X4062000Y2270000D02*
G03*
X4062000Y2270000I-12000J0D01*
G01*
X4102000Y2220000D02*
G03*
X4102000Y2220000I-12000J0D01*
G01*
X4142000Y2170000D02*
G03*
X4142000Y2170000I-12000J0D01*
G01*
X4232000Y1960000D02*
G03*
X4232000Y1960000I-12000J0D01*
G01*
X4262000Y1930000D02*
G03*
X4262000Y1930000I-12000J0D01*
G01*
X4292000Y1900000D02*
G03*
X4292000Y1900000I-12000J0D01*
G01*
X3762000Y2320000D02*
G03*
X3762000Y2320000I-12000J0D01*
G01*
X1262000Y1850000D02*
G03*
X1262000Y1850000I-12000J0D01*
G01*
X862000Y2260000D02*
G03*
X862000Y2260000I-12000J0D01*
G01*
X1222000Y700000D02*
G03*
X1222000Y700000I-12000J0D01*
G01*
Y1700000D02*
G03*
X1222000Y1700000I-12000J0D01*
G01*
X1212000Y3350000D02*
G03*
X1212000Y3350000I-12000J0D01*
G01*
X1292000Y3380000D02*
G03*
X1292000Y3380000I-12000J0D01*
G01*
X1392000Y3410000D02*
G03*
X1392000Y3410000I-12000J0D01*
G01*
X5082000Y1990000D02*
G03*
X5082000Y1990000I-12000J0D01*
G01*
X5142000Y2010000D02*
G03*
X5142000Y2010000I-12000J0D01*
G01*
X5112000Y1720000D02*
G03*
X5112000Y1720000I-12000J0D01*
G01*
X5602000Y1350000D02*
G03*
X5602000Y1350000I-12000J0D01*
G01*
Y1220000D02*
G03*
X5602000Y1220000I-12000J0D01*
G01*
X2242000Y4830000D02*
G03*
X2242000Y4830000I-12000J0D01*
G01*
X6032000Y290000D02*
G03*
X6032000Y290000I-12000J0D01*
G01*
X5412000Y1750000D02*
G03*
X5412000Y1750000I-12000J0D01*
G01*
X5712000Y1000000D02*
G03*
X5712000Y1000000I-12000J0D01*
G01*
X6002000Y970000D02*
G03*
X6002000Y970000I-12000J0D01*
G01*
X5742000Y1080000D02*
G03*
X5742000Y1080000I-12000J0D01*
G01*
X5412000Y1110000D02*
G03*
X5412000Y1110000I-12000J0D01*
G01*
X5442000Y1180000D02*
G03*
X5442000Y1180000I-12000J0D01*
G01*
X5052000Y1080000D02*
G03*
X5052000Y1080000I-12000J0D01*
G01*
Y2070236D02*
G03*
X5052000Y2070236I-12000J0D01*
G01*
X6172000Y2070000D02*
G03*
X6172000Y2070000I-12000J0D01*
G01*
X4012000Y3370000D02*
G03*
X4012000Y3370000I-12000J0D01*
G01*
X3202000D02*
G03*
X3202000Y3370000I-12000J0D01*
G01*
X3562000Y1320000D02*
G03*
X3562000Y1320000I-12000J0D01*
G01*
X2732000Y1860000D02*
G03*
X2732000Y1860000I-12000J0D01*
G01*
X4742000Y3370000D02*
G03*
X4742000Y3370000I-12000J0D01*
G01*
X5612000D02*
G03*
X5612000Y3370000I-12000J0D01*
G01*
X5142000Y890000D02*
G03*
X5142000Y890000I-12000J0D01*
G01*
X4192000Y5410000D02*
G03*
X4192000Y5410000I-12000J0D01*
G01*
X4332000D02*
G03*
X4332000Y5410000I-12000J0D01*
G01*
X4552000D02*
G03*
X4552000Y5410000I-12000J0D01*
G01*
X4622000D02*
G03*
X4622000Y5410000I-12000J0D01*
G01*
X2842000Y1920000D02*
G03*
X2842000Y1920000I-12000J0D01*
G01*
X2822000Y1980000D02*
G03*
X2822000Y1980000I-12000J0D01*
G01*
X2802000Y2040000D02*
G03*
X2802000Y2040000I-12000J0D01*
G01*
%TF.MD5,FEB193C65F50B66E65F09EE9D05C3281*%
M02*
