G04 Layer_Color=128*
%FSLAX26Y26*%
%MOIN*%
%TF.FileFunction,Drillmap*%
%TF.Part,Single*%
G01*
G75*
%TA.AperFunction,NonConductor*%
%ADD87C,0.005000*%
D87*
X195591Y6780630D02*
X234961D01*
X215276Y6760945D02*
Y6800315D01*
X439685Y6780787D02*
X479055D01*
X459370Y6761102D02*
Y6800472D01*
X315315Y6580000D02*
X354685D01*
X335000Y6560315D02*
Y6599685D01*
X269842Y4601929D02*
X398189D01*
X334016Y4537756D02*
Y4666102D01*
X269842Y3618071D02*
X398189D01*
X334016Y3553898D02*
Y3682244D01*
X368465Y3891890D02*
X411378D01*
X389921Y3870433D02*
Y3913346D01*
X256654Y3946417D02*
X299567D01*
X278110Y3924961D02*
Y3967874D01*
X368465Y4000945D02*
X411378D01*
X389921Y3979488D02*
Y4022401D01*
X256654Y4055472D02*
X299567D01*
X278110Y4034016D02*
Y4076929D01*
X368465Y4110000D02*
X411378D01*
X389921Y4088543D02*
Y4131457D01*
X256654Y4164528D02*
X299567D01*
X278110Y4143071D02*
Y4185984D01*
X368465Y4219055D02*
X411378D01*
X389921Y4197598D02*
Y4240512D01*
X256654Y4273583D02*
X299567D01*
X278110Y4252126D02*
Y4295039D01*
X368465Y4328110D02*
X411378D01*
X389921Y4306653D02*
Y4349567D01*
X3653268Y150000D02*
X3686732D01*
X3670000Y133268D02*
Y166732D01*
X4053268Y150000D02*
X4086732D01*
X4070000Y133268D02*
Y166732D01*
X5003268Y150000D02*
X5036732D01*
X5020000Y133268D02*
Y166732D01*
X4603268Y150000D02*
X4636732D01*
X4620000Y133268D02*
Y166732D01*
X5382047Y150000D02*
X5417480D01*
X5399764Y132284D02*
Y167716D01*
X5102520Y150000D02*
X5137953D01*
X5120236Y132284D02*
Y167716D01*
X3653268Y350000D02*
X3686732D01*
X3670000Y333268D02*
Y366732D01*
X4053268Y350000D02*
X4086732D01*
X4070000Y333268D02*
Y366732D01*
X5003268Y350000D02*
X5036732D01*
X5020000Y333268D02*
Y366732D01*
X4603268Y350000D02*
X4636732D01*
X4620000Y333268D02*
Y366732D01*
X3584252Y850000D02*
X3615748D01*
X3600000Y834252D02*
Y865748D01*
X3684252Y850000D02*
X3715748D01*
X3700000Y834252D02*
Y865748D01*
X3448347Y250000D02*
X3491653D01*
X3470000Y228346D02*
Y271654D01*
X3248347Y250000D02*
X3291653D01*
X3270000Y228346D02*
Y271654D01*
X3248347Y150000D02*
X3291653D01*
X3270000Y128346D02*
Y171654D01*
X3448347Y150000D02*
X3491653D01*
X3470000Y128346D02*
Y171654D01*
X4234252Y900000D02*
X4265748D01*
X4250000Y884252D02*
Y915748D01*
X4234252Y800000D02*
X4265748D01*
X4250000Y784252D02*
Y815748D01*
X5503268Y350000D02*
X5536732D01*
X5520000Y333268D02*
Y366732D01*
X5103268Y350000D02*
X5136732D01*
X5120000Y333268D02*
Y366732D01*
X4434252Y800000D02*
X4465748D01*
X4450000Y784252D02*
Y815748D01*
X4434252Y900000D02*
X4465748D01*
X4450000Y884252D02*
Y915748D01*
X1134252Y2200000D02*
X1165748D01*
X1150000Y2184252D02*
Y2215748D01*
X1034252Y2200000D02*
X1065748D01*
X1050000Y2184252D02*
Y2215748D01*
X3334252Y850000D02*
X3365748D01*
X3350000Y834252D02*
Y865748D01*
X3234252Y850000D02*
X3265748D01*
X3250000Y834252D02*
Y865748D01*
X4484252Y5150000D02*
X4515748D01*
X4500000Y5134252D02*
Y5165748D01*
X4384252Y5150000D02*
X4415748D01*
X4400000Y5134252D02*
Y5165748D01*
X2784252Y5150000D02*
X2815748D01*
X2800000Y5134252D02*
Y5165748D01*
X2684252Y5150000D02*
X2715748D01*
X2700000Y5134252D02*
Y5165748D01*
X3634252Y5150000D02*
X3665748D01*
X3650000Y5134252D02*
Y5165748D01*
X3534252Y5150000D02*
X3565748D01*
X3550000Y5134252D02*
Y5165748D01*
X1834252Y2200000D02*
X1865748D01*
X1850000Y2184252D02*
Y2215748D01*
X1734252Y2200000D02*
X1765748D01*
X1750000Y2184252D02*
Y2215748D01*
X4744252Y2080000D02*
X4775748D01*
X4760000Y2064252D02*
Y2095748D01*
X4844252Y2080000D02*
X4875748D01*
X4860000Y2064252D02*
Y2095748D01*
X3934252Y850000D02*
X3965748D01*
X3950000Y834252D02*
Y865748D01*
X4034252Y850000D02*
X4065748D01*
X4050000Y834252D02*
Y865748D01*
X234252Y1350000D02*
X265748D01*
X250000Y1334252D02*
Y1365748D01*
X5334252Y5150000D02*
X5365748D01*
X5350000Y5134252D02*
Y5165748D01*
X5234252Y5150000D02*
X5265748D01*
X5250000Y5134252D02*
Y5165748D01*
X1934252Y3550000D02*
X1965748D01*
X1950000Y3534252D02*
Y3565748D01*
X1834252Y3550000D02*
X1865748D01*
X1850000Y3534252D02*
Y3565748D01*
X4132283Y4900000D02*
X4167717D01*
X4150000Y4882283D02*
Y4917717D01*
X4132283Y4800000D02*
X4167717D01*
X4150000Y4782283D02*
Y4817717D01*
X4132283Y4700000D02*
X4167717D01*
X4150000Y4682283D02*
Y4717717D01*
X4132283Y4600000D02*
X4167717D01*
X4150000Y4582283D02*
Y4617717D01*
X4132283Y4500000D02*
X4167717D01*
X4150000Y4482283D02*
Y4517717D01*
X4132283Y4400000D02*
X4167717D01*
X4150000Y4382283D02*
Y4417717D01*
X4132283Y4300000D02*
X4167717D01*
X4150000Y4282283D02*
Y4317717D01*
X4132283Y4200000D02*
X4167717D01*
X4150000Y4182283D02*
Y4217717D01*
X4132283Y4100000D02*
X4167717D01*
X4150000Y4082284D02*
Y4117717D01*
X4132283Y4000000D02*
X4167717D01*
X4150000Y3982284D02*
Y4017716D01*
X4132283Y3900000D02*
X4167717D01*
X4150000Y3882284D02*
Y3917716D01*
X4132283Y3800000D02*
X4167717D01*
X4150000Y3782284D02*
Y3817716D01*
X4132283Y3700000D02*
X4167717D01*
X4150000Y3682284D02*
Y3717716D01*
X4132283Y3600000D02*
X4167717D01*
X4150000Y3582284D02*
Y3617716D01*
X4732283Y4900000D02*
X4767717D01*
X4750000Y4882283D02*
Y4917717D01*
X4732283Y4800000D02*
X4767717D01*
X4750000Y4782283D02*
Y4817717D01*
X4732283Y4700000D02*
X4767717D01*
X4750000Y4682283D02*
Y4717717D01*
X4732283Y4600000D02*
X4767717D01*
X4750000Y4582283D02*
Y4617717D01*
X4732283Y4500000D02*
X4767717D01*
X4750000Y4482283D02*
Y4517717D01*
X4732283Y4400000D02*
X4767717D01*
X4750000Y4382283D02*
Y4417717D01*
X4732283Y4300000D02*
X4767717D01*
X4750000Y4282283D02*
Y4317717D01*
X4732283Y4200000D02*
X4767717D01*
X4750000Y4182283D02*
Y4217717D01*
X4732283Y4100000D02*
X4767717D01*
X4750000Y4082284D02*
Y4117717D01*
X4732283Y4000000D02*
X4767717D01*
X4750000Y3982284D02*
Y4017716D01*
X4732283Y3900000D02*
X4767717D01*
X4750000Y3882284D02*
Y3917716D01*
X4732283Y3800000D02*
X4767717D01*
X4750000Y3782284D02*
Y3817716D01*
X4732283Y3700000D02*
X4767717D01*
X4750000Y3682284D02*
Y3717716D01*
X4732283Y3600000D02*
X4767717D01*
X4750000Y3582284D02*
Y3617716D01*
X2432284Y4900000D02*
X2467716D01*
X2450000Y4882283D02*
Y4917717D01*
X2432284Y4800000D02*
X2467716D01*
X2450000Y4782283D02*
Y4817717D01*
X2432284Y4700000D02*
X2467716D01*
X2450000Y4682283D02*
Y4717717D01*
X2432284Y4600000D02*
X2467716D01*
X2450000Y4582283D02*
Y4617717D01*
X2432284Y4500000D02*
X2467716D01*
X2450000Y4482283D02*
Y4517717D01*
X2432284Y4400000D02*
X2467716D01*
X2450000Y4382283D02*
Y4417717D01*
X2432284Y4300000D02*
X2467716D01*
X2450000Y4282283D02*
Y4317717D01*
X2432284Y4200000D02*
X2467716D01*
X2450000Y4182283D02*
Y4217717D01*
X2432284Y4100000D02*
X2467716D01*
X2450000Y4082284D02*
Y4117717D01*
X2432284Y4000000D02*
X2467716D01*
X2450000Y3982284D02*
Y4017716D01*
X2432284Y3900000D02*
X2467716D01*
X2450000Y3882284D02*
Y3917716D01*
X2432284Y3800000D02*
X2467716D01*
X2450000Y3782284D02*
Y3817716D01*
X2432284Y3700000D02*
X2467716D01*
X2450000Y3682284D02*
Y3717716D01*
X2432284Y3600000D02*
X2467716D01*
X2450000Y3582284D02*
Y3617716D01*
X3032284Y4900000D02*
X3067716D01*
X3050000Y4882283D02*
Y4917717D01*
X3032284Y4800000D02*
X3067716D01*
X3050000Y4782283D02*
Y4817717D01*
X3032284Y4700000D02*
X3067716D01*
X3050000Y4682283D02*
Y4717717D01*
X3032284Y4600000D02*
X3067716D01*
X3050000Y4582283D02*
Y4617717D01*
X3032284Y4500000D02*
X3067716D01*
X3050000Y4482283D02*
Y4517717D01*
X3032284Y4400000D02*
X3067716D01*
X3050000Y4382283D02*
Y4417717D01*
X3032284Y4300000D02*
X3067716D01*
X3050000Y4282283D02*
Y4317717D01*
X3032284Y4200000D02*
X3067716D01*
X3050000Y4182283D02*
Y4217717D01*
X3032284Y4100000D02*
X3067716D01*
X3050000Y4082284D02*
Y4117717D01*
X3032284Y4000000D02*
X3067716D01*
X3050000Y3982284D02*
Y4017716D01*
X3032284Y3900000D02*
X3067716D01*
X3050000Y3882284D02*
Y3917716D01*
X3032284Y3800000D02*
X3067716D01*
X3050000Y3782284D02*
Y3817716D01*
X3032284Y3700000D02*
X3067716D01*
X3050000Y3682284D02*
Y3717716D01*
X3032284Y3600000D02*
X3067716D01*
X3050000Y3582284D02*
Y3617716D01*
X1384252Y2600000D02*
X1415748D01*
X1400000Y2584252D02*
Y2615748D01*
X1484252Y2500000D02*
X1515748D01*
X1500000Y2484252D02*
Y2515748D01*
X1484252Y2600000D02*
X1515748D01*
X1500000Y2584252D02*
Y2615748D01*
X1584252Y2500000D02*
X1615748D01*
X1600000Y2484252D02*
Y2515748D01*
X1584252Y2600000D02*
X1615748D01*
X1600000Y2584252D02*
Y2615748D01*
X1684252Y2500000D02*
X1715748D01*
X1700000Y2484252D02*
Y2515748D01*
X1784252Y2600000D02*
X1815748D01*
X1800000Y2584252D02*
Y2615748D01*
X1684252Y2600000D02*
X1715748D01*
X1700000Y2584252D02*
Y2615748D01*
X1784252Y2700000D02*
X1815748D01*
X1800000Y2684252D02*
Y2715748D01*
X1684252Y2700000D02*
X1715748D01*
X1700000Y2684252D02*
Y2715748D01*
X1784252Y2800000D02*
X1815748D01*
X1800000Y2784252D02*
Y2815748D01*
X1684252Y2800000D02*
X1715748D01*
X1700000Y2784252D02*
Y2815748D01*
X1784252Y2900000D02*
X1815748D01*
X1800000Y2884252D02*
Y2915748D01*
X1684252Y2900000D02*
X1715748D01*
X1700000Y2884252D02*
Y2915748D01*
X1784252Y3000000D02*
X1815748D01*
X1800000Y2984252D02*
Y3015748D01*
X1684252Y3000000D02*
X1715748D01*
X1700000Y2984252D02*
Y3015748D01*
X1784252Y3100000D02*
X1815748D01*
X1800000Y3084252D02*
Y3115748D01*
X1684252Y3200000D02*
X1715748D01*
X1700000Y3184252D02*
Y3215748D01*
X1684252Y3100000D02*
X1715748D01*
X1700000Y3084252D02*
Y3115748D01*
X1584252Y3200000D02*
X1615748D01*
X1600000Y3184252D02*
Y3215748D01*
X1584252Y3100000D02*
X1615748D01*
X1600000Y3084252D02*
Y3115748D01*
X1484252Y3200000D02*
X1515748D01*
X1500000Y3184252D02*
Y3215748D01*
X1484252Y3100000D02*
X1515748D01*
X1500000Y3084252D02*
Y3115748D01*
X1384252Y3200000D02*
X1415748D01*
X1400000Y3184252D02*
Y3215748D01*
X1384252Y3100000D02*
X1415748D01*
X1400000Y3084252D02*
Y3115748D01*
X1184252Y3000000D02*
X1215748D01*
X1200000Y2984252D02*
Y3015748D01*
X1184252Y2900000D02*
X1215748D01*
X1200000Y2884252D02*
Y2915748D01*
X1184252Y3100000D02*
X1215748D01*
X1200000Y3084252D02*
Y3115748D01*
X1284252Y3200000D02*
X1315748D01*
X1300000Y3184252D02*
Y3215748D01*
X1284252Y3100000D02*
X1315748D01*
X1300000Y3084252D02*
Y3115748D01*
X1184252Y3200000D02*
X1215748D01*
X1200000Y3184252D02*
Y3215748D01*
X1284252Y2600000D02*
X1315748D01*
X1300000Y2584252D02*
Y2615748D01*
X1084252Y3100000D02*
X1115748D01*
X1100000Y3084252D02*
Y3115748D01*
X1284252Y2500000D02*
X1315748D01*
X1300000Y2484252D02*
Y2515748D01*
X1084252Y3000000D02*
X1115748D01*
X1100000Y2984252D02*
Y3015748D01*
X1084252Y2900000D02*
X1115748D01*
X1100000Y2884252D02*
Y2915748D01*
X1184252Y2800000D02*
X1215748D01*
X1200000Y2784252D02*
Y2815748D01*
X1184252Y2700000D02*
X1215748D01*
X1200000Y2684252D02*
Y2715748D01*
X1084252Y2800000D02*
X1115748D01*
X1100000Y2784252D02*
Y2815748D01*
X1184252Y2600000D02*
X1215748D01*
X1200000Y2584252D02*
Y2615748D01*
X1084252Y2700000D02*
X1115748D01*
X1100000Y2684252D02*
Y2715748D01*
X1084252Y2600000D02*
X1115748D01*
X1100000Y2584252D02*
Y2615748D01*
X1184252Y2500000D02*
X1215748D01*
X1200000Y2484252D02*
Y2515748D01*
X1384252Y2500000D02*
X1415748D01*
X1400000Y2484252D02*
Y2515748D01*
X1314252Y5220000D02*
X1345748D01*
X1330000Y5204252D02*
Y5235748D01*
X1614252Y5220000D02*
X1645748D01*
X1630000Y5204252D02*
Y5235748D01*
X764252Y5220000D02*
X795748D01*
X780000Y5204252D02*
Y5235748D01*
X1064252Y5220000D02*
X1095748D01*
X1080000Y5204252D02*
Y5235748D01*
X4982283Y4900000D02*
X5017717D01*
X5000000Y4882283D02*
Y4917717D01*
X4982283Y4800000D02*
X5017717D01*
X5000000Y4782283D02*
Y4817717D01*
X4982283Y4700000D02*
X5017717D01*
X5000000Y4682283D02*
Y4717717D01*
X4982283Y4600000D02*
X5017717D01*
X5000000Y4582283D02*
Y4617717D01*
X4982283Y4500000D02*
X5017717D01*
X5000000Y4482283D02*
Y4517717D01*
X4982283Y4400000D02*
X5017717D01*
X5000000Y4382283D02*
Y4417717D01*
X4982283Y4300000D02*
X5017717D01*
X5000000Y4282283D02*
Y4317717D01*
X4982283Y4200000D02*
X5017717D01*
X5000000Y4182283D02*
Y4217717D01*
X4982283Y4100000D02*
X5017717D01*
X5000000Y4082284D02*
Y4117717D01*
X4982283Y4000000D02*
X5017717D01*
X5000000Y3982284D02*
Y4017716D01*
X4982283Y3900000D02*
X5017717D01*
X5000000Y3882284D02*
Y3917716D01*
X4982283Y3800000D02*
X5017717D01*
X5000000Y3782284D02*
Y3817716D01*
X4982283Y3700000D02*
X5017717D01*
X5000000Y3682284D02*
Y3717716D01*
X4982283Y3600000D02*
X5017717D01*
X5000000Y3582284D02*
Y3617716D01*
X5582283Y4900000D02*
X5617717D01*
X5600000Y4882283D02*
Y4917717D01*
X5582283Y4800000D02*
X5617717D01*
X5600000Y4782283D02*
Y4817717D01*
X5582283Y4700000D02*
X5617717D01*
X5600000Y4682283D02*
Y4717717D01*
X5582283Y4600000D02*
X5617717D01*
X5600000Y4582283D02*
Y4617717D01*
X5582283Y4500000D02*
X5617717D01*
X5600000Y4482283D02*
Y4517717D01*
X5582283Y4400000D02*
X5617717D01*
X5600000Y4382283D02*
Y4417717D01*
X5582283Y4300000D02*
X5617717D01*
X5600000Y4282283D02*
Y4317717D01*
X5582283Y4200000D02*
X5617717D01*
X5600000Y4182283D02*
Y4217717D01*
X5582283Y4100000D02*
X5617717D01*
X5600000Y4082284D02*
Y4117717D01*
X5582283Y4000000D02*
X5617717D01*
X5600000Y3982284D02*
Y4017716D01*
X5582283Y3900000D02*
X5617717D01*
X5600000Y3882284D02*
Y3917716D01*
X5582283Y3800000D02*
X5617717D01*
X5600000Y3782284D02*
Y3817716D01*
X5582283Y3700000D02*
X5617717D01*
X5600000Y3682284D02*
Y3717716D01*
X5582283Y3600000D02*
X5617717D01*
X5600000Y3582284D02*
Y3617716D01*
X504252Y5220000D02*
X535748D01*
X520000Y5204252D02*
Y5235748D01*
X204252Y5220000D02*
X235748D01*
X220000Y5204252D02*
Y5235748D01*
X204252Y4930000D02*
X235748D01*
X220000Y4914252D02*
Y4945748D01*
X504252Y4930000D02*
X535748D01*
X520000Y4914252D02*
Y4945748D01*
X684252Y4450000D02*
X715748D01*
X700000Y4434252D02*
Y4465748D01*
X684252Y4550000D02*
X715748D01*
X700000Y4534252D02*
Y4565748D01*
X684252Y4650000D02*
X715748D01*
X700000Y4634252D02*
Y4665748D01*
X334252Y2700000D02*
X365748D01*
X350000Y2684252D02*
Y2715748D01*
X234252Y2700000D02*
X265748D01*
X250000Y2684252D02*
Y2715748D01*
X334252Y2800000D02*
X365748D01*
X350000Y2784252D02*
Y2815748D01*
X234252Y2800000D02*
X265748D01*
X250000Y2784252D02*
Y2815748D01*
X334252Y2900000D02*
X365748D01*
X350000Y2884252D02*
Y2915748D01*
X234252Y2900000D02*
X265748D01*
X250000Y2884252D02*
Y2915748D01*
X334252Y3000000D02*
X365748D01*
X350000Y2984252D02*
Y3015748D01*
X234252Y3000000D02*
X265748D01*
X250000Y2984252D02*
Y3015748D01*
X334252Y3100000D02*
X365748D01*
X350000Y3084252D02*
Y3115748D01*
X234252Y3100000D02*
X265748D01*
X250000Y3084252D02*
Y3115748D01*
X2582284Y800000D02*
X2617716D01*
X2600000Y782284D02*
Y817716D01*
X2482284Y800000D02*
X2517716D01*
X2500000Y782284D02*
Y817716D01*
X2382284Y800000D02*
X2417716D01*
X2400000Y782284D02*
Y817716D01*
X2282284Y800000D02*
X2317716D01*
X2300000Y782284D02*
Y817716D01*
X2182284Y800000D02*
X2217716D01*
X2200000Y782284D02*
Y817716D01*
X2082284Y800000D02*
X2117716D01*
X2100000Y782284D02*
Y817716D01*
X1982284Y800000D02*
X2017716D01*
X2000000Y782284D02*
Y817716D01*
X1882284Y800000D02*
X1917716D01*
X1900000Y782284D02*
Y817716D01*
X1782284Y800000D02*
X1817716D01*
X1800000Y782284D02*
Y817716D01*
X1682284Y800000D02*
X1717716D01*
X1700000Y782284D02*
Y817716D01*
X1582284Y800000D02*
X1617716D01*
X1600000Y782284D02*
Y817716D01*
X1482284Y800000D02*
X1517716D01*
X1500000Y782284D02*
Y817716D01*
X1382284Y800000D02*
X1417716D01*
X1400000Y782284D02*
Y817716D01*
X1282284Y800000D02*
X1317716D01*
X1300000Y782284D02*
Y817716D01*
X1182284Y800000D02*
X1217716D01*
X1200000Y782284D02*
Y817716D01*
X1082284Y800000D02*
X1117716D01*
X1100000Y782284D02*
Y817716D01*
X982284Y800000D02*
X1017716D01*
X1000000Y782284D02*
Y817716D01*
X882284Y800000D02*
X917716D01*
X900000Y782284D02*
Y817716D01*
X782284Y800000D02*
X817716D01*
X800000Y782284D02*
Y817716D01*
X682284Y800000D02*
X717716D01*
X700000Y782284D02*
Y817716D01*
X2582284Y200000D02*
X2617716D01*
X2600000Y182284D02*
Y217716D01*
X2482284Y200000D02*
X2517716D01*
X2500000Y182284D02*
Y217716D01*
X2382284Y200000D02*
X2417716D01*
X2400000Y182284D02*
Y217716D01*
X2282284Y200000D02*
X2317716D01*
X2300000Y182284D02*
Y217716D01*
X2182284Y200000D02*
X2217716D01*
X2200000Y182284D02*
Y217716D01*
X2082284Y200000D02*
X2117716D01*
X2100000Y182284D02*
Y217716D01*
X1982284Y200000D02*
X2017716D01*
X2000000Y182284D02*
Y217716D01*
X1882284Y200000D02*
X1917716D01*
X1900000Y182284D02*
Y217716D01*
X1782284Y200000D02*
X1817716D01*
X1800000Y182284D02*
Y217716D01*
X1682284Y200000D02*
X1717716D01*
X1700000Y182284D02*
Y217716D01*
X1582284Y200000D02*
X1617716D01*
X1600000Y182284D02*
Y217716D01*
X1482284Y200000D02*
X1517716D01*
X1500000Y182284D02*
Y217716D01*
X1382284Y200000D02*
X1417716D01*
X1400000Y182284D02*
Y217716D01*
X1282284Y200000D02*
X1317716D01*
X1300000Y182284D02*
Y217716D01*
X1182284Y200000D02*
X1217716D01*
X1200000Y182284D02*
Y217716D01*
X1082284Y200000D02*
X1117716D01*
X1100000Y182284D02*
Y217716D01*
X982284Y200000D02*
X1017716D01*
X1000000Y182284D02*
Y217716D01*
X882284Y200000D02*
X917716D01*
X900000Y182284D02*
Y217716D01*
X782284Y200000D02*
X817716D01*
X800000Y182284D02*
Y217716D01*
X682284Y200000D02*
X717716D01*
X700000Y182284D02*
Y217716D01*
X234252Y2150000D02*
X265748D01*
X250000Y2134252D02*
Y2165748D01*
X334252Y2150000D02*
X365748D01*
X350000Y2134252D02*
Y2165748D01*
X234252Y2050000D02*
X265748D01*
X250000Y2034252D02*
Y2065748D01*
X334252Y2050000D02*
X365748D01*
X350000Y2034252D02*
Y2065748D01*
X234252Y1950000D02*
X265748D01*
X250000Y1934252D02*
Y1965748D01*
X334252Y1950000D02*
X365748D01*
X350000Y1934252D02*
Y1965748D01*
X234252Y1850000D02*
X265748D01*
X250000Y1834252D02*
Y1865748D01*
X334252Y1850000D02*
X365748D01*
X350000Y1834252D02*
Y1865748D01*
X234252Y1750000D02*
X265748D01*
X250000Y1734252D02*
Y1765748D01*
X334252Y1750000D02*
X365748D01*
X350000Y1734252D02*
Y1765748D01*
X234252Y950000D02*
X265748D01*
X250000Y934252D02*
Y965748D01*
X334252Y950000D02*
X365748D01*
X350000Y934252D02*
Y965748D01*
X234252Y850000D02*
X265748D01*
X250000Y834252D02*
Y865748D01*
X334252Y850000D02*
X365748D01*
X350000Y834252D02*
Y865748D01*
X234252Y750000D02*
X265748D01*
X250000Y734252D02*
Y765748D01*
X334252Y750000D02*
X365748D01*
X350000Y734252D02*
Y765748D01*
X234252Y650000D02*
X265748D01*
X250000Y634252D02*
Y665748D01*
X334252Y650000D02*
X365748D01*
X350000Y634252D02*
Y665748D01*
X234252Y550000D02*
X265748D01*
X250000Y534252D02*
Y565748D01*
X334252Y550000D02*
X365748D01*
X350000Y534252D02*
Y565748D01*
X6082283Y5640000D02*
X6117717D01*
X6100000Y5622283D02*
Y5657717D01*
X6082283Y5740000D02*
X6117717D01*
X6100000Y5722283D02*
Y5757717D01*
X6082283Y5840000D02*
X6117717D01*
X6100000Y5822283D02*
Y5857717D01*
X6082283Y5940000D02*
X6117717D01*
X6100000Y5922283D02*
Y5957717D01*
X6082283Y6040000D02*
X6117717D01*
X6100000Y6022283D02*
Y6057717D01*
X6082283Y6140000D02*
X6117717D01*
X6100000Y6122283D02*
Y6157717D01*
X6082283Y6240000D02*
X6117717D01*
X6100000Y6222283D02*
Y6257717D01*
X6082283Y6340000D02*
X6117717D01*
X6100000Y6322283D02*
Y6357717D01*
X5782283Y5640000D02*
X5817717D01*
X5800000Y5622283D02*
Y5657717D01*
X5782283Y5740000D02*
X5817717D01*
X5800000Y5722283D02*
Y5757717D01*
X5782283Y5840000D02*
X5817717D01*
X5800000Y5822283D02*
Y5857717D01*
X5782283Y5940000D02*
X5817717D01*
X5800000Y5922283D02*
Y5957717D01*
X5782283Y6040000D02*
X5817717D01*
X5800000Y6022283D02*
Y6057717D01*
X5782283Y6140000D02*
X5817717D01*
X5800000Y6122283D02*
Y6157717D01*
X5782283Y6240000D02*
X5817717D01*
X5800000Y6222283D02*
Y6257717D01*
X5782283Y6340000D02*
X5817717D01*
X5800000Y6322283D02*
Y6357717D01*
X5232283Y5730000D02*
X5267717D01*
X5250000Y5712283D02*
Y5747717D01*
X5332283Y5730000D02*
X5367717D01*
X5350000Y5712283D02*
Y5747717D01*
X5432283Y5730000D02*
X5467717D01*
X5450000Y5712283D02*
Y5747717D01*
X5532283Y5730000D02*
X5567717D01*
X5550000Y5712283D02*
Y5747717D01*
X5632283Y5730000D02*
X5667717D01*
X5650000Y5712283D02*
Y5747717D01*
X5232283Y6330000D02*
X5267717D01*
X5250000Y6312283D02*
Y6347717D01*
X5332283Y6330000D02*
X5367717D01*
X5350000Y6312283D02*
Y6347717D01*
X5432283Y6330000D02*
X5467717D01*
X5450000Y6312283D02*
Y6347717D01*
X5532283Y6330000D02*
X5567717D01*
X5550000Y6312283D02*
Y6347717D01*
X5632283Y6330000D02*
X5667717D01*
X5650000Y6312283D02*
Y6347717D01*
X4524045Y5640000D02*
X4559478D01*
X4541762Y5622283D02*
Y5657717D01*
X4524045Y5740000D02*
X4559478D01*
X4541762Y5722283D02*
Y5757717D01*
X4524045Y5840000D02*
X4559478D01*
X4541762Y5822283D02*
Y5857717D01*
X4524045Y5940000D02*
X4559478D01*
X4541762Y5922283D02*
Y5957717D01*
X4524045Y6040000D02*
X4559478D01*
X4541762Y6022283D02*
Y6057717D01*
X4524045Y6140000D02*
X4559478D01*
X4541762Y6122283D02*
Y6157717D01*
X4524045Y6240000D02*
X4559478D01*
X4541762Y6222283D02*
Y6257717D01*
X4524045Y6340000D02*
X4559478D01*
X4541762Y6322283D02*
Y6357717D01*
X4224045Y5640000D02*
X4259478D01*
X4241762Y5622283D02*
Y5657717D01*
X4224045Y5740000D02*
X4259478D01*
X4241762Y5722283D02*
Y5757717D01*
X4224045Y5840000D02*
X4259478D01*
X4241762Y5822283D02*
Y5857717D01*
X4224045Y5940000D02*
X4259478D01*
X4241762Y5922283D02*
Y5957717D01*
X4224045Y6040000D02*
X4259478D01*
X4241762Y6022283D02*
Y6057717D01*
X4224045Y6140000D02*
X4259478D01*
X4241762Y6122283D02*
Y6157717D01*
X4224045Y6240000D02*
X4259478D01*
X4241762Y6222283D02*
Y6257717D01*
X4224045Y6340000D02*
X4259478D01*
X4241762Y6322283D02*
Y6357717D01*
X4682283Y5730000D02*
X4717717D01*
X4700000Y5712283D02*
Y5747717D01*
X4782283Y5730000D02*
X4817717D01*
X4800000Y5712283D02*
Y5747717D01*
X4882283Y5730000D02*
X4917717D01*
X4900000Y5712283D02*
Y5747717D01*
X4982283Y5730000D02*
X5017717D01*
X5000000Y5712283D02*
Y5747717D01*
X5082283Y5730000D02*
X5117717D01*
X5100000Y5712283D02*
Y5747717D01*
X4682283Y6330000D02*
X4717717D01*
X4700000Y6312283D02*
Y6347717D01*
X4782283Y6330000D02*
X4817717D01*
X4800000Y6312283D02*
Y6347717D01*
X4882283Y6330000D02*
X4917717D01*
X4900000Y6312283D02*
Y6347717D01*
X4982283Y6330000D02*
X5017717D01*
X5000000Y6312283D02*
Y6347717D01*
X5082283Y6330000D02*
X5117717D01*
X5100000Y6312283D02*
Y6347717D01*
X2082284Y5640000D02*
X2117716D01*
X2100000Y5622283D02*
Y5657717D01*
X2082284Y5740000D02*
X2117716D01*
X2100000Y5722283D02*
Y5757717D01*
X2082284Y5840000D02*
X2117716D01*
X2100000Y5822283D02*
Y5857717D01*
X2082284Y5940000D02*
X2117716D01*
X2100000Y5922283D02*
Y5957717D01*
X2082284Y6040000D02*
X2117716D01*
X2100000Y6022283D02*
Y6057717D01*
X2082284Y6140000D02*
X2117716D01*
X2100000Y6122283D02*
Y6157717D01*
X2082284Y6240000D02*
X2117716D01*
X2100000Y6222283D02*
Y6257717D01*
X2082284Y6340000D02*
X2117716D01*
X2100000Y6322283D02*
Y6357717D01*
X1782284Y5640000D02*
X1817716D01*
X1800000Y5622283D02*
Y5657717D01*
X1782284Y5740000D02*
X1817716D01*
X1800000Y5722283D02*
Y5757717D01*
X1782284Y5840000D02*
X1817716D01*
X1800000Y5822283D02*
Y5857717D01*
X1782284Y5940000D02*
X1817716D01*
X1800000Y5922283D02*
Y5957717D01*
X1782284Y6040000D02*
X1817716D01*
X1800000Y6022283D02*
Y6057717D01*
X1782284Y6140000D02*
X1817716D01*
X1800000Y6122283D02*
Y6157717D01*
X1782284Y6240000D02*
X1817716D01*
X1800000Y6222283D02*
Y6257717D01*
X1782284Y6340000D02*
X1817716D01*
X1800000Y6322283D02*
Y6357717D01*
X1232284Y5730000D02*
X1267716D01*
X1250000Y5712283D02*
Y5747717D01*
X1332284Y5730000D02*
X1367716D01*
X1350000Y5712283D02*
Y5747717D01*
X1432284Y5730000D02*
X1467716D01*
X1450000Y5712283D02*
Y5747717D01*
X1532284Y5730000D02*
X1567716D01*
X1550000Y5712283D02*
Y5747717D01*
X1632284Y5730000D02*
X1667716D01*
X1650000Y5712283D02*
Y5747717D01*
X1232284Y6330000D02*
X1267716D01*
X1250000Y6312283D02*
Y6347717D01*
X1332284Y6330000D02*
X1367716D01*
X1350000Y6312283D02*
Y6347717D01*
X1432284Y6330000D02*
X1467716D01*
X1450000Y6312283D02*
Y6347717D01*
X1532284Y6330000D02*
X1567716D01*
X1550000Y6312283D02*
Y6347717D01*
X1632284Y6330000D02*
X1667716D01*
X1650000Y6312283D02*
Y6347717D01*
X532284Y5640000D02*
X567716D01*
X550000Y5622283D02*
Y5657717D01*
X532284Y5740000D02*
X567716D01*
X550000Y5722283D02*
Y5757717D01*
X532284Y5840000D02*
X567716D01*
X550000Y5822283D02*
Y5857717D01*
X532284Y5940000D02*
X567716D01*
X550000Y5922283D02*
Y5957717D01*
X532284Y6040000D02*
X567716D01*
X550000Y6022283D02*
Y6057717D01*
X532284Y6140000D02*
X567716D01*
X550000Y6122283D02*
Y6157717D01*
X532284Y6240000D02*
X567716D01*
X550000Y6222283D02*
Y6257717D01*
X532284Y6340000D02*
X567716D01*
X550000Y6322283D02*
Y6357717D01*
X232284Y5640000D02*
X267716D01*
X250000Y5622283D02*
Y5657717D01*
X232284Y5740000D02*
X267716D01*
X250000Y5722283D02*
Y5757717D01*
X232284Y5840000D02*
X267716D01*
X250000Y5822283D02*
Y5857717D01*
X232284Y5940000D02*
X267716D01*
X250000Y5922283D02*
Y5957717D01*
X232284Y6040000D02*
X267716D01*
X250000Y6022283D02*
Y6057717D01*
X232284Y6140000D02*
X267716D01*
X250000Y6122283D02*
Y6157717D01*
X232284Y6240000D02*
X267716D01*
X250000Y6222283D02*
Y6257717D01*
X232284Y6340000D02*
X267716D01*
X250000Y6322283D02*
Y6357717D01*
X682284Y5730000D02*
X717716D01*
X700000Y5712283D02*
Y5747717D01*
X782284Y5730000D02*
X817716D01*
X800000Y5712283D02*
Y5747717D01*
X882284Y5730000D02*
X917716D01*
X900000Y5712283D02*
Y5747717D01*
X982284Y5730000D02*
X1017716D01*
X1000000Y5712283D02*
Y5747717D01*
X1082284Y5730000D02*
X1117716D01*
X1100000Y5712283D02*
Y5747717D01*
X682284Y6330000D02*
X717716D01*
X700000Y6312283D02*
Y6347717D01*
X782284Y6330000D02*
X817716D01*
X800000Y6312283D02*
Y6347717D01*
X882284Y6330000D02*
X917716D01*
X900000Y6312283D02*
Y6347717D01*
X982284Y6330000D02*
X1017716D01*
X1000000Y6312283D02*
Y6347717D01*
X1082284Y6330000D02*
X1117716D01*
X1100000Y6312283D02*
Y6347717D01*
X1834252Y4800000D02*
X1865748D01*
X1850000Y4784252D02*
Y4815748D01*
X1934252Y4800000D02*
X1965748D01*
X1950000Y4784252D02*
Y4815748D01*
X2083268Y4000000D02*
X2116732D01*
X2100000Y3983268D02*
Y4016732D01*
X1683268Y4000000D02*
X1716732D01*
X1700000Y3983268D02*
Y4016732D01*
X1984252Y4550000D02*
X2015748D01*
X2000000Y4534252D02*
Y4565748D01*
X1784252Y4550000D02*
X1815748D01*
X1800000Y4534252D02*
Y4565748D01*
X3232284Y5730000D02*
X3267716D01*
X3250000Y5712283D02*
Y5747717D01*
X3332284Y5730000D02*
X3367716D01*
X3350000Y5712283D02*
Y5747717D01*
X3432284Y5730000D02*
X3467716D01*
X3450000Y5712283D02*
Y5747717D01*
X3532284Y5730000D02*
X3567716D01*
X3550000Y5712283D02*
Y5747717D01*
X3632284Y5730000D02*
X3667716D01*
X3650000Y5712283D02*
Y5747717D01*
X3232284Y6330000D02*
X3267716D01*
X3250000Y6312283D02*
Y6347717D01*
X3332284Y6330000D02*
X3367716D01*
X3350000Y6312283D02*
Y6347717D01*
X3432284Y6330000D02*
X3467716D01*
X3450000Y6312283D02*
Y6347717D01*
X3532284Y6330000D02*
X3567716D01*
X3550000Y6312283D02*
Y6347717D01*
X3632284Y6330000D02*
X3667716D01*
X3650000Y6312283D02*
Y6347717D01*
X4082284Y5640000D02*
X4117717D01*
X4100000Y5622283D02*
Y5657717D01*
X4082284Y5740000D02*
X4117717D01*
X4100000Y5722283D02*
Y5757717D01*
X4082284Y5840000D02*
X4117717D01*
X4100000Y5822283D02*
Y5857717D01*
X4082284Y5940000D02*
X4117717D01*
X4100000Y5922283D02*
Y5957717D01*
X4082284Y6040000D02*
X4117717D01*
X4100000Y6022283D02*
Y6057717D01*
X4082284Y6140000D02*
X4117717D01*
X4100000Y6122283D02*
Y6157717D01*
X4082284Y6240000D02*
X4117717D01*
X4100000Y6222283D02*
Y6257717D01*
X4082284Y6340000D02*
X4117717D01*
X4100000Y6322283D02*
Y6357717D01*
X3782284Y5640000D02*
X3817716D01*
X3800000Y5622283D02*
Y5657717D01*
X3782284Y5740000D02*
X3817716D01*
X3800000Y5722283D02*
Y5757717D01*
X3782284Y5840000D02*
X3817716D01*
X3800000Y5822283D02*
Y5857717D01*
X3782284Y5940000D02*
X3817716D01*
X3800000Y5922283D02*
Y5957717D01*
X3782284Y6040000D02*
X3817716D01*
X3800000Y6022283D02*
Y6057717D01*
X3782284Y6140000D02*
X3817716D01*
X3800000Y6122283D02*
Y6157717D01*
X3782284Y6240000D02*
X3817716D01*
X3800000Y6222283D02*
Y6257717D01*
X3782284Y6340000D02*
X3817716D01*
X3800000Y6322283D02*
Y6357717D01*
X4384252Y1300000D02*
X4415748D01*
X4400000Y1284252D02*
Y1315748D01*
X4284252Y1300000D02*
X4315748D01*
X4300000Y1284252D02*
Y1315748D01*
X4384252Y1400000D02*
X4415748D01*
X4400000Y1384252D02*
Y1415748D01*
X4284252Y1400000D02*
X4315748D01*
X4300000Y1384252D02*
Y1415748D01*
X4384252Y1500000D02*
X4415748D01*
X4400000Y1484252D02*
Y1515748D01*
X4284252Y1500000D02*
X4315748D01*
X4300000Y1484252D02*
Y1515748D01*
X4384252Y1600000D02*
X4415748D01*
X4400000Y1584252D02*
Y1615748D01*
X4284252Y1600000D02*
X4315748D01*
X4300000Y1584252D02*
Y1615748D01*
X4384252Y1700000D02*
X4415748D01*
X4400000Y1684252D02*
Y1715748D01*
X4284252Y1700000D02*
X4315748D01*
X4300000Y1684252D02*
Y1715748D01*
X2532284Y5640000D02*
X2567716D01*
X2550000Y5622283D02*
Y5657717D01*
X2532284Y5740000D02*
X2567716D01*
X2550000Y5722283D02*
Y5757717D01*
X2532284Y5840000D02*
X2567716D01*
X2550000Y5822283D02*
Y5857717D01*
X2532284Y5940000D02*
X2567716D01*
X2550000Y5922283D02*
Y5957717D01*
X2532284Y6040000D02*
X2567716D01*
X2550000Y6022283D02*
Y6057717D01*
X2532284Y6140000D02*
X2567716D01*
X2550000Y6122283D02*
Y6157717D01*
X2532284Y6240000D02*
X2567716D01*
X2550000Y6222283D02*
Y6257717D01*
X2532284Y6340000D02*
X2567716D01*
X2550000Y6322283D02*
Y6357717D01*
X2232284Y5640000D02*
X2267716D01*
X2250000Y5622283D02*
Y5657717D01*
X2232284Y5740000D02*
X2267716D01*
X2250000Y5722283D02*
Y5757717D01*
X2232284Y5840000D02*
X2267716D01*
X2250000Y5822283D02*
Y5857717D01*
X2232284Y5940000D02*
X2267716D01*
X2250000Y5922283D02*
Y5957717D01*
X2232284Y6040000D02*
X2267716D01*
X2250000Y6022283D02*
Y6057717D01*
X2232284Y6140000D02*
X2267716D01*
X2250000Y6122283D02*
Y6157717D01*
X2232284Y6240000D02*
X2267716D01*
X2250000Y6222283D02*
Y6257717D01*
X2232284Y6340000D02*
X2267716D01*
X2250000Y6322283D02*
Y6357717D01*
X2682284Y5730000D02*
X2717716D01*
X2700000Y5712283D02*
Y5747717D01*
X2782284Y5730000D02*
X2817716D01*
X2800000Y5712283D02*
Y5747717D01*
X2882284Y5730000D02*
X2917716D01*
X2900000Y5712283D02*
Y5747717D01*
X2982284Y5730000D02*
X3017716D01*
X3000000Y5712283D02*
Y5747717D01*
X3082284Y5730000D02*
X3117716D01*
X3100000Y5712283D02*
Y5747717D01*
X2682284Y6330000D02*
X2717716D01*
X2700000Y6312283D02*
Y6347717D01*
X2782284Y6330000D02*
X2817716D01*
X2800000Y6312283D02*
Y6347717D01*
X2882284Y6330000D02*
X2917716D01*
X2900000Y6312283D02*
Y6347717D01*
X2982284Y6330000D02*
X3017716D01*
X3000000Y6312283D02*
Y6347717D01*
X3082284Y6330000D02*
X3117716D01*
X3100000Y6312283D02*
Y6347717D01*
X5870866Y3418504D02*
X5910236D01*
X5890551Y3398819D02*
Y3438189D01*
X5870866Y3118504D02*
X5910236D01*
X5890551Y3098819D02*
Y3138189D01*
X5870866Y2818504D02*
X5910236D01*
X5890551Y2798819D02*
Y2838189D01*
X5870866Y2518504D02*
X5910236D01*
X5890551Y2498819D02*
Y2538189D01*
X6070866Y518504D02*
X6110236D01*
X6090551Y498819D02*
Y538189D01*
X6135433Y218504D02*
X6245669D01*
X6190551Y163386D02*
Y273622D01*
X6135433Y3718504D02*
X6245669D01*
X6190551Y3663386D02*
Y3773622D01*
X5870866Y3518504D02*
X5910236D01*
X5890551Y3498819D02*
Y3538189D01*
X5870866Y3318504D02*
X5910236D01*
X5890551Y3298819D02*
Y3338189D01*
X5870866Y3218504D02*
X5910236D01*
X5890551Y3198819D02*
Y3238189D01*
X5870866Y3018504D02*
X5910236D01*
X5890551Y2998819D02*
Y3038189D01*
X5870866Y2918504D02*
X5910236D01*
X5890551Y2898819D02*
Y2938189D01*
X5870866Y2718504D02*
X5910236D01*
X5890551Y2698819D02*
Y2738189D01*
X5870866Y2618504D02*
X5910236D01*
X5890551Y2598819D02*
Y2638189D01*
X5870866Y2418504D02*
X5910236D01*
X5890551Y2398819D02*
Y2438189D01*
X6070866Y3518504D02*
X6110236D01*
X6090551Y3498819D02*
Y3538189D01*
X6070866Y3318504D02*
X6110236D01*
X6090551Y3298819D02*
Y3338189D01*
X6070866Y3218504D02*
X6110236D01*
X6090551Y3198819D02*
Y3238189D01*
X6070866Y3018504D02*
X6110236D01*
X6090551Y2998819D02*
Y3038189D01*
X6070866Y2918504D02*
X6110236D01*
X6090551Y2898819D02*
Y2938189D01*
X6070866Y2718504D02*
X6110236D01*
X6090551Y2698819D02*
Y2738189D01*
X6070866Y2618504D02*
X6110236D01*
X6090551Y2598819D02*
Y2638189D01*
X6070866Y2418504D02*
X6110236D01*
X6090551Y2398819D02*
Y2438189D01*
X5870866Y418504D02*
X5910236D01*
X5890551Y398819D02*
Y438189D01*
X5870866Y618504D02*
X5910236D01*
X5890551Y598819D02*
Y638189D01*
X5870866Y718504D02*
X5910236D01*
X5890551Y698819D02*
Y738189D01*
X5870866Y918504D02*
X5910236D01*
X5890551Y898819D02*
Y938189D01*
X5870866Y1018504D02*
X5910236D01*
X5890551Y998819D02*
Y1038189D01*
X5870866Y1218504D02*
X5910236D01*
X5890551Y1198819D02*
Y1238189D01*
X5870866Y1318504D02*
X5910236D01*
X5890551Y1298819D02*
Y1338189D01*
X5870866Y1518504D02*
X5910236D01*
X5890551Y1498819D02*
Y1538189D01*
X6070866Y418504D02*
X6110236D01*
X6090551Y398819D02*
Y438189D01*
X6070866Y618504D02*
X6110236D01*
X6090551Y598819D02*
Y638189D01*
X6070866Y718504D02*
X6110236D01*
X6090551Y698819D02*
Y738189D01*
X6070866Y918504D02*
X6110236D01*
X6090551Y898819D02*
Y938189D01*
X6070866Y1018504D02*
X6110236D01*
X6090551Y998819D02*
Y1038189D01*
X6070866Y1218504D02*
X6110236D01*
X6090551Y1198819D02*
Y1238189D01*
X6070866Y1318504D02*
X6110236D01*
X6090551Y1298819D02*
Y1338189D01*
X6070866Y1518504D02*
X6110236D01*
X6090551Y1498819D02*
Y1538189D01*
X5870866Y1618504D02*
X5910236D01*
X5890551Y1598819D02*
Y1638189D01*
X5870866Y1718504D02*
X5910236D01*
X5890551Y1698819D02*
Y1738189D01*
X5870866Y1818504D02*
X5910236D01*
X5890551Y1798819D02*
Y1838189D01*
X5870866Y1918504D02*
X5910236D01*
X5890551Y1898819D02*
Y1938189D01*
X5870866Y2018504D02*
X5910236D01*
X5890551Y1998819D02*
Y2038189D01*
X5870866Y2118504D02*
X5910236D01*
X5890551Y2098819D02*
Y2138189D01*
X5870866Y2218504D02*
X5910236D01*
X5890551Y2198819D02*
Y2238189D01*
X5870866Y2318504D02*
X5910236D01*
X5890551Y2298819D02*
Y2338189D01*
X6070866Y1618504D02*
X6110236D01*
X6090551Y1598819D02*
Y1638189D01*
X6070866Y1718504D02*
X6110236D01*
X6090551Y1698819D02*
Y1738189D01*
X6070866Y1818504D02*
X6110236D01*
X6090551Y1798819D02*
Y1838189D01*
X6070866Y1918504D02*
X6110236D01*
X6090551Y1898819D02*
Y1938189D01*
X6070866Y2018504D02*
X6110236D01*
X6090551Y1998819D02*
Y2038189D01*
X6070866Y2118504D02*
X6110236D01*
X6090551Y2098819D02*
Y2138189D01*
X6070866Y2218504D02*
X6110236D01*
X6090551Y2198819D02*
Y2238189D01*
X6070866Y2318504D02*
X6110236D01*
X6090551Y2298819D02*
Y2338189D01*
X6070866Y3418504D02*
X6110236D01*
X6090551Y3398819D02*
Y3438189D01*
X6070866Y3118504D02*
X6110236D01*
X6090551Y3098819D02*
Y3138189D01*
X6070866Y2818504D02*
X6110236D01*
X6090551Y2798819D02*
Y2838189D01*
X6070866Y2518504D02*
X6110236D01*
X6090551Y2498819D02*
Y2538189D01*
X6070866Y1418504D02*
X6110236D01*
X6090551Y1398819D02*
Y1438189D01*
X6070866Y1118504D02*
X6110236D01*
X6090551Y1098819D02*
Y1138189D01*
X6070866Y818504D02*
X6110236D01*
X6090551Y798819D02*
Y838189D01*
X5870866Y518504D02*
X5910236D01*
X5890551Y498819D02*
Y538189D01*
X5870866Y818504D02*
X5910236D01*
X5890551Y798819D02*
Y838189D01*
X5870866Y1118504D02*
X5910236D01*
X5890551Y1098819D02*
Y1138189D01*
X5870866Y1418504D02*
X5910236D01*
X5890551Y1398819D02*
Y1438189D01*
X1988347Y6840000D02*
X2031654D01*
X2010000Y6818346D02*
Y6861654D01*
X2088347Y6840000D02*
X2131654D01*
X2110000Y6818346D02*
Y6861654D01*
X3004252Y6850000D02*
X3035748D01*
X3020000Y6834252D02*
Y6865748D01*
X2904252Y6850000D02*
X2935748D01*
X2920000Y6834252D02*
Y6865748D01*
X2804252Y6850000D02*
X2835748D01*
X2820000Y6834252D02*
Y6865748D01*
X2534252Y6900000D02*
X2565748D01*
X2550000Y6884252D02*
Y6915748D01*
X2534252Y6800000D02*
X2565748D01*
X2550000Y6784252D02*
Y6815748D01*
X1654252Y6880000D02*
X1685748D01*
X1670000Y6864252D02*
Y6895748D01*
X1354252Y6880000D02*
X1385748D01*
X1370000Y6864252D02*
Y6895748D01*
X1784252Y4250000D02*
X1815748D01*
X1800000Y4234252D02*
Y4265748D01*
X1984252Y4250000D02*
X2015748D01*
X2000000Y4234252D02*
Y4265748D01*
X5164252Y980000D02*
X5195748D01*
X5180000Y964252D02*
Y995748D01*
X5164252Y580000D02*
X5195748D01*
X5180000Y564252D02*
Y595748D01*
X3992047Y590000D02*
X4027480D01*
X4009764Y572284D02*
Y607716D01*
X3712520Y590000D02*
X3747953D01*
X3730236Y572284D02*
Y607716D01*
X5984252Y4450000D02*
X6015748D01*
X6000000Y4434252D02*
Y4465748D01*
X5884252Y4450000D02*
X5915748D01*
X5900000Y4434252D02*
Y4465748D01*
X5984252Y4550000D02*
X6015748D01*
X6000000Y4534252D02*
Y4565748D01*
X5884252Y4550000D02*
X5915748D01*
X5900000Y4534252D02*
Y4565748D01*
X5984252Y4650000D02*
X6015748D01*
X6000000Y4634252D02*
Y4665748D01*
X5884252Y4650000D02*
X5915748D01*
X5900000Y4634252D02*
Y4665748D01*
X5984252Y4750000D02*
X6015748D01*
X6000000Y4734252D02*
Y4765748D01*
X5884252Y4750000D02*
X5915748D01*
X5900000Y4734252D02*
Y4765748D01*
X5984252Y4850000D02*
X6015748D01*
X6000000Y4834252D02*
Y4865748D01*
X5884252Y4850000D02*
X5915748D01*
X5900000Y4834252D02*
Y4865748D01*
X632284Y3250000D02*
X667716D01*
X650000Y3232284D02*
Y3267716D01*
X732284Y3250000D02*
X767716D01*
X750000Y3232284D02*
Y3267716D01*
X632284Y3150000D02*
X667716D01*
X650000Y3132284D02*
Y3167716D01*
X732284Y3150000D02*
X767716D01*
X750000Y3132284D02*
Y3167716D01*
X632284Y3050000D02*
X667716D01*
X650000Y3032284D02*
Y3067716D01*
X732284Y3050000D02*
X767716D01*
X750000Y3032284D02*
Y3067716D01*
X632284Y2950000D02*
X667716D01*
X650000Y2932284D02*
Y2967716D01*
X732284Y2950000D02*
X767716D01*
X750000Y2932284D02*
Y2967716D01*
X632284Y2850000D02*
X667716D01*
X650000Y2832284D02*
Y2867716D01*
X732284Y2850000D02*
X767716D01*
X750000Y2832284D02*
Y2867716D01*
X632284Y2750000D02*
X667716D01*
X650000Y2732284D02*
Y2767716D01*
X732284Y2750000D02*
X767716D01*
X750000Y2732284D02*
Y2767716D01*
X632284Y2650000D02*
X667716D01*
X650000Y2632284D02*
Y2667716D01*
X732284Y2650000D02*
X767716D01*
X750000Y2632284D02*
Y2667716D01*
X632284Y2550000D02*
X667716D01*
X650000Y2532284D02*
Y2567716D01*
X732284Y2550000D02*
X767716D01*
X750000Y2532284D02*
Y2567716D01*
X2083268Y3810000D02*
X2116732D01*
X2100000Y3793268D02*
Y3826732D01*
X1683268Y3810000D02*
X1716732D01*
X1700000Y3793268D02*
Y3826732D01*
X2954252Y660000D02*
X2985748D01*
X2970000Y644252D02*
Y675748D01*
X2954252Y500000D02*
X2985748D01*
X2970000Y484252D02*
Y515748D01*
X2954252Y420000D02*
X2985748D01*
X2970000Y404252D02*
Y435748D01*
X2954252Y340000D02*
X2985748D01*
X2970000Y324252D02*
Y355748D01*
X4408346Y250000D02*
X4451654D01*
X4430000Y228346D02*
Y271654D01*
X4208346Y250000D02*
X4251654D01*
X4230000Y228346D02*
Y271654D01*
X4208346Y150000D02*
X4251654D01*
X4230000Y128346D02*
Y171654D01*
X4408346Y150000D02*
X4451654D01*
X4430000Y128346D02*
Y171654D01*
X2582284Y2000000D02*
X2617716D01*
X2600000Y1982284D02*
Y2017716D01*
X2482284Y2000000D02*
X2517716D01*
X2500000Y1982284D02*
Y2017716D01*
X2382284Y2000000D02*
X2417716D01*
X2400000Y1982284D02*
Y2017716D01*
X2282284Y2000000D02*
X2317716D01*
X2300000Y1982284D02*
Y2017716D01*
X2182284Y2000000D02*
X2217716D01*
X2200000Y1982284D02*
Y2017716D01*
X2082284Y2000000D02*
X2117716D01*
X2100000Y1982284D02*
Y2017716D01*
X1982284Y2000000D02*
X2017716D01*
X2000000Y1982284D02*
Y2017716D01*
X1882284Y2000000D02*
X1917716D01*
X1900000Y1982284D02*
Y2017716D01*
X1782284Y2000000D02*
X1817716D01*
X1800000Y1982284D02*
Y2017716D01*
X1682284Y2000000D02*
X1717716D01*
X1700000Y1982284D02*
Y2017716D01*
X1582284Y2000000D02*
X1617716D01*
X1600000Y1982284D02*
Y2017716D01*
X1482284Y2000000D02*
X1517716D01*
X1500000Y1982284D02*
Y2017716D01*
X1382284Y2000000D02*
X1417716D01*
X1400000Y1982284D02*
Y2017716D01*
X1282284Y2000000D02*
X1317716D01*
X1300000Y1982284D02*
Y2017716D01*
X1182284Y2000000D02*
X1217716D01*
X1200000Y1982284D02*
Y2017716D01*
X1082284Y2000000D02*
X1117716D01*
X1100000Y1982284D02*
Y2017716D01*
X982284Y2000000D02*
X1017716D01*
X1000000Y1982284D02*
Y2017716D01*
X882284Y2000000D02*
X917716D01*
X900000Y1982284D02*
Y2017716D01*
X782284Y2000000D02*
X817716D01*
X800000Y1982284D02*
Y2017716D01*
X682284Y2000000D02*
X717716D01*
X700000Y1982284D02*
Y2017716D01*
X2582284Y1400000D02*
X2617716D01*
X2600000Y1382284D02*
Y1417716D01*
X2482284Y1400000D02*
X2517716D01*
X2500000Y1382284D02*
Y1417716D01*
X2382284Y1400000D02*
X2417716D01*
X2400000Y1382284D02*
Y1417716D01*
X2282284Y1400000D02*
X2317716D01*
X2300000Y1382284D02*
Y1417716D01*
X2182284Y1400000D02*
X2217716D01*
X2200000Y1382284D02*
Y1417716D01*
X2082284Y1400000D02*
X2117716D01*
X2100000Y1382284D02*
Y1417716D01*
X1982284Y1400000D02*
X2017716D01*
X2000000Y1382284D02*
Y1417716D01*
X1882284Y1400000D02*
X1917716D01*
X1900000Y1382284D02*
Y1417716D01*
X1782284Y1400000D02*
X1817716D01*
X1800000Y1382284D02*
Y1417716D01*
X1682284Y1400000D02*
X1717716D01*
X1700000Y1382284D02*
Y1417716D01*
X1582284Y1400000D02*
X1617716D01*
X1600000Y1382284D02*
Y1417716D01*
X1482284Y1400000D02*
X1517716D01*
X1500000Y1382284D02*
Y1417716D01*
X1382284Y1400000D02*
X1417716D01*
X1400000Y1382284D02*
Y1417716D01*
X1282284Y1400000D02*
X1317716D01*
X1300000Y1382284D02*
Y1417716D01*
X1182284Y1400000D02*
X1217716D01*
X1200000Y1382284D02*
Y1417716D01*
X1082284Y1400000D02*
X1117716D01*
X1100000Y1382284D02*
Y1417716D01*
X982284Y1400000D02*
X1017716D01*
X1000000Y1382284D02*
Y1417716D01*
X882284Y1400000D02*
X917716D01*
X900000Y1382284D02*
Y1417716D01*
X782284Y1400000D02*
X817716D01*
X800000Y1382284D02*
Y1417716D01*
X682284Y1400000D02*
X717716D01*
X700000Y1382284D02*
Y1417716D01*
X3282284Y4900000D02*
X3317716D01*
X3300000Y4882283D02*
Y4917717D01*
X3282284Y4800000D02*
X3317716D01*
X3300000Y4782283D02*
Y4817717D01*
X3282284Y4700000D02*
X3317716D01*
X3300000Y4682283D02*
Y4717717D01*
X3282284Y4600000D02*
X3317716D01*
X3300000Y4582283D02*
Y4617717D01*
X3282284Y4500000D02*
X3317716D01*
X3300000Y4482283D02*
Y4517717D01*
X3282284Y4400000D02*
X3317716D01*
X3300000Y4382283D02*
Y4417717D01*
X3282284Y4300000D02*
X3317716D01*
X3300000Y4282283D02*
Y4317717D01*
X3282284Y4200000D02*
X3317716D01*
X3300000Y4182283D02*
Y4217717D01*
X3282284Y4100000D02*
X3317716D01*
X3300000Y4082284D02*
Y4117717D01*
X3282284Y4000000D02*
X3317716D01*
X3300000Y3982284D02*
Y4017716D01*
X3282284Y3900000D02*
X3317716D01*
X3300000Y3882284D02*
Y3917716D01*
X3282284Y3800000D02*
X3317716D01*
X3300000Y3782284D02*
Y3817716D01*
X3282284Y3700000D02*
X3317716D01*
X3300000Y3682284D02*
Y3717716D01*
X3282284Y3600000D02*
X3317716D01*
X3300000Y3582284D02*
Y3617716D01*
X3882284Y4900000D02*
X3917716D01*
X3900000Y4882283D02*
Y4917717D01*
X3882284Y4800000D02*
X3917716D01*
X3900000Y4782283D02*
Y4817717D01*
X3882284Y4700000D02*
X3917716D01*
X3900000Y4682283D02*
Y4717717D01*
X3882284Y4600000D02*
X3917716D01*
X3900000Y4582283D02*
Y4617717D01*
X3882284Y4500000D02*
X3917716D01*
X3900000Y4482283D02*
Y4517717D01*
X3882284Y4400000D02*
X3917716D01*
X3900000Y4382283D02*
Y4417717D01*
X3882284Y4300000D02*
X3917716D01*
X3900000Y4282283D02*
Y4317717D01*
X3882284Y4200000D02*
X3917716D01*
X3900000Y4182283D02*
Y4217717D01*
X3882284Y4100000D02*
X3917716D01*
X3900000Y4082284D02*
Y4117717D01*
X3882284Y4000000D02*
X3917716D01*
X3900000Y3982284D02*
Y4017716D01*
X3882284Y3900000D02*
X3917716D01*
X3900000Y3882284D02*
Y3917716D01*
X3882284Y3800000D02*
X3917716D01*
X3900000Y3782284D02*
Y3817716D01*
X3882284Y3700000D02*
X3917716D01*
X3900000Y3682284D02*
Y3717716D01*
X3882284Y3600000D02*
X3917716D01*
X3900000Y3582284D02*
Y3617716D01*
X3684252Y1750000D02*
X3715748D01*
X3700000Y1734252D02*
Y1765748D01*
X3584252Y1850000D02*
X3615748D01*
X3600000Y1834252D02*
Y1865748D01*
X3584252Y1750000D02*
X3615748D01*
X3600000Y1734252D02*
Y1765748D01*
X3484252Y1850000D02*
X3515748D01*
X3500000Y1834252D02*
Y1865748D01*
X3484252Y1750000D02*
X3515748D01*
X3500000Y1734252D02*
Y1765748D01*
X3384252Y1850000D02*
X3415748D01*
X3400000Y1834252D02*
Y1865748D01*
X3284252Y1750000D02*
X3315748D01*
X3300000Y1734252D02*
Y1765748D01*
X3384252Y1750000D02*
X3415748D01*
X3400000Y1734252D02*
Y1765748D01*
X3284252Y1650000D02*
X3315748D01*
X3300000Y1634252D02*
Y1665748D01*
X3384252Y1650000D02*
X3415748D01*
X3400000Y1634252D02*
Y1665748D01*
X3284252Y1550000D02*
X3315748D01*
X3300000Y1534252D02*
Y1565748D01*
X3384252Y1550000D02*
X3415748D01*
X3400000Y1534252D02*
Y1565748D01*
X3284252Y1450000D02*
X3315748D01*
X3300000Y1434252D02*
Y1465748D01*
X3384252Y1450000D02*
X3415748D01*
X3400000Y1434252D02*
Y1465748D01*
X3284252Y1350000D02*
X3315748D01*
X3300000Y1334252D02*
Y1365748D01*
X3384252Y1350000D02*
X3415748D01*
X3400000Y1334252D02*
Y1365748D01*
X3284252Y1250000D02*
X3315748D01*
X3300000Y1234252D02*
Y1265748D01*
X3384252Y1150000D02*
X3415748D01*
X3400000Y1134252D02*
Y1165748D01*
X3384252Y1250000D02*
X3415748D01*
X3400000Y1234252D02*
Y1265748D01*
X3484252Y1150000D02*
X3515748D01*
X3500000Y1134252D02*
Y1165748D01*
X3484252Y1250000D02*
X3515748D01*
X3500000Y1234252D02*
Y1265748D01*
X3584252Y1150000D02*
X3615748D01*
X3600000Y1134252D02*
Y1165748D01*
X3584252Y1250000D02*
X3615748D01*
X3600000Y1234252D02*
Y1265748D01*
X3684252Y1150000D02*
X3715748D01*
X3700000Y1134252D02*
Y1165748D01*
X3684252Y1250000D02*
X3715748D01*
X3700000Y1234252D02*
Y1265748D01*
X3884252Y1350000D02*
X3915748D01*
X3900000Y1334252D02*
Y1365748D01*
X3884252Y1450000D02*
X3915748D01*
X3900000Y1434252D02*
Y1465748D01*
X3884252Y1250000D02*
X3915748D01*
X3900000Y1234252D02*
Y1265748D01*
X3784252Y1150000D02*
X3815748D01*
X3800000Y1134252D02*
Y1165748D01*
X3784252Y1250000D02*
X3815748D01*
X3800000Y1234252D02*
Y1265748D01*
X3884252Y1150000D02*
X3915748D01*
X3900000Y1134252D02*
Y1165748D01*
X3784252Y1750000D02*
X3815748D01*
X3800000Y1734252D02*
Y1765748D01*
X3984252Y1250000D02*
X4015748D01*
X4000000Y1234252D02*
Y1265748D01*
X3784252Y1850000D02*
X3815748D01*
X3800000Y1834252D02*
Y1865748D01*
X3984252Y1350000D02*
X4015748D01*
X4000000Y1334252D02*
Y1365748D01*
X3984252Y1450000D02*
X4015748D01*
X4000000Y1434252D02*
Y1465748D01*
X3884252Y1550000D02*
X3915748D01*
X3900000Y1534252D02*
Y1565748D01*
X3884252Y1650000D02*
X3915748D01*
X3900000Y1634252D02*
Y1665748D01*
X3984252Y1550000D02*
X4015748D01*
X4000000Y1534252D02*
Y1565748D01*
X3884252Y1750000D02*
X3915748D01*
X3900000Y1734252D02*
Y1765748D01*
X3984252Y1650000D02*
X4015748D01*
X4000000Y1634252D02*
Y1665748D01*
X3984252Y1750000D02*
X4015748D01*
X4000000Y1734252D02*
Y1765748D01*
X3884252Y1850000D02*
X3915748D01*
X3900000Y1834252D02*
Y1865748D01*
X3684252Y1850000D02*
X3715748D01*
X3700000Y1834252D02*
Y1865748D01*
X932284Y4900000D02*
X967716D01*
X950000Y4882283D02*
Y4917717D01*
X932284Y4800000D02*
X967716D01*
X950000Y4782283D02*
Y4817717D01*
X932284Y4700000D02*
X967716D01*
X950000Y4682283D02*
Y4717717D01*
X932284Y4600000D02*
X967716D01*
X950000Y4582283D02*
Y4617717D01*
X932284Y4500000D02*
X967716D01*
X950000Y4482283D02*
Y4517717D01*
X932284Y4400000D02*
X967716D01*
X950000Y4382283D02*
Y4417717D01*
X932284Y4300000D02*
X967716D01*
X950000Y4282283D02*
Y4317717D01*
X932284Y4200000D02*
X967716D01*
X950000Y4182283D02*
Y4217717D01*
X932284Y4100000D02*
X967716D01*
X950000Y4082284D02*
Y4117717D01*
X932284Y4000000D02*
X967716D01*
X950000Y3982284D02*
Y4017716D01*
X932284Y3900000D02*
X967716D01*
X950000Y3882284D02*
Y3917716D01*
X932284Y3800000D02*
X967716D01*
X950000Y3782284D02*
Y3817716D01*
X932284Y3700000D02*
X967716D01*
X950000Y3682284D02*
Y3717716D01*
X932284Y3600000D02*
X967716D01*
X950000Y3582284D02*
Y3617716D01*
X1532284Y4900000D02*
X1567716D01*
X1550000Y4882283D02*
Y4917717D01*
X1532284Y4800000D02*
X1567716D01*
X1550000Y4782283D02*
Y4817717D01*
X1532284Y4700000D02*
X1567716D01*
X1550000Y4682283D02*
Y4717717D01*
X1532284Y4600000D02*
X1567716D01*
X1550000Y4582283D02*
Y4617717D01*
X1532284Y4500000D02*
X1567716D01*
X1550000Y4482283D02*
Y4517717D01*
X1532284Y4400000D02*
X1567716D01*
X1550000Y4382283D02*
Y4417717D01*
X1532284Y4300000D02*
X1567716D01*
X1550000Y4282283D02*
Y4317717D01*
X1532284Y4200000D02*
X1567716D01*
X1550000Y4182283D02*
Y4217717D01*
X1532284Y4100000D02*
X1567716D01*
X1550000Y4082284D02*
Y4117717D01*
X1532284Y4000000D02*
X1567716D01*
X1550000Y3982284D02*
Y4017716D01*
X1532284Y3900000D02*
X1567716D01*
X1550000Y3882284D02*
Y3917716D01*
X1532284Y3800000D02*
X1567716D01*
X1550000Y3782284D02*
Y3817716D01*
X1532284Y3700000D02*
X1567716D01*
X1550000Y3682284D02*
Y3717716D01*
X1532284Y3600000D02*
X1567716D01*
X1550000Y3582284D02*
Y3617716D01*
X4942283Y580000D02*
X4977717D01*
X4960000Y562284D02*
Y597716D01*
X4942283Y680000D02*
X4977717D01*
X4960000Y662284D02*
Y697716D01*
X4942283Y780000D02*
X4977717D01*
X4960000Y762284D02*
Y797716D01*
X4942283Y880000D02*
X4977717D01*
X4960000Y862284D02*
Y897716D01*
X4642283Y580000D02*
X4677717D01*
X4660000Y562284D02*
Y597716D01*
X4642283Y680000D02*
X4677717D01*
X4660000Y662284D02*
Y697716D01*
X4642283Y780000D02*
X4677717D01*
X4660000Y762284D02*
Y797716D01*
X4642283Y880000D02*
X4677717D01*
X4660000Y862284D02*
Y897716D01*
X4942283Y1200000D02*
X4977717D01*
X4960000Y1182284D02*
Y1217716D01*
X4942283Y1300000D02*
X4977717D01*
X4960000Y1282284D02*
Y1317716D01*
X4942283Y1400000D02*
X4977717D01*
X4960000Y1382284D02*
Y1417716D01*
X4942283Y1500000D02*
X4977717D01*
X4960000Y1482284D02*
Y1517716D01*
X4942283Y1600000D02*
X4977717D01*
X4960000Y1582284D02*
Y1617716D01*
X4942283Y1700000D02*
X4977717D01*
X4960000Y1682284D02*
Y1717716D01*
X4942283Y1800000D02*
X4977717D01*
X4960000Y1782284D02*
Y1817716D01*
X4642283Y1200000D02*
X4677717D01*
X4660000Y1182284D02*
Y1217716D01*
X4642283Y1300000D02*
X4677717D01*
X4660000Y1282284D02*
Y1317716D01*
X4642283Y1400000D02*
X4677717D01*
X4660000Y1382284D02*
Y1417716D01*
X4642283Y1500000D02*
X4677717D01*
X4660000Y1482284D02*
Y1517716D01*
X4642283Y1600000D02*
X4677717D01*
X4660000Y1582284D02*
Y1617716D01*
X4642283Y1700000D02*
X4677717D01*
X4660000Y1682284D02*
Y1717716D01*
X4642283Y1800000D02*
X4677717D01*
X4660000Y1782284D02*
Y1817716D01*
X2188347Y6840000D02*
X2231654D01*
X2210000Y6818346D02*
Y6861654D01*
X334252Y1350000D02*
X365748D01*
X350000Y1334252D02*
Y1365748D01*
X882284Y6948425D02*
X917716D01*
X900000Y6930709D02*
Y6966142D01*
X882284Y6751575D02*
X917716D01*
X900000Y6733858D02*
Y6769291D01*
X86614Y218504D02*
X196850D01*
X141732Y163386D02*
Y273622D01*
X6135433Y5468504D02*
X6245669D01*
X6190551Y5413386D02*
Y5523622D01*
X86614Y5468504D02*
X196850D01*
X141732Y5413386D02*
Y5523622D01*
X3840157Y900000D02*
X3859843D01*
X3850000Y890158D02*
Y909842D01*
X1540158Y770000D02*
X1559842D01*
X1550000Y760158D02*
Y779842D01*
X1470158Y1300000D02*
X1489842D01*
X1480000Y1290158D02*
Y1309842D01*
X2680157Y1370000D02*
X2699843D01*
X2690000Y1360158D02*
Y1379842D01*
X2680157Y1330000D02*
X2699843D01*
X2690000Y1320158D02*
Y1339842D01*
X2680157Y1290000D02*
X2699843D01*
X2690000Y1280158D02*
Y1299842D01*
X2680157Y1250000D02*
X2699843D01*
X2690000Y1240158D02*
Y1259842D01*
X2680157Y1210000D02*
X2699843D01*
X2690000Y1200158D02*
Y1219842D01*
X3190157Y1240000D02*
X3209843D01*
X3200000Y1230158D02*
Y1249842D01*
X1800158Y1050000D02*
X1819842D01*
X1810000Y1040158D02*
Y1059842D01*
X1830158Y1090000D02*
X1849842D01*
X1840000Y1080158D02*
Y1099842D01*
X2880157Y200000D02*
X2899843D01*
X2890000Y190157D02*
Y209843D01*
X1640158Y1120000D02*
X1659842D01*
X1650000Y1110158D02*
Y1129842D01*
X5360158Y3320000D02*
X5379842D01*
X5370000Y3310157D02*
Y3329843D01*
X5330158Y3270000D02*
X5349842D01*
X5340000Y3260157D02*
Y3279843D01*
X5300158Y3220000D02*
X5319842D01*
X5310000Y3210157D02*
Y3229843D01*
X5270158Y3170000D02*
X5289842D01*
X5280000Y3160157D02*
Y3179843D01*
X5240158Y3118504D02*
X5259842D01*
X5250000Y3108661D02*
Y3128346D01*
X5210158Y3070000D02*
X5229842D01*
X5220000Y3060157D02*
Y3079843D01*
X5150158Y2970000D02*
X5169842D01*
X5160000Y2960157D02*
Y2979843D01*
X5180158Y3018504D02*
X5199842D01*
X5190000Y3008661D02*
Y3028346D01*
X4480158Y2220000D02*
X4499842D01*
X4490000Y2210157D02*
Y2229843D01*
X4510158Y2270000D02*
X4529842D01*
X4520000Y2260157D02*
Y2279843D01*
X4100158Y1400000D02*
X4119842D01*
X4110000Y1390158D02*
Y1409842D01*
X4100158Y1300000D02*
X4119842D01*
X4110000Y1290158D02*
Y1309842D01*
X4660158Y3170000D02*
X4679842D01*
X4670000Y3160157D02*
Y3179843D01*
X4630158Y3120000D02*
X4649842D01*
X4640000Y3110157D02*
Y3129843D01*
X4600158Y3070000D02*
X4619842D01*
X4610000Y3060157D02*
Y3079843D01*
X4570158Y3020000D02*
X4589842D01*
X4580000Y3010157D02*
Y3029843D01*
X4540158Y2970000D02*
X4559842D01*
X4550000Y2960157D02*
Y2979843D01*
X4270158Y3320000D02*
X4289842D01*
X4280000Y3310157D02*
Y3329843D01*
X4240158Y3270000D02*
X4259842D01*
X4250000Y3260157D02*
Y3279843D01*
X4210158Y3220000D02*
X4229842D01*
X4220000Y3210157D02*
Y3229843D01*
X2540157Y860000D02*
X2559843D01*
X2550000Y850158D02*
Y869842D01*
X2040158Y1900000D02*
X2059843D01*
X2050000Y1890158D02*
Y1909842D01*
X1940158Y1900000D02*
X1959842D01*
X1950000Y1890158D02*
Y1909842D01*
X1840158Y1900000D02*
X1859842D01*
X1850000Y1890158D02*
Y1909842D01*
X4840158Y730000D02*
X4859842D01*
X4850000Y720158D02*
Y739842D01*
X1070158Y3900000D02*
X1089842D01*
X1080000Y3890157D02*
Y3909843D01*
X570158Y3640000D02*
X589842D01*
X580000Y3630157D02*
Y3649843D01*
X2950157Y3440000D02*
X2969843D01*
X2960000Y3430157D02*
Y3449843D01*
X2890157Y3470000D02*
X2909843D01*
X2900000Y3460157D02*
Y3479843D01*
X1950158Y2192500D02*
X1969842D01*
X1960000Y2182657D02*
Y2202343D01*
X2590157Y1900000D02*
X2609843D01*
X2600000Y1890158D02*
Y1909842D01*
X2490157Y1900000D02*
X2509843D01*
X2500000Y1890158D02*
Y1909842D01*
X2390157Y1900000D02*
X2409843D01*
X2400000Y1890158D02*
Y1909842D01*
X2290157Y1900000D02*
X2309843D01*
X2300000Y1890158D02*
Y1909842D01*
X2190157Y1900000D02*
X2209843D01*
X2200000Y1890158D02*
Y1909842D01*
X2090157Y1900000D02*
X2109843D01*
X2100000Y1890158D02*
Y1909842D01*
X1990158Y1900000D02*
X2009842D01*
X2000000Y1890158D02*
Y1909842D01*
X1890158Y1900000D02*
X1909842D01*
X1900000Y1890158D02*
Y1909842D01*
X1790158Y1900000D02*
X1809842D01*
X1800000Y1890158D02*
Y1909842D01*
X1690158Y1900000D02*
X1709842D01*
X1700000Y1890158D02*
Y1909842D01*
X1590158Y1900000D02*
X1609842D01*
X1600000Y1890158D02*
Y1909842D01*
X3720157Y2520000D02*
X3739843D01*
X3730000Y2510157D02*
Y2529843D01*
X3750157Y2470000D02*
X3769843D01*
X3760000Y2460157D02*
Y2479843D01*
X2700157Y2490000D02*
X2719843D01*
X2710000Y2480157D02*
Y2499843D01*
X2670157Y2560000D02*
X2689843D01*
X2680000Y2550157D02*
Y2569843D01*
X2640157Y2630000D02*
X2659843D01*
X2650000Y2620157D02*
Y2639843D01*
X2610157Y2700000D02*
X2629843D01*
X2620000Y2690157D02*
Y2709843D01*
X2580157Y2770000D02*
X2599843D01*
X2590000Y2760157D02*
Y2779843D01*
X2550157Y2820000D02*
X2569843D01*
X2560000Y2810157D02*
Y2829843D01*
X2520157Y2870000D02*
X2539843D01*
X2530000Y2860157D02*
Y2879843D01*
X2490157Y2918504D02*
X2509843D01*
X2500000Y2908661D02*
Y2928346D01*
X3780157Y2370000D02*
X3799843D01*
X3790000Y2360157D02*
Y2379843D01*
X3810157Y2418504D02*
X3829843D01*
X3820000Y2408661D02*
Y2428346D01*
X1440158Y3310000D02*
X1459842D01*
X1450000Y3300157D02*
Y3319843D01*
X1340158Y3260000D02*
X1359842D01*
X1350000Y3250157D02*
Y3269843D01*
X850158Y3480000D02*
X869842D01*
X860000Y3470157D02*
Y3489843D01*
X1250158Y3590000D02*
X1269842D01*
X1260000Y3580157D02*
Y3599843D01*
X1320158Y3590000D02*
X1339842D01*
X1330000Y3580157D02*
Y3599843D01*
X1190158Y4450000D02*
X1209842D01*
X1200000Y4440158D02*
Y4459842D01*
X890158Y3440000D02*
X909842D01*
X900000Y3430157D02*
Y3449843D01*
X540158Y4300000D02*
X559842D01*
X550000Y4290158D02*
Y4309842D01*
X510158Y4200000D02*
X529842D01*
X520000Y4190158D02*
Y4209842D01*
X980158Y3370000D02*
X999842D01*
X990000Y3360157D02*
Y3379843D01*
X1390158Y3590000D02*
X1409842D01*
X1400000Y3580157D02*
Y3599843D01*
X860158Y4250000D02*
X879842D01*
X870000Y4240158D02*
Y4259842D01*
X2140157Y5570000D02*
X2159843D01*
X2150000Y5560158D02*
Y5579842D01*
X2090157Y5530000D02*
X2109843D01*
X2100000Y5520158D02*
Y5539842D01*
X2810157Y5380000D02*
X2829843D01*
X2820000Y5370158D02*
Y5389842D01*
X1840158Y5530000D02*
X1859842D01*
X1850000Y5520158D02*
Y5539842D01*
X2810157Y5340000D02*
X2829843D01*
X2820000Y5330158D02*
Y5349842D01*
X2810157Y5300000D02*
X2829843D01*
X2820000Y5290158D02*
Y5309842D01*
X1740158Y5410000D02*
X1759842D01*
X1750000Y5400158D02*
Y5419842D01*
X2810157Y5420000D02*
X2829843D01*
X2820000Y5410158D02*
Y5429842D01*
X4440158Y1850000D02*
X4459842D01*
X4450000Y1840158D02*
Y1859842D01*
X4040157Y2270000D02*
X4059843D01*
X4050000Y2260157D02*
Y2279843D01*
X4080157Y2220000D02*
X4099842D01*
X4090000Y2210157D02*
Y2229843D01*
X4120158Y2170000D02*
X4139842D01*
X4130000Y2160157D02*
Y2179843D01*
X4210158Y1960000D02*
X4229842D01*
X4220000Y1950158D02*
Y1969842D01*
X4240158Y1930000D02*
X4259842D01*
X4250000Y1920158D02*
Y1939842D01*
X4270158Y1900000D02*
X4289842D01*
X4280000Y1890158D02*
Y1909842D01*
X3740157Y2320000D02*
X3759843D01*
X3750000Y2310157D02*
Y2329843D01*
X1240158Y1850000D02*
X1259842D01*
X1250000Y1840158D02*
Y1859842D01*
X840158Y2260000D02*
X859842D01*
X850000Y2250157D02*
Y2269843D01*
X1200158Y700000D02*
X1219842D01*
X1210000Y690158D02*
Y709842D01*
X1200158Y1700000D02*
X1219842D01*
X1210000Y1690158D02*
Y1709842D01*
X1190158Y3350000D02*
X1209842D01*
X1200000Y3340157D02*
Y3359843D01*
X1270158Y3380000D02*
X1289842D01*
X1280000Y3370157D02*
Y3389843D01*
X1370158Y3410000D02*
X1389842D01*
X1380000Y3400157D02*
Y3419843D01*
X5060158Y1990000D02*
X5079842D01*
X5070000Y1980158D02*
Y1999842D01*
X5120158Y2010000D02*
X5139842D01*
X5130000Y2000158D02*
Y2019842D01*
X5090158Y1720000D02*
X5109842D01*
X5100000Y1710158D02*
Y1729842D01*
X5580158Y1350000D02*
X5599842D01*
X5590000Y1340158D02*
Y1359842D01*
X5580158Y1220000D02*
X5599842D01*
X5590000Y1210158D02*
Y1229842D01*
X2220157Y4830000D02*
X2239843D01*
X2230000Y4820158D02*
Y4839842D01*
X6010158Y290000D02*
X6029842D01*
X6020000Y280158D02*
Y299842D01*
X5390158Y1750000D02*
X5409842D01*
X5400000Y1740158D02*
Y1759842D01*
X5690158Y1000000D02*
X5709842D01*
X5700000Y990158D02*
Y1009842D01*
X5980158Y970000D02*
X5999842D01*
X5990000Y960158D02*
Y979842D01*
X5720158Y1080000D02*
X5739842D01*
X5730000Y1070158D02*
Y1089842D01*
X5390158Y1110000D02*
X5409842D01*
X5400000Y1100158D02*
Y1119842D01*
X5420158Y1180000D02*
X5439842D01*
X5430000Y1170158D02*
Y1189842D01*
X5030158Y1080000D02*
X5049842D01*
X5040000Y1070158D02*
Y1089842D01*
X5030158Y2070236D02*
X5049842D01*
X5040000Y2060394D02*
Y2080079D01*
X6150158Y2070000D02*
X6169842D01*
X6160000Y2060157D02*
Y2079843D01*
X3990157Y3370000D02*
X4009843D01*
X4000000Y3360157D02*
Y3379843D01*
X3180157Y3370000D02*
X3199843D01*
X3190000Y3360157D02*
Y3379843D01*
X3540157Y1320000D02*
X3559843D01*
X3550000Y1310158D02*
Y1329842D01*
X2710157Y1860000D02*
X2729843D01*
X2720000Y1850158D02*
Y1869842D01*
X4720158Y3370000D02*
X4739842D01*
X4730000Y3360157D02*
Y3379843D01*
X5590158Y3370000D02*
X5609842D01*
X5600000Y3360157D02*
Y3379843D01*
X5120158Y890000D02*
X5139842D01*
X5130000Y880158D02*
Y899842D01*
X4170158Y5410000D02*
X4189842D01*
X4180000Y5400158D02*
Y5419842D01*
X4310158Y5410000D02*
X4329842D01*
X4320000Y5400158D02*
Y5419842D01*
X4530158Y5410000D02*
X4549842D01*
X4540000Y5400158D02*
Y5419842D01*
X4600158Y5410000D02*
X4619842D01*
X4610000Y5400158D02*
Y5419842D01*
X2820157Y1920000D02*
X2839843D01*
X2830000Y1910158D02*
Y1929842D01*
X2800157Y1980000D02*
X2819843D01*
X2810000Y1970158D02*
Y1989842D01*
X2780157Y2040000D02*
X2799843D01*
X2790000Y2030158D02*
Y2049843D01*
%TF.MD5,910A0A75126D4A933A001267BD9C6E9A*%
M02*
