G04 Layer_Color=65535*
%FSLAX26Y26*%
%MOIN*%
%TF.FileFunction,Legend,Top*%
%TF.Part,Single*%
G01*
G75*
%TA.AperFunction,NonConductor*%
%ADD14C,0.010000*%
%ADD60C,0.007874*%
%ADD61C,0.009842*%
%ADD62C,0.023622*%
%ADD63C,0.005905*%
%ADD64C,0.008000*%
%ADD65R,0.031496X0.074803*%
G36*
X4254211Y523115D02*
X4243661Y512564D01*
X4254211Y502013D01*
Y450000D01*
X4207936D01*
Y497756D01*
X4194609D01*
Y450000D01*
X4150000D01*
Y584568D01*
X4254211D01*
Y523115D01*
D02*
G37*
G36*
X3650000Y4420940D02*
X3626307Y4407983D01*
X3515432D01*
Y4456665D01*
X3608352D01*
Y4499978D01*
X3650000D01*
Y4420940D01*
D02*
G37*
G36*
X4456155Y542735D02*
X4438386D01*
Y450000D01*
X4390445D01*
Y542735D01*
X4371194D01*
Y584753D01*
X4495026D01*
X4456155Y542735D01*
D02*
G37*
G36*
X4361569Y545512D02*
X4309926D01*
Y535146D01*
X4361569D01*
Y450000D01*
X4263837D01*
Y485909D01*
X4317701D01*
Y499051D01*
X4263837D01*
Y584568D01*
X4361569D01*
Y545512D01*
D02*
G37*
G36*
X3650000Y4107936D02*
X3602244D01*
Y4094609D01*
X3650000D01*
Y4050000D01*
X3515432D01*
Y4154211D01*
X3576885D01*
X3587436Y4143661D01*
X3597987Y4154211D01*
X3650000D01*
Y4107936D01*
D02*
G37*
G36*
X2800000Y4467030D02*
X2753540D01*
Y4456665D01*
X2800000D01*
Y4407983D01*
X2665432D01*
Y4456665D01*
X2712263D01*
Y4467030D01*
X2665432D01*
Y4513305D01*
X2800000D01*
Y4467030D01*
D02*
G37*
G36*
X3650000Y4353379D02*
X3584289D01*
X3602244Y4335424D01*
X3584289Y4317655D01*
X3650000D01*
Y4273046D01*
X3515432D01*
Y4313212D01*
X3537274Y4335424D01*
X3515432Y4357821D01*
Y4398358D01*
X3650000D01*
Y4353379D01*
D02*
G37*
G36*
Y4163837D02*
X3515247D01*
Y4263420D01*
X3650000D01*
Y4163837D01*
D02*
G37*
G36*
X2919112Y5511823D02*
Y5450000D01*
X2823416D01*
Y5491277D01*
X2877835D01*
Y5495720D01*
X2864693Y5534035D01*
Y5501458D01*
X2822120D01*
Y5584568D01*
X2893569D01*
X2919112Y5511823D01*
D02*
G37*
G36*
X2812310D02*
Y5450000D01*
X2716613D01*
Y5491277D01*
X2771032D01*
Y5495720D01*
X2757890Y5534035D01*
Y5501458D01*
X2715317D01*
Y5584568D01*
X2786766D01*
X2812310Y5511823D01*
D02*
G37*
G36*
X3128831Y5544216D02*
X3082741D01*
Y5536812D01*
X3128831D01*
Y5497756D01*
X3082741D01*
Y5490167D01*
X3128831D01*
Y5450000D01*
X3055161D01*
X3042759Y5473508D01*
Y5584568D01*
X3128831D01*
Y5544216D01*
D02*
G37*
G36*
X3033134Y5523114D02*
X3022583Y5512564D01*
X3033134Y5502013D01*
Y5450000D01*
X2986859D01*
Y5497756D01*
X2973532D01*
Y5450000D01*
X2928923D01*
Y5584568D01*
X3033134D01*
Y5523114D01*
D02*
G37*
G36*
X3344378Y491647D02*
X3387691D01*
Y450000D01*
X3308654D01*
X3295697Y473693D01*
Y584568D01*
X3344378D01*
Y491647D01*
D02*
G37*
G36*
X3286072Y545512D02*
X3244424D01*
Y490167D01*
X3286072D01*
Y450000D01*
X3213142D01*
X3200000Y473508D01*
Y584568D01*
X3286072D01*
Y545512D01*
D02*
G37*
G36*
X2705692Y5450000D02*
X2661083D01*
Y5530519D01*
X2644609Y5476284D01*
Y5450000D01*
X2600000D01*
Y5490167D01*
X2628135Y5584568D01*
X2705692D01*
Y5450000D01*
D02*
G37*
G36*
X3502268Y560690D02*
X3474133Y508862D01*
X3483018D01*
X3515410Y450000D01*
X3464508D01*
X3441741Y492203D01*
Y450000D01*
X3397502D01*
Y584568D01*
X3441741D01*
Y543290D01*
X3465248Y584568D01*
X3502268D01*
Y560690D01*
D02*
G37*
G36*
X2800000Y4353379D02*
X2734289D01*
X2752244Y4335424D01*
X2734289Y4317655D01*
X2800000D01*
Y4273046D01*
X2665432D01*
Y4313212D01*
X2687274Y4335424D01*
X2665432Y4357821D01*
Y4398358D01*
X2800000D01*
Y4353379D01*
D02*
G37*
G36*
X1633920Y1640000D02*
X1534337D01*
Y1774753D01*
X1633920D01*
Y1640000D01*
D02*
G37*
G36*
X1524711Y1713855D02*
X1515456Y1703304D01*
X1524711Y1691458D01*
Y1640000D01*
X1423091D01*
Y1691458D01*
X1432161Y1702008D01*
X1423091Y1713855D01*
Y1774568D01*
X1524711D01*
Y1713855D01*
D02*
G37*
G36*
X1893245Y1712189D02*
X1869923Y1689052D01*
X1833828D01*
Y1640000D01*
X1787368D01*
Y1774568D01*
X1893245D01*
Y1712189D01*
D02*
G37*
G36*
X1777743Y1735512D02*
X1736096D01*
Y1680167D01*
X1777743D01*
Y1640000D01*
X1704814D01*
X1691672Y1663508D01*
Y1774568D01*
X1777743D01*
Y1735512D01*
D02*
G37*
G36*
X1698256Y420000D02*
X1645502D01*
Y554568D01*
X1698256D01*
Y420000D01*
D02*
G37*
G36*
X1635877Y492189D02*
X1612555Y469051D01*
X1576460D01*
Y420000D01*
X1530000D01*
Y554568D01*
X1635877D01*
Y492189D01*
D02*
G37*
G36*
X1413466Y1735697D02*
Y1735512D01*
X1413281Y1735326D01*
X1413096Y1734771D01*
X1412726Y1734216D01*
X1411615Y1732365D01*
X1410320Y1729959D01*
Y1729774D01*
X1409949Y1729403D01*
X1409579Y1728663D01*
X1409024Y1727737D01*
X1408284Y1726627D01*
X1407543Y1725516D01*
X1405692Y1722555D01*
X1405507Y1722370D01*
X1405322Y1721814D01*
X1404767Y1721074D01*
X1404211Y1719963D01*
X1403286Y1718668D01*
X1402545Y1717187D01*
X1400509Y1714040D01*
X1400324Y1713855D01*
X1399954Y1713300D01*
X1399399Y1712374D01*
X1398843Y1711264D01*
X1397918Y1709968D01*
X1396992Y1708487D01*
X1394956Y1705155D01*
Y1704970D01*
X1394586Y1704785D01*
X1394401Y1704045D01*
X1393846Y1703304D01*
X1393290Y1702379D01*
X1392550Y1701268D01*
X1390884Y1698492D01*
X1388848Y1695345D01*
X1386442Y1691643D01*
X1383850Y1687571D01*
X1381074Y1683313D01*
X1413466D01*
Y1640000D01*
X1300185D01*
X1355900Y1731069D01*
X1307589D01*
Y1774568D01*
X1413466D01*
Y1735697D01*
D02*
G37*
G36*
X1807650Y420000D02*
X1708066D01*
Y554753D01*
X1807650D01*
Y420000D01*
D02*
G37*
G36*
X4530000Y4359487D02*
X4464289D01*
X4482244Y4341533D01*
X4464289Y4323763D01*
X4530000D01*
Y4279154D01*
X4395432D01*
Y4319320D01*
X4417274Y4341533D01*
X4395432Y4363930D01*
Y4404467D01*
X4530000D01*
Y4359487D01*
D02*
G37*
G36*
Y4224919D02*
X4449481D01*
X4503716Y4208446D01*
X4530000D01*
Y4163837D01*
X4489833D01*
X4395432Y4191972D01*
Y4269529D01*
X4530000D01*
Y4224919D01*
D02*
G37*
G36*
X2800000Y4163837D02*
X2665247D01*
Y4263420D01*
X2800000D01*
Y4163837D01*
D02*
G37*
G36*
Y4107936D02*
X2752244D01*
Y4094609D01*
X2800000D01*
Y4050000D01*
X2665432D01*
Y4154211D01*
X2726885D01*
X2737436Y4143661D01*
X2747987Y4154211D01*
X2800000D01*
Y4107936D01*
D02*
G37*
G36*
X5370000Y4063142D02*
X5346492Y4050000D01*
X5235432D01*
Y4136072D01*
X5274488D01*
Y4094424D01*
X5329833D01*
Y4136072D01*
X5370000D01*
Y4063142D01*
D02*
G37*
G36*
X2011709Y1640000D02*
X1902871D01*
Y1774568D01*
X1948961D01*
Y1681648D01*
X1966915D01*
Y1774568D01*
X2011709D01*
Y1640000D01*
D02*
G37*
G36*
X4530000Y4107936D02*
X4482244D01*
Y4094609D01*
X4530000D01*
Y4050000D01*
X4395432D01*
Y4154211D01*
X4456886D01*
X4467436Y4143661D01*
X4477987Y4154211D01*
X4530000D01*
Y4107936D01*
D02*
G37*
G36*
X5370000Y4264161D02*
X5346492Y4251019D01*
X5255256D01*
X5277265Y4230658D01*
Y4212888D01*
X5370000D01*
Y4164947D01*
X5277265D01*
Y4145697D01*
X5235247D01*
Y4269529D01*
X5235432Y4269357D01*
Y4337090D01*
X5274488D01*
Y4295443D01*
X5329833D01*
Y4337090D01*
X5370000D01*
Y4264161D01*
D02*
G37*
G36*
X1343547Y5545512D02*
X1291904D01*
Y5535146D01*
X1343547D01*
Y5450000D01*
X1245814D01*
Y5485909D01*
X1299678D01*
Y5499051D01*
X1245814D01*
Y5584568D01*
X1343547D01*
Y5545512D01*
D02*
G37*
G36*
X1568998Y5450000D02*
X1516245D01*
Y5584568D01*
X1568998D01*
Y5450000D01*
D02*
G37*
G36*
X1678393Y5542735D02*
X1620271D01*
Y5493313D01*
X1638226D01*
Y5524780D01*
X1678393D01*
Y5450000D01*
X1578809D01*
Y5584753D01*
X1678393D01*
Y5542735D01*
D02*
G37*
G36*
X1236189Y5545512D02*
X1184546D01*
Y5535146D01*
X1236189D01*
Y5450000D01*
X1138456D01*
Y5485909D01*
X1192320D01*
Y5499051D01*
X1138456D01*
Y5584568D01*
X1236189D01*
Y5545512D01*
D02*
G37*
G36*
X919112Y5511823D02*
Y5450000D01*
X823416D01*
Y5491277D01*
X877835D01*
Y5495720D01*
X864693Y5534035D01*
Y5501458D01*
X822120D01*
Y5584568D01*
X893569D01*
X919112Y5511823D01*
D02*
G37*
G36*
X1033134Y5523114D02*
X1022583Y5512564D01*
X1033134Y5502013D01*
Y5450000D01*
X986859D01*
Y5497756D01*
X973532D01*
Y5450000D01*
X928923D01*
Y5584568D01*
X1033134D01*
Y5523114D01*
D02*
G37*
G36*
X1128831Y5544216D02*
X1082741D01*
Y5536812D01*
X1128831D01*
Y5497756D01*
X1082741D01*
Y5490167D01*
X1128831D01*
Y5450000D01*
X1055161D01*
X1042759Y5473508D01*
Y5584568D01*
X1128831D01*
Y5544216D01*
D02*
G37*
G36*
X1506620Y5450000D02*
X1460345D01*
Y5496460D01*
X1449979D01*
Y5450000D01*
X1401298D01*
Y5584568D01*
X1449979D01*
Y5537737D01*
X1460345D01*
Y5584568D01*
X1506620D01*
Y5450000D01*
D02*
G37*
G36*
X5037397Y2894154D02*
X4929068Y2786658D01*
X4775741D01*
Y2570000D01*
X4552417D01*
Y3180809D01*
X5037397D01*
Y2894154D01*
D02*
G37*
G36*
X5470713Y2991650D02*
X5286554D01*
Y2764159D01*
X5470713D01*
Y2570000D01*
X5134893D01*
X5073229Y2679996D01*
Y3180809D01*
X5470713D01*
Y2991650D01*
D02*
G37*
G36*
X4515752Y2570000D02*
X4018271D01*
Y3180809D01*
X4239929D01*
Y2770825D01*
X4300760D01*
Y3180809D01*
X4515752D01*
Y2570000D01*
D02*
G37*
G36*
X3983273D02*
X3525791D01*
Y3180809D01*
X3983273D01*
Y2570000D01*
D02*
G37*
G36*
X1793340Y5450000D02*
X1747065D01*
Y5496460D01*
X1736699D01*
Y5450000D01*
X1688018D01*
Y5584568D01*
X1736699D01*
Y5537737D01*
X1747065D01*
Y5584568D01*
X1793340D01*
Y5450000D01*
D02*
G37*
G36*
X2988313Y2998316D02*
Y2997483D01*
X2987479Y2996650D01*
X2985813Y2994150D01*
X2984146Y2990816D01*
X2979146Y2982483D01*
X2973313Y2972484D01*
Y2971651D01*
X2971647Y2969984D01*
X2969980Y2966651D01*
X2967480Y2963318D01*
X2964980Y2958318D01*
X2961647Y2952485D01*
X2953314Y2939152D01*
X2952481Y2938319D01*
X2951647Y2935819D01*
X2949148Y2932485D01*
X2945814Y2927486D01*
X2942481Y2921653D01*
X2938315Y2914986D01*
X2929148Y2900820D01*
X2928315Y2899987D01*
X2927482Y2897487D01*
X2924982Y2893320D01*
X2921649Y2888321D01*
X2918315Y2882488D01*
X2914149Y2875821D01*
X2904983Y2860822D01*
Y2859988D01*
X2904149Y2859155D01*
X2902483Y2856655D01*
X2899983Y2853322D01*
X2894983Y2844989D01*
X2887483Y2834156D01*
X2879150Y2820823D01*
X2869151Y2806657D01*
X2857485Y2792491D01*
X2845818Y2777492D01*
X2988313D01*
Y2570000D01*
X2470833D01*
X2716657Y2972484D01*
X2503332D01*
Y3180809D01*
X2988313D01*
Y2998316D01*
D02*
G37*
G36*
X3489959Y2901653D02*
X3449128Y2857488D01*
X3489959Y2807490D01*
Y2570000D01*
X3024144D01*
Y2808324D01*
X3064143Y2852489D01*
X3024144Y2901653D01*
Y3180809D01*
X3489959D01*
Y2901653D01*
D02*
G37*
G36*
X3742437Y5450000D02*
X3702826D01*
X3676542Y5476469D01*
X3649517Y5450000D01*
X3612312D01*
Y5584568D01*
X3658772D01*
Y5519968D01*
X3676356Y5537182D01*
X3694496Y5519968D01*
Y5584568D01*
X3742437D01*
Y5450000D01*
D02*
G37*
G36*
X5036992Y5501823D02*
Y5440000D01*
X4941296D01*
Y5481277D01*
X4995715D01*
Y5485720D01*
X4982573Y5524035D01*
Y5491458D01*
X4940000D01*
Y5574568D01*
X5011449D01*
X5036992Y5501823D01*
D02*
G37*
G36*
X5152495Y5440000D02*
X5107886D01*
Y5520519D01*
X5091412Y5466284D01*
Y5440000D01*
X5046803D01*
Y5480167D01*
X5074938Y5574568D01*
X5152495D01*
Y5440000D01*
D02*
G37*
G36*
X3602687Y5450000D02*
X3503103D01*
Y5584753D01*
X3602687D01*
Y5450000D01*
D02*
G37*
G36*
X3236189Y5545512D02*
X3184546D01*
Y5535146D01*
X3236189D01*
Y5450000D01*
X3138456D01*
Y5485909D01*
X3192320D01*
Y5499051D01*
X3138456D01*
Y5584568D01*
X3236189D01*
Y5545512D01*
D02*
G37*
G36*
X3343547D02*
X3291904D01*
Y5535146D01*
X3343547D01*
Y5450000D01*
X3245814D01*
Y5485909D01*
X3299678D01*
Y5499051D01*
X3245814D01*
Y5584568D01*
X3343547D01*
Y5545512D01*
D02*
G37*
G36*
X3449979Y5491648D02*
X3493293D01*
Y5450000D01*
X3414255D01*
X3401298Y5473693D01*
Y5584568D01*
X3449979D01*
Y5491648D01*
D02*
G37*
G36*
X5373134Y5440000D02*
X5328525D01*
Y5520519D01*
X5312051Y5466284D01*
Y5440000D01*
X5267442D01*
Y5480167D01*
X5295577Y5574568D01*
X5373134D01*
Y5440000D01*
D02*
G37*
G36*
X812310Y5511823D02*
Y5450000D01*
X716613D01*
Y5491277D01*
X771032D01*
Y5495720D01*
X757890Y5534035D01*
Y5501458D01*
X715317D01*
Y5584568D01*
X786766D01*
X812310Y5511823D01*
D02*
G37*
G36*
X5247081Y5532735D02*
X5229311D01*
Y5440000D01*
X5181370D01*
Y5532735D01*
X5162120D01*
Y5574753D01*
X5285952D01*
X5247081Y5532735D01*
D02*
G37*
G36*
X705692Y5450000D02*
X661083D01*
Y5530519D01*
X644609Y5476284D01*
Y5450000D01*
X600000D01*
Y5490167D01*
X628135Y5584568D01*
X705692D01*
Y5450000D01*
D02*
G37*
%LPC*%
G36*
X4210898Y544216D02*
X4194609D01*
Y533665D01*
X4210898D01*
Y544216D01*
D02*
G37*
G36*
X3566335Y4110898D02*
X3555784D01*
Y4094609D01*
X3566335D01*
Y4110898D01*
D02*
G37*
G36*
X3606687Y4223254D02*
X3557265D01*
Y4205299D01*
X3606687D01*
Y4223254D01*
D02*
G37*
G36*
X2989821Y5544216D02*
X2973532D01*
Y5533665D01*
X2989821D01*
Y5544216D01*
D02*
G37*
G36*
X1593754Y1732735D02*
X1575799D01*
Y1683313D01*
X1593754D01*
Y1732735D01*
D02*
G37*
G36*
X1482694Y1689237D02*
X1466405D01*
Y1678871D01*
X1482694D01*
Y1689237D01*
D02*
G37*
G36*
Y1735512D02*
X1466405D01*
Y1723665D01*
X1482694D01*
Y1735512D01*
D02*
G37*
G36*
X1851783D02*
X1833828D01*
Y1722740D01*
X1851783D01*
Y1735512D01*
D02*
G37*
G36*
X1594415Y515512D02*
X1576460D01*
Y502740D01*
X1594415D01*
Y515512D01*
D02*
G37*
G36*
X1767483Y512735D02*
X1749529D01*
Y463313D01*
X1767483D01*
Y512735D01*
D02*
G37*
G36*
X2756687Y4223254D02*
X2707265D01*
Y4205299D01*
X2756687D01*
Y4223254D01*
D02*
G37*
G36*
X2716335Y4110898D02*
X2705784D01*
Y4094609D01*
X2716335D01*
Y4110898D01*
D02*
G37*
G36*
X4446335D02*
X4435784D01*
Y4094609D01*
X4446335D01*
Y4110898D01*
D02*
G37*
G36*
X989821Y5544216D02*
X973532D01*
Y5533665D01*
X989821D01*
Y5544216D01*
D02*
G37*
G36*
X4836572Y2991650D02*
X4775741D01*
Y2951651D01*
X4836572D01*
Y2991650D01*
D02*
G37*
G36*
X3788281Y2979150D02*
X3726616D01*
Y2777492D01*
X3788281D01*
Y2979150D01*
D02*
G37*
G36*
X3287467Y2787491D02*
X3232470D01*
Y2758326D01*
X3287467D01*
Y2787491D01*
D02*
G37*
G36*
Y2991650D02*
X3232470D01*
Y2955818D01*
X3287467D01*
Y2991650D01*
D02*
G37*
G36*
X3562520Y5542735D02*
X3544565D01*
Y5493313D01*
X3562520D01*
Y5542735D01*
D02*
G37*
%LPD*%
D14*
X-80000Y6602835D02*
X246772D01*
X420000D02*
X494803D01*
Y6693386D01*
X-80000Y6602835D02*
Y6957166D01*
X494803D01*
X494803Y6866614D01*
X3550000Y900000D02*
X3750000D01*
X3550000Y800000D02*
Y900000D01*
Y800000D02*
X3750000D01*
Y900000D01*
X3538504Y100000D02*
Y300000D01*
X3201496D02*
X3538504D01*
X3201496Y100000D02*
Y300000D01*
Y100000D02*
X3538504D01*
X4300000Y750000D02*
Y950000D01*
X4200000D02*
X4300000D01*
X4200000Y750000D02*
Y950000D01*
Y750000D02*
X4300000D01*
X4400000D02*
Y950000D01*
Y750000D02*
X4500000D01*
Y950000D01*
X4400000D02*
X4500000D01*
X1000000Y2150000D02*
X1200000D01*
Y2250000D01*
X1000000D02*
X1200000D01*
X1000000Y2150000D02*
Y2250000D01*
X3200000Y800000D02*
X3400000D01*
Y900000D01*
X3200000D02*
X3400000D01*
X3200000Y800000D02*
Y900000D01*
X4350000Y5100000D02*
X4550000D01*
Y5200000D01*
X4350000D02*
X4550000D01*
X4350000Y5100000D02*
Y5200000D01*
X2650000Y5100000D02*
X2850000D01*
Y5200000D01*
X2650000D02*
X2850000D01*
X2650000Y5100000D02*
Y5200000D01*
X3500000Y5100000D02*
X3700000D01*
Y5200000D01*
X3500000D02*
X3700000D01*
X3500000Y5100000D02*
Y5200000D01*
X1700000Y2150000D02*
X1900000D01*
Y2250000D01*
X1700000D02*
X1900000D01*
X1700000Y2150000D02*
Y2250000D01*
X4710000Y2130000D02*
X4910000D01*
X4710000Y2030000D02*
Y2130000D01*
Y2030000D02*
X4910000D01*
Y2130000D01*
X3900000Y900000D02*
X4100000D01*
X3900000Y800000D02*
Y900000D01*
Y800000D02*
X4100000D01*
Y900000D01*
X200000Y1300000D02*
X400000D01*
Y1400000D01*
X200000D02*
X400000D01*
X200000Y1300000D02*
Y1400000D01*
X5200000Y5100000D02*
X5400000D01*
Y5200000D01*
X5200000D02*
X5400000D01*
X5200000Y5100000D02*
Y5200000D01*
X1800000Y3500000D02*
X2000000D01*
Y3600000D01*
X1800000D02*
X2000000D01*
X1800000Y3500000D02*
Y3600000D01*
X1747500Y2407500D02*
X1895000Y2555000D01*
X1005000Y2405000D02*
Y3295000D01*
X1895000D01*
Y2405000D02*
Y3295000D01*
X1005000Y2405000D02*
X1895000D01*
X600000Y4390000D02*
Y4710000D01*
X800000D01*
Y4390000D02*
Y4710000D01*
X600000Y4390000D02*
X800000D01*
X150000Y3300000D02*
X450000D01*
Y2500000D02*
Y3300000D01*
X150000Y2500000D02*
X450000D01*
X150000D02*
Y3300000D01*
Y1550000D02*
X450000D01*
X150000D02*
Y2350000D01*
X450000D01*
Y1550000D02*
Y2350000D01*
X150000Y350000D02*
X450000D01*
X150000D02*
Y1150000D01*
X450000D01*
Y350000D02*
Y1150000D01*
X1800000Y4850000D02*
X2000000D01*
X1800000Y4750000D02*
Y4850000D01*
Y4750000D02*
X2000000D01*
Y4850000D01*
X2020000Y3960000D02*
Y4040000D01*
X1780000Y3960000D02*
X2020000D01*
X1780000D02*
Y4040000D01*
X2020000D01*
Y4000000D02*
X2060000D01*
X1740000D02*
X1780000D01*
X2075000Y4475000D02*
Y4625000D01*
X1725000Y4475000D02*
X2075000D01*
X1725000D02*
Y4625000D01*
X2075000D01*
X4200000Y1900000D02*
X4500000D01*
Y1100000D02*
Y1900000D01*
X4200000Y1100000D02*
X4500000D01*
X4200000D02*
Y1900000D01*
X6070866Y3818898D02*
X6151181D01*
X6229921D02*
X6588189D01*
X6070866Y118110D02*
X6151181D01*
X6229921D02*
X6588189D01*
Y3818898D01*
X6070866Y3624803D02*
Y3818898D01*
Y118110D02*
Y370276D01*
X1905276Y6954173D02*
X2314724D01*
Y6773071D02*
Y6954173D01*
X1905276Y6773071D02*
X2314724D01*
X1905276D02*
Y6954173D01*
X1905276Y6934488D02*
X2314724D01*
X2760000Y6750000D02*
Y6950000D01*
Y6750000D02*
X3080000D01*
Y6950000D01*
X2760000D02*
X3080000D01*
X2500000D02*
X2600000D01*
Y6750000D02*
Y6950000D01*
X2500000Y6750000D02*
X2600000D01*
X2500000D02*
Y6950000D01*
X1295000Y6805000D02*
X1745000D01*
Y6955000D01*
X1295000D02*
X1745000D01*
X1295000Y6805000D02*
Y6955000D01*
X1725000Y4175000D02*
Y4325000D01*
X2075000D01*
Y4175000D02*
Y4325000D01*
X1725000Y4175000D02*
X2075000D01*
X3793228Y552598D02*
Y627402D01*
X3946772D01*
X3793228Y552598D02*
X3946772D01*
X5800000Y5050000D02*
X6100000D01*
Y4250000D02*
Y5050000D01*
X5800000Y4250000D02*
X6100000D01*
X5800000D02*
Y5050000D01*
X2020000Y3770000D02*
Y3850000D01*
X1780000Y3770000D02*
X2020000D01*
X1780000D02*
Y3850000D01*
X2020000D01*
Y3810000D02*
X2060000D01*
X1740000D02*
X1780000D01*
X2850000Y250000D02*
Y750000D01*
X3010000Y250000D02*
Y750000D01*
X2850000D02*
X3010000D01*
X2850000Y250000D02*
X3010000D01*
X4498504Y100000D02*
Y300000D01*
X4161496D02*
X4498504D01*
X4161496Y100000D02*
Y300000D01*
Y100000D02*
X4498504D01*
X3205000Y1795000D02*
X3352500Y1942500D01*
X4095000Y1055000D02*
Y1945000D01*
X3205000Y1055000D02*
X4095000D01*
X3205000D02*
Y1945000D01*
X4095000D01*
X996063Y3500000D02*
Y5000000D01*
X1503937Y3500000D02*
Y5000000D01*
X996063D02*
X1225000D01*
X1275000D02*
X1503937D01*
X996063Y3500000D02*
X1503937D01*
X325000Y2635000D02*
Y2615006D01*
Y2625003D01*
X384981D01*
X374984Y2635000D01*
Y2585016D02*
X384981Y2575019D01*
Y2555026D01*
X374984Y2545029D01*
X334997D01*
X325000Y2555026D01*
Y2575019D01*
X334997Y2585016D01*
X374984D01*
X275000Y2215000D02*
Y2234994D01*
Y2224997D01*
X215019D01*
X225016Y2215000D01*
Y2264984D02*
X215019Y2274981D01*
Y2294974D01*
X225016Y2304971D01*
X265003D01*
X275000Y2294974D01*
Y2274981D01*
X265003Y2264984D01*
X225016D01*
X275000Y1015000D02*
Y1034994D01*
Y1024997D01*
X215020D01*
X225016Y1015000D01*
Y1064984D02*
X215020Y1074981D01*
Y1094974D01*
X225016Y1104971D01*
X265003D01*
X275000Y1094974D01*
Y1074981D01*
X265003Y1064984D01*
X225016D01*
X2480000Y2450000D02*
Y2509981D01*
X2519987Y2450000D01*
Y2509981D01*
X2549977Y2489987D02*
X2569971D01*
X2579968Y2479990D01*
Y2450000D01*
X2549977D01*
X2539981Y2459997D01*
X2549977Y2469994D01*
X2579968D01*
X2609958Y2450000D02*
X2629952D01*
X2639948Y2459997D01*
Y2479990D01*
X2629952Y2489987D01*
X2609958D01*
X2599961Y2479990D01*
Y2459997D01*
X2609958Y2450000D01*
X2659942D02*
Y2509981D01*
Y2469994D02*
X2689932Y2489987D01*
X2659942Y2469994D02*
X2689932Y2450000D01*
X2719922D02*
X2739916D01*
X2729919D01*
Y2489987D01*
X2719922D01*
X2829887Y2450000D02*
Y2509981D01*
X2859877D01*
X2869874Y2499984D01*
Y2479990D01*
X2859877Y2469994D01*
X2829887D01*
X2889867Y2489987D02*
Y2450000D01*
Y2469994D01*
X2899864Y2479990D01*
X2909861Y2489987D01*
X2919858D01*
X2959845Y2450000D02*
X2979838D01*
X2989835Y2459997D01*
Y2479990D01*
X2979838Y2489987D01*
X2959845D01*
X2949848Y2479990D01*
Y2459997D01*
X2959845Y2450000D01*
X3009829D02*
X3039819D01*
X3049816Y2459997D01*
X3039819Y2469994D01*
X3019825D01*
X3009829Y2479990D01*
X3019825Y2489987D01*
X3049816D01*
X3069809Y2450000D02*
X3099800D01*
X3109796Y2459997D01*
X3099800Y2469994D01*
X3079806D01*
X3069809Y2479990D01*
X3079806Y2489987D01*
X3109796D01*
X3189770Y2499984D02*
X3199767Y2509981D01*
X3219761D01*
X3229758Y2499984D01*
Y2489987D01*
X3219761Y2479990D01*
X3209764D01*
X3219761D01*
X3229758Y2469994D01*
Y2459997D01*
X3219761Y2450000D01*
X3199767D01*
X3189770Y2459997D01*
X3289738Y2509981D02*
X3249751D01*
Y2450000D01*
X3289738D01*
X3249751Y2479990D02*
X3269744D01*
X3369712D02*
X3409699D01*
X3529660Y2499984D02*
X3519664Y2509981D01*
X3499670D01*
X3489673Y2499984D01*
Y2489987D01*
X3499670Y2479990D01*
X3519664D01*
X3529660Y2469994D01*
Y2459997D01*
X3519664Y2450000D01*
X3499670D01*
X3489673Y2459997D01*
X3549654Y2450000D02*
Y2489987D01*
X3569648Y2509981D01*
X3589641Y2489987D01*
Y2450000D01*
Y2479990D01*
X3549654D01*
X3609635Y2450000D02*
Y2509981D01*
X3629628Y2489987D01*
X3649622Y2509981D01*
Y2450000D01*
X3729596Y2509981D02*
Y2450000D01*
X3759586D01*
X3769583Y2459997D01*
Y2469994D01*
X3759586Y2479990D01*
X3729596D01*
X3759586D01*
X3769583Y2489987D01*
Y2499984D01*
X3759586Y2509981D01*
X3729596D01*
X3819567Y2450000D02*
X3799573D01*
X3789576Y2459997D01*
Y2479990D01*
X3799573Y2489987D01*
X3819567D01*
X3829564Y2479990D01*
Y2469994D01*
X3789576D01*
X3849557Y2450000D02*
X3869550D01*
X3859554D01*
Y2509981D01*
X3849557D01*
X3899541Y2450000D02*
X3919534D01*
X3909538D01*
Y2509981D01*
X3899541D01*
X3949525Y2450000D02*
X3969518D01*
X3959521D01*
Y2489987D01*
X3949525D01*
X3999508Y2450000D02*
Y2489987D01*
X4029499D01*
X4039495Y2479990D01*
Y2450000D01*
X4059489Y2489987D02*
X4099476D01*
X4059489Y2450000D01*
X4099476D01*
X4129466D02*
X4149460D01*
X4159457Y2459997D01*
Y2479990D01*
X4149460Y2489987D01*
X4129466D01*
X4119470Y2479990D01*
Y2459997D01*
X4129466Y2450000D01*
X4179450D02*
Y2489987D01*
X4209440D01*
X4219437Y2479990D01*
Y2450000D01*
X4249428Y2489987D02*
X4269421D01*
X4279418Y2479990D01*
Y2450000D01*
X4249428D01*
X4239431Y2459997D01*
X4249428Y2469994D01*
X4279418D01*
X4459360Y2450000D02*
X4419373D01*
X4459360Y2489987D01*
Y2499984D01*
X4449363Y2509981D01*
X4429369D01*
X4419373Y2499984D01*
X4479353D02*
X4489350Y2509981D01*
X4509343D01*
X4519340Y2499984D01*
Y2459997D01*
X4509343Y2450000D01*
X4489350D01*
X4479353Y2459997D01*
Y2499984D01*
X4539334Y2450000D02*
X4559327D01*
X4549331D01*
Y2509981D01*
X4539334Y2499984D01*
X4589318Y2509981D02*
X4629305D01*
Y2499984D01*
X4589318Y2459997D01*
Y2450000D01*
X4375000Y1235000D02*
Y1215006D01*
Y1225003D01*
X4434981D01*
X4424984Y1235000D01*
Y1185016D02*
X4434981Y1175019D01*
Y1155026D01*
X4424984Y1145029D01*
X4384997D01*
X4375000Y1155026D01*
Y1175019D01*
X4384997Y1185016D01*
X4424984D01*
X5975000Y4385000D02*
Y4365007D01*
Y4375003D01*
X6034980D01*
X6024984Y4385000D01*
Y4335016D02*
X6034980Y4325020D01*
Y4305026D01*
X6024984Y4295029D01*
X5984997D01*
X5975000Y4305026D01*
Y4325020D01*
X5984997Y4335016D01*
X6024984D01*
X114987Y7049981D02*
X94993D01*
X104990D01*
Y6999997D01*
X94993Y6990000D01*
X84997D01*
X75000Y6999997D01*
X174968Y6990000D02*
X134981D01*
X174968Y7029987D01*
Y7039984D01*
X164971Y7049981D01*
X144977D01*
X134981Y7039984D01*
X-230533Y4810461D02*
X-250526D01*
X-240529D01*
Y4760477D01*
X-250526Y4750480D01*
X-260523D01*
X-270520Y4760477D01*
X-210539Y4750480D02*
X-190546D01*
X-200542D01*
Y4810461D01*
X-210539Y4800464D01*
X1710000Y4719981D02*
Y4709984D01*
X1729994Y4689990D01*
X1749987Y4709984D01*
Y4719981D01*
X1729994Y4689990D02*
Y4660000D01*
X1769981D02*
X1789974D01*
X1779977D01*
Y4719981D01*
X1769981Y4709984D01*
X4637480Y1991461D02*
Y1941477D01*
X4647477Y1931480D01*
X4667471D01*
X4677467Y1941477D01*
Y1991461D01*
X4697461Y1931480D02*
X4717454D01*
X4707458D01*
Y1991461D01*
X4697461Y1981464D01*
X4747445Y1991461D02*
X4787432D01*
Y1981464D01*
X4747445Y1941477D01*
Y1931480D01*
X4637480Y1040461D02*
Y990477D01*
X4647477Y980480D01*
X4667471D01*
X4677467Y990477D01*
Y1040461D01*
X4697461Y980480D02*
X4717454D01*
X4707458D01*
Y1040461D01*
X4697461Y1030464D01*
X4787432Y1040461D02*
X4767438Y1030464D01*
X4747445Y1010471D01*
Y990477D01*
X4757441Y980480D01*
X4777435D01*
X4787432Y990477D01*
Y1000474D01*
X4777435Y1010471D01*
X4747445D01*
X227480Y6489461D02*
Y6439477D01*
X237477Y6429480D01*
X257471D01*
X267467Y6439477D01*
Y6489461D01*
X287461Y6429480D02*
X307454D01*
X297458D01*
Y6489461D01*
X287461Y6479464D01*
X377432Y6489461D02*
X337445D01*
Y6459471D01*
X357438Y6469467D01*
X367435D01*
X377432Y6459471D01*
Y6439477D01*
X367435Y6429480D01*
X347442D01*
X337445Y6439477D01*
X1777480Y6489461D02*
Y6439477D01*
X1787477Y6429480D01*
X1807471D01*
X1817467Y6439477D01*
Y6489461D01*
X1837461Y6429480D02*
X1857454D01*
X1847458D01*
Y6489461D01*
X1837461Y6479464D01*
X1917435Y6429480D02*
Y6489461D01*
X1887445Y6459471D01*
X1927432D01*
X4219480Y6489461D02*
Y6439477D01*
X4229477Y6429480D01*
X4249471D01*
X4259467Y6439477D01*
Y6489461D01*
X4279461Y6429480D02*
X4299454D01*
X4289458D01*
Y6489461D01*
X4279461Y6479464D01*
X4329445D02*
X4339441Y6489461D01*
X4359435D01*
X4369432Y6479464D01*
Y6469467D01*
X4359435Y6459471D01*
X4349438D01*
X4359435D01*
X4369432Y6449474D01*
Y6439477D01*
X4359435Y6429480D01*
X4339441D01*
X4329445Y6439477D01*
X5777480Y6489461D02*
Y6439477D01*
X5787477Y6429480D01*
X5807471D01*
X5817467Y6439477D01*
Y6489461D01*
X5837461Y6429480D02*
X5857454D01*
X5847458D01*
Y6489461D01*
X5837461Y6479464D01*
X5887445Y6429480D02*
X5907438D01*
X5897441D01*
Y6489461D01*
X5887445Y6479464D01*
X612480Y922461D02*
Y872477D01*
X622477Y862480D01*
X642471D01*
X652467Y872477D01*
Y922461D01*
X672461Y872477D02*
X682458Y862480D01*
X702451D01*
X712448Y872477D01*
Y912464D01*
X702451Y922461D01*
X682458D01*
X672461Y912464D01*
Y902467D01*
X682458Y892471D01*
X712448D01*
X4977480Y5093461D02*
Y5043477D01*
X4987477Y5033480D01*
X5007471D01*
X5017467Y5043477D01*
Y5093461D01*
X5037461Y5083464D02*
X5047458Y5093461D01*
X5067451D01*
X5077448Y5083464D01*
Y5073467D01*
X5067451Y5063471D01*
X5077448Y5053474D01*
Y5043477D01*
X5067451Y5033480D01*
X5047458D01*
X5037461Y5043477D01*
Y5053474D01*
X5047458Y5063471D01*
X5037461Y5073467D01*
Y5083464D01*
X5047458Y5063471D02*
X5067451D01*
X927480Y5095461D02*
Y5045477D01*
X937477Y5035480D01*
X957471D01*
X967467Y5045477D01*
Y5095461D01*
X987461D02*
X1027448D01*
Y5085464D01*
X987461Y5045477D01*
Y5035480D01*
X1010480Y3390461D02*
Y3340477D01*
X1020477Y3330480D01*
X1040471D01*
X1050467Y3340477D01*
Y3390461D01*
X1110448D02*
X1090454Y3380464D01*
X1070461Y3360471D01*
Y3340477D01*
X1080458Y3330480D01*
X1100451D01*
X1110448Y3340477D01*
Y3350474D01*
X1100451Y3360471D01*
X1070461D01*
X2427480Y5093461D02*
Y5043477D01*
X2437477Y5033480D01*
X2457471D01*
X2467467Y5043477D01*
Y5093461D01*
X2527448D02*
X2487461D01*
Y5063471D01*
X2507454Y5073467D01*
X2517451D01*
X2527448Y5063471D01*
Y5043477D01*
X2517451Y5033480D01*
X2497458D01*
X2487461Y5043477D01*
X3210480Y2040461D02*
Y1990477D01*
X3220477Y1980480D01*
X3240471D01*
X3250467Y1990477D01*
Y2040461D01*
X3300451Y1980480D02*
Y2040461D01*
X3270461Y2010471D01*
X3310448D01*
X4127480Y5093461D02*
Y5043477D01*
X4137477Y5033480D01*
X4157471D01*
X4167467Y5043477D01*
Y5093461D01*
X4187461Y5083464D02*
X4197458Y5093461D01*
X4217451D01*
X4227448Y5083464D01*
Y5073467D01*
X4217451Y5063471D01*
X4207454D01*
X4217451D01*
X4227448Y5053474D01*
Y5043477D01*
X4217451Y5033480D01*
X4197458D01*
X4187461Y5043477D01*
X3277480Y5093461D02*
Y5043477D01*
X3287477Y5033480D01*
X3307471D01*
X3317467Y5043477D01*
Y5093461D01*
X3377448Y5033480D02*
X3337461D01*
X3377448Y5073467D01*
Y5083464D01*
X3367451Y5093461D01*
X3347458D01*
X3337461Y5083464D01*
X612480Y2122461D02*
Y2072477D01*
X622477Y2062480D01*
X642471D01*
X652467Y2072477D01*
Y2122461D01*
X672461Y2062480D02*
X692454D01*
X682458D01*
Y2122461D01*
X672461Y2112464D01*
X3246467Y385464D02*
X3236471Y395461D01*
X3216477D01*
X3206480Y385464D01*
Y375467D01*
X3216477Y365471D01*
X3236471D01*
X3246467Y355474D01*
Y345477D01*
X3236471Y335480D01*
X3216477D01*
X3206480Y345477D01*
X3306448Y395461D02*
X3266461D01*
Y365471D01*
X3286454Y375467D01*
X3296451D01*
X3306448Y365471D01*
Y345477D01*
X3296451Y335480D01*
X3276458D01*
X3266461Y345477D01*
X4206467Y385464D02*
X4196471Y395461D01*
X4176477D01*
X4166480Y385464D01*
Y375467D01*
X4176477Y365471D01*
X4196471D01*
X4206467Y355474D01*
Y345477D01*
X4196471Y335480D01*
X4176477D01*
X4166480Y345477D01*
X4256451Y335480D02*
Y395461D01*
X4226461Y365471D01*
X4266448D01*
X645467Y4795464D02*
X635471Y4805461D01*
X615477D01*
X605480Y4795464D01*
Y4785467D01*
X615477Y4775471D01*
X635471D01*
X645467Y4765474D01*
Y4755477D01*
X635471Y4745480D01*
X615477D01*
X605480Y4755477D01*
X705448Y4745480D02*
X665461D01*
X705448Y4785467D01*
Y4795464D01*
X695451Y4805461D01*
X675458D01*
X665461Y4795464D01*
X2895467Y835464D02*
X2885471Y845461D01*
X2865477D01*
X2855480Y835464D01*
Y825467D01*
X2865477Y815471D01*
X2885471D01*
X2895467Y805474D01*
Y795477D01*
X2885471Y785480D01*
X2865477D01*
X2855480Y795477D01*
X2915461Y785480D02*
X2935454D01*
X2925458D01*
Y845461D01*
X2915461Y835464D01*
X5102480Y423480D02*
Y483461D01*
X5132471D01*
X5142467Y473464D01*
Y453471D01*
X5132471Y443474D01*
X5102480D01*
X5122474D02*
X5142467Y423480D01*
X5162461Y483461D02*
X5202448D01*
Y473464D01*
X5162461Y433477D01*
Y423480D01*
X4598480D02*
Y483461D01*
X4628471D01*
X4638467Y473464D01*
Y453471D01*
X4628471Y443474D01*
X4598480D01*
X4618474D02*
X4638467Y423480D01*
X4698448Y483461D02*
X4678454Y473464D01*
X4658461Y453471D01*
Y433477D01*
X4668458Y423480D01*
X4688451D01*
X4698448Y433477D01*
Y443474D01*
X4688451Y453471D01*
X4658461D01*
X3652480Y423480D02*
Y483461D01*
X3682471D01*
X3692467Y473464D01*
Y453471D01*
X3682471Y443474D01*
X3652480D01*
X3672474D02*
X3692467Y423480D01*
X3752448Y483461D02*
X3712461D01*
Y453471D01*
X3732454Y463467D01*
X3742451D01*
X3752448Y453471D01*
Y433477D01*
X3742451Y423480D01*
X3722458D01*
X3712461Y433477D01*
X4598480Y223480D02*
Y283461D01*
X4628471D01*
X4638467Y273464D01*
Y253471D01*
X4628471Y243474D01*
X4598480D01*
X4618474D02*
X4638467Y223480D01*
X4688451D02*
Y283461D01*
X4658461Y253471D01*
X4698448D01*
X3652480Y223480D02*
Y283461D01*
X3682471D01*
X3692467Y273464D01*
Y253471D01*
X3682471Y243474D01*
X3652480D01*
X3672474D02*
X3692467Y223480D01*
X3712461Y273464D02*
X3722458Y283461D01*
X3742451D01*
X3752448Y273464D01*
Y263467D01*
X3742451Y253471D01*
X3732454D01*
X3742451D01*
X3752448Y243474D01*
Y233477D01*
X3742451Y223480D01*
X3722458D01*
X3712461Y233477D01*
X1700000Y4070000D02*
Y4129981D01*
X1729990D01*
X1739987Y4119984D01*
Y4099990D01*
X1729990Y4089994D01*
X1700000D01*
X1719994D02*
X1739987Y4070000D01*
X1799968D02*
X1759981D01*
X1799968Y4109987D01*
Y4119984D01*
X1789971Y4129981D01*
X1769977D01*
X1759981Y4119984D01*
X1700000Y3870000D02*
Y3929981D01*
X1729990D01*
X1739987Y3919984D01*
Y3899990D01*
X1729990Y3889994D01*
X1700000D01*
X1719994D02*
X1739987Y3870000D01*
X1759981D02*
X1779974D01*
X1769977D01*
Y3929981D01*
X1759981Y3919984D01*
X4400000Y1930000D02*
Y1989981D01*
X4429990D01*
X4439987Y1979984D01*
Y1959990D01*
X4429990Y1949994D01*
X4400000D01*
X4459981Y1989981D02*
X4499968D01*
Y1979984D01*
X4459981Y1939997D01*
Y1930000D01*
X155480Y1185480D02*
Y1245461D01*
X185471D01*
X195467Y1235464D01*
Y1215471D01*
X185471Y1205474D01*
X155480D01*
X255448Y1245461D02*
X215461D01*
Y1215471D01*
X235454Y1225467D01*
X245451D01*
X255448Y1215471D01*
Y1195477D01*
X245451Y1185480D01*
X225458D01*
X215461Y1195477D01*
X155480Y2385480D02*
Y2445461D01*
X185471D01*
X195467Y2435464D01*
Y2415471D01*
X185471Y2405474D01*
X155480D01*
X245451Y2385480D02*
Y2445461D01*
X215461Y2415471D01*
X255448D01*
X155480Y3335480D02*
Y3395461D01*
X185471D01*
X195467Y3385464D01*
Y3365471D01*
X185471Y3355474D01*
X155480D01*
X215461Y3385464D02*
X225458Y3395461D01*
X245451D01*
X255448Y3385464D01*
Y3375467D01*
X245451Y3365471D01*
X235454D01*
X245451D01*
X255448Y3355474D01*
Y3345477D01*
X245451Y3335480D01*
X225458D01*
X215461Y3345477D01*
X606480Y3388480D02*
Y3448461D01*
X636471D01*
X646467Y3438464D01*
Y3418471D01*
X636471Y3408474D01*
X606480D01*
X706448Y3388480D02*
X666461D01*
X706448Y3428467D01*
Y3438464D01*
X696451Y3448461D01*
X676458D01*
X666461Y3438464D01*
X5805480Y5085480D02*
Y5145461D01*
X5835471D01*
X5845467Y5135464D01*
Y5115471D01*
X5835471Y5105474D01*
X5805480D01*
X5865461Y5085480D02*
X5885454D01*
X5875458D01*
Y5145461D01*
X5865461Y5135464D01*
X654480Y6496461D02*
Y6436480D01*
X684471D01*
X694467Y6446477D01*
Y6486464D01*
X684471Y6496461D01*
X654480D01*
X754448Y6486464D02*
X744451Y6496461D01*
X724458D01*
X714461Y6486464D01*
Y6476467D01*
X724458Y6466471D01*
X744451D01*
X754448Y6456474D01*
Y6446477D01*
X744451Y6436480D01*
X724458D01*
X714461Y6446477D01*
X814429Y6496461D02*
X794435Y6486464D01*
X774442Y6466471D01*
Y6446477D01*
X784438Y6436480D01*
X804432D01*
X814429Y6446477D01*
Y6456474D01*
X804432Y6466471D01*
X774442D01*
X1204480Y6496461D02*
Y6436480D01*
X1234471D01*
X1244467Y6446477D01*
Y6486464D01*
X1234471Y6496461D01*
X1204480D01*
X1304448Y6486464D02*
X1294451Y6496461D01*
X1274458D01*
X1264461Y6486464D01*
Y6476467D01*
X1274458Y6466471D01*
X1294451D01*
X1304448Y6456474D01*
Y6446477D01*
X1294451Y6436480D01*
X1274458D01*
X1264461Y6446477D01*
X1364429Y6496461D02*
X1324441D01*
Y6466471D01*
X1344435Y6476467D01*
X1354432D01*
X1364429Y6466471D01*
Y6446477D01*
X1354432Y6436480D01*
X1334438D01*
X1324441Y6446477D01*
X4654480Y6496461D02*
Y6436480D01*
X4684471D01*
X4694467Y6446477D01*
Y6486464D01*
X4684471Y6496461D01*
X4654480D01*
X4754448Y6486464D02*
X4744451Y6496461D01*
X4724458D01*
X4714461Y6486464D01*
Y6476467D01*
X4724458Y6466471D01*
X4744451D01*
X4754448Y6456474D01*
Y6446477D01*
X4744451Y6436480D01*
X4724458D01*
X4714461Y6446477D01*
X4804432Y6436480D02*
Y6496461D01*
X4774441Y6466471D01*
X4814429D01*
X5204480Y6496461D02*
Y6436480D01*
X5234471D01*
X5244467Y6446477D01*
Y6486464D01*
X5234471Y6496461D01*
X5204480D01*
X5304448Y6486464D02*
X5294451Y6496461D01*
X5274458D01*
X5264461Y6486464D01*
Y6476467D01*
X5274458Y6466471D01*
X5294451D01*
X5304448Y6456474D01*
Y6446477D01*
X5294451Y6436480D01*
X5274458D01*
X5264461Y6446477D01*
X5364429Y6436480D02*
X5324441D01*
X5364429Y6476467D01*
Y6486464D01*
X5354432Y6496461D01*
X5334438D01*
X5324441Y6486464D01*
X5100480Y281461D02*
Y221480D01*
X5130471D01*
X5140467Y231477D01*
Y271464D01*
X5130471Y281461D01*
X5100480D01*
X5200448Y221480D02*
X5160461D01*
X5200448Y261467D01*
Y271464D01*
X5190451Y281461D01*
X5170458D01*
X5160461Y271464D01*
X3710480Y722461D02*
Y662480D01*
X3740471D01*
X3750467Y672477D01*
Y712464D01*
X3740471Y722461D01*
X3710480D01*
X3770461Y662480D02*
X3790454D01*
X3780458D01*
Y722461D01*
X3770461Y712464D01*
X4755467Y2215464D02*
X4745471Y2225461D01*
X4725477D01*
X4715480Y2215464D01*
Y2175477D01*
X4725477Y2165480D01*
X4745471D01*
X4755467Y2175477D01*
X4815448Y2165480D02*
X4775461D01*
X4815448Y2205467D01*
Y2215464D01*
X4805451Y2225461D01*
X4785458D01*
X4775461Y2215464D01*
X4835441D02*
X4845438Y2225461D01*
X4865432D01*
X4875429Y2215464D01*
Y2205467D01*
X4865432Y2195471D01*
X4855435D01*
X4865432D01*
X4875429Y2185474D01*
Y2175477D01*
X4865432Y2165480D01*
X4845438D01*
X4835441Y2175477D01*
X3945467Y985464D02*
X3935471Y995461D01*
X3915477D01*
X3905480Y985464D01*
Y945477D01*
X3915477Y935480D01*
X3935471D01*
X3945467Y945477D01*
X4005448Y935480D02*
X3965461D01*
X4005448Y975467D01*
Y985464D01*
X3995451Y995461D01*
X3975458D01*
X3965461Y985464D01*
X4065429Y935480D02*
X4025441D01*
X4065429Y975467D01*
Y985464D01*
X4055432Y995461D01*
X4035438D01*
X4025441Y985464D01*
X245467Y1485464D02*
X235471Y1495461D01*
X215477D01*
X205480Y1485464D01*
Y1445477D01*
X215477Y1435480D01*
X235471D01*
X245467Y1445477D01*
X305448Y1435480D02*
X265461D01*
X305448Y1475467D01*
Y1485464D01*
X295451Y1495461D01*
X275458D01*
X265461Y1485464D01*
X325442Y1435480D02*
X345435D01*
X335438D01*
Y1495461D01*
X325442Y1485464D01*
X5245467Y5285464D02*
X5235471Y5295461D01*
X5215477D01*
X5205480Y5285464D01*
Y5245477D01*
X5215477Y5235480D01*
X5235471D01*
X5245467Y5245477D01*
X5305448Y5235480D02*
X5265461D01*
X5305448Y5275467D01*
Y5285464D01*
X5295451Y5295461D01*
X5275458D01*
X5265461Y5285464D01*
X5325441D02*
X5335438Y5295461D01*
X5355432D01*
X5365429Y5285464D01*
Y5245477D01*
X5355432Y5235480D01*
X5335438D01*
X5325441Y5245477D01*
Y5285464D01*
X1845467Y3685464D02*
X1835471Y3695461D01*
X1815477D01*
X1805480Y3685464D01*
Y3645477D01*
X1815477Y3635480D01*
X1835471D01*
X1845467Y3645477D01*
X1865461Y3635480D02*
X1885454D01*
X1875458D01*
Y3695461D01*
X1865461Y3685464D01*
X1915445Y3645477D02*
X1925441Y3635480D01*
X1945435D01*
X1955432Y3645477D01*
Y3685464D01*
X1945435Y3695461D01*
X1925441D01*
X1915445Y3685464D01*
Y3675467D01*
X1925441Y3665471D01*
X1955432D01*
X1045467Y2335464D02*
X1035471Y2345461D01*
X1015477D01*
X1005480Y2335464D01*
Y2295477D01*
X1015477Y2285480D01*
X1035471D01*
X1045467Y2295477D01*
X1065461Y2285480D02*
X1085454D01*
X1075458D01*
Y2345461D01*
X1065461Y2335464D01*
X1115445D02*
X1125441Y2345461D01*
X1145435D01*
X1155432Y2335464D01*
Y2325467D01*
X1145435Y2315471D01*
X1155432Y2305474D01*
Y2295477D01*
X1145435Y2285480D01*
X1125441D01*
X1115445Y2295477D01*
Y2305474D01*
X1125441Y2315471D01*
X1115445Y2325467D01*
Y2335464D01*
X1125441Y2315471D02*
X1145435D01*
X3245467Y985464D02*
X3235471Y995461D01*
X3215477D01*
X3205480Y985464D01*
Y945477D01*
X3215477Y935480D01*
X3235471D01*
X3245467Y945477D01*
X3265461Y935480D02*
X3285454D01*
X3275458D01*
Y995461D01*
X3265461Y985464D01*
X3315445Y995461D02*
X3355432D01*
Y985464D01*
X3315445Y945477D01*
Y935480D01*
X4395467Y5285464D02*
X4385471Y5295461D01*
X4365477D01*
X4355480Y5285464D01*
Y5245477D01*
X4365477Y5235480D01*
X4385471D01*
X4395467Y5245477D01*
X4415461Y5235480D02*
X4435454D01*
X4425458D01*
Y5295461D01*
X4415461Y5285464D01*
X4505432Y5295461D02*
X4485438Y5285464D01*
X4465445Y5265471D01*
Y5245477D01*
X4475441Y5235480D01*
X4495435D01*
X4505432Y5245477D01*
Y5255474D01*
X4495435Y5265471D01*
X4465445D01*
X2695467Y5285464D02*
X2685471Y5295461D01*
X2665477D01*
X2655480Y5285464D01*
Y5245477D01*
X2665477Y5235480D01*
X2685471D01*
X2695467Y5245477D01*
X2715461Y5235480D02*
X2735454D01*
X2725458D01*
Y5295461D01*
X2715461Y5285464D01*
X2805432Y5295461D02*
X2765445D01*
Y5265471D01*
X2785438Y5275467D01*
X2795435D01*
X2805432Y5265471D01*
Y5245477D01*
X2795435Y5235480D01*
X2775441D01*
X2765445Y5245477D01*
X3545467Y5285464D02*
X3535471Y5295461D01*
X3515477D01*
X3505480Y5285464D01*
Y5245477D01*
X3515477Y5235480D01*
X3535471D01*
X3545467Y5245477D01*
X3565461Y5235480D02*
X3585454D01*
X3575458D01*
Y5295461D01*
X3565461Y5285464D01*
X3645435Y5235480D02*
Y5295461D01*
X3615445Y5265471D01*
X3655432D01*
X1745467Y2335464D02*
X1735471Y2345461D01*
X1715477D01*
X1705480Y2335464D01*
Y2295477D01*
X1715477Y2285480D01*
X1735471D01*
X1745467Y2295477D01*
X1765461Y2285480D02*
X1785454D01*
X1775458D01*
Y2345461D01*
X1765461Y2335464D01*
X1815445D02*
X1825441Y2345461D01*
X1845435D01*
X1855432Y2335464D01*
Y2325467D01*
X1845435Y2315471D01*
X1835438D01*
X1845435D01*
X1855432Y2305474D01*
Y2295477D01*
X1845435Y2285480D01*
X1825441D01*
X1815445Y2295477D01*
X5151467Y1138464D02*
X5141471Y1148461D01*
X5121477D01*
X5111480Y1138464D01*
Y1098477D01*
X5121477Y1088480D01*
X5141471D01*
X5151467Y1098477D01*
X5171461Y1088480D02*
X5191454D01*
X5181458D01*
Y1148461D01*
X5171461Y1138464D01*
X5221445D02*
X5231441Y1148461D01*
X5251435D01*
X5261432Y1138464D01*
Y1098477D01*
X5251435Y1088480D01*
X5231441D01*
X5221445Y1098477D01*
Y1138464D01*
X4445467Y1035464D02*
X4435471Y1045461D01*
X4415477D01*
X4405480Y1035464D01*
Y995477D01*
X4415477Y985480D01*
X4435471D01*
X4445467Y995477D01*
X4465461D02*
X4475458Y985480D01*
X4495451D01*
X4505448Y995477D01*
Y1035464D01*
X4495451Y1045461D01*
X4475458D01*
X4465461Y1035464D01*
Y1025467D01*
X4475458Y1015471D01*
X4505448D01*
X4245467Y1035464D02*
X4235471Y1045461D01*
X4215477D01*
X4205480Y1035464D01*
Y995477D01*
X4215477Y985480D01*
X4235471D01*
X4245467Y995477D01*
X4265461Y1035464D02*
X4275458Y1045461D01*
X4295451D01*
X4305448Y1035464D01*
Y1025467D01*
X4295451Y1015471D01*
X4305448Y1005474D01*
Y995477D01*
X4295451Y985480D01*
X4275458D01*
X4265461Y995477D01*
Y1005474D01*
X4275458Y1015471D01*
X4265461Y1025467D01*
Y1035464D01*
X4275458Y1015471D02*
X4295451D01*
X3595467Y985464D02*
X3585471Y995461D01*
X3565477D01*
X3555480Y985464D01*
Y945477D01*
X3565477Y935480D01*
X3585471D01*
X3595467Y945477D01*
X3615461Y995461D02*
X3655448D01*
Y985464D01*
X3615461Y945477D01*
Y935480D01*
X1749987Y4419984D02*
X1739990Y4429981D01*
X1719997D01*
X1710000Y4419984D01*
Y4379997D01*
X1719997Y4370000D01*
X1739990D01*
X1749987Y4379997D01*
X1809968Y4429981D02*
X1789974Y4419984D01*
X1769981Y4399990D01*
Y4379997D01*
X1779977Y4370000D01*
X1799971D01*
X1809968Y4379997D01*
Y4389993D01*
X1799971Y4399990D01*
X1769981D01*
X1889987Y4929984D02*
X1879990Y4939981D01*
X1859997D01*
X1850000Y4929984D01*
Y4889997D01*
X1859997Y4880000D01*
X1879990D01*
X1889987Y4889997D01*
X1949968Y4939981D02*
X1909981D01*
Y4909990D01*
X1929974Y4919987D01*
X1939971D01*
X1949968Y4909990D01*
Y4889997D01*
X1939971Y4880000D01*
X1919977D01*
X1909981Y4889997D01*
X191467Y5088464D02*
X181471Y5098461D01*
X161477D01*
X151480Y5088464D01*
Y5048477D01*
X161477Y5038480D01*
X181471D01*
X191467Y5048477D01*
X241451Y5038480D02*
Y5098461D01*
X211461Y5068471D01*
X251448D01*
X191467Y5378464D02*
X181471Y5388461D01*
X161477D01*
X151480Y5378464D01*
Y5338477D01*
X161477Y5328480D01*
X181471D01*
X191467Y5338477D01*
X211461Y5378464D02*
X221458Y5388461D01*
X241451D01*
X251448Y5378464D01*
Y5368467D01*
X241451Y5358471D01*
X231454D01*
X241451D01*
X251448Y5348474D01*
Y5338477D01*
X241451Y5328480D01*
X221458D01*
X211461Y5338477D01*
X751467Y5378464D02*
X741471Y5388461D01*
X721477D01*
X711480Y5378464D01*
Y5338477D01*
X721477Y5328480D01*
X741471D01*
X751467Y5338477D01*
X811448Y5328480D02*
X771461D01*
X811448Y5368467D01*
Y5378464D01*
X801451Y5388461D01*
X781458D01*
X771461Y5378464D01*
X1301467D02*
X1291471Y5388461D01*
X1271477D01*
X1261480Y5378464D01*
Y5338477D01*
X1271477Y5328480D01*
X1291471D01*
X1301467Y5338477D01*
X1321461Y5328480D02*
X1341454D01*
X1331458D01*
Y5388461D01*
X1321461Y5378464D01*
X1340467Y7040464D02*
X1330471Y7050461D01*
X1310477D01*
X1300480Y7040464D01*
Y7000477D01*
X1310477Y6990480D01*
X1330471D01*
X1340467Y7000477D01*
X1360461Y6990480D02*
X1380454D01*
X1370458D01*
Y7050461D01*
X1360461Y7040464D01*
X1410445Y6990480D02*
X1430438D01*
X1420441D01*
Y7050461D01*
X1410445Y7040464D01*
X2545467Y7035464D02*
X2535471Y7045461D01*
X2515477D01*
X2505480Y7035464D01*
Y6995477D01*
X2515477Y6985480D01*
X2535471D01*
X2545467Y6995477D01*
X2565461Y6985480D02*
X2585454D01*
X2575458D01*
Y7045461D01*
X2565461Y7035464D01*
X2655432Y6985480D02*
X2615445D01*
X2655432Y7025467D01*
Y7035464D01*
X2645435Y7045461D01*
X2625441D01*
X2615445Y7035464D01*
X2805467D02*
X2795471Y7045461D01*
X2775477D01*
X2765480Y7035464D01*
Y7025467D01*
X2775477Y7015471D01*
X2795471D01*
X2805467Y7005474D01*
Y6995477D01*
X2795471Y6985480D01*
X2775477D01*
X2765480Y6995477D01*
X2825461Y7035464D02*
X2835458Y7045461D01*
X2855451D01*
X2865448Y7035464D01*
Y7025467D01*
X2855451Y7015471D01*
X2845454D01*
X2855451D01*
X2865448Y7005474D01*
Y6995477D01*
X2855451Y6985480D01*
X2835458D01*
X2825461Y6995477D01*
X1910480Y7049461D02*
Y6999477D01*
X1920477Y6989480D01*
X1940471D01*
X1950467Y6999477D01*
Y7049461D01*
X1970461Y6989480D02*
X1990454D01*
X1980458D01*
Y7049461D01*
X1970461Y7039464D01*
X2020445D02*
X2030441Y7049461D01*
X2050435D01*
X2060432Y7039464D01*
Y7029467D01*
X2050435Y7019471D01*
X2060432Y7009474D01*
Y6999477D01*
X2050435Y6989480D01*
X2030441D01*
X2020445Y6999477D01*
Y7009474D01*
X2030441Y7019471D01*
X2020445Y7029467D01*
Y7039464D01*
X2030441Y7019471D02*
X2050435D01*
X5788480Y3853480D02*
Y3913461D01*
X5818471D01*
X5828467Y3903464D01*
Y3883471D01*
X5818471Y3873474D01*
X5788480D01*
X5888448Y3913461D02*
X5868454Y3903464D01*
X5848461Y3883471D01*
Y3863477D01*
X5858458Y3853480D01*
X5878451D01*
X5888448Y3863477D01*
Y3873474D01*
X5878451Y3883471D01*
X5848461D01*
X3204480Y6496461D02*
Y6436480D01*
X3234471D01*
X3244467Y6446477D01*
Y6486464D01*
X3234471Y6496461D01*
X3204480D01*
X3304448Y6486464D02*
X3294451Y6496461D01*
X3274458D01*
X3264461Y6486464D01*
Y6476467D01*
X3274458Y6466471D01*
X3294451D01*
X3304448Y6456474D01*
Y6446477D01*
X3294451Y6436480D01*
X3274458D01*
X3264461Y6446477D01*
X3324441Y6436480D02*
X3344435D01*
X3334438D01*
Y6496461D01*
X3324441Y6486464D01*
X2654480Y6496461D02*
Y6436480D01*
X2684471D01*
X2694467Y6446477D01*
Y6486464D01*
X2684471Y6496461D01*
X2654480D01*
X2754448Y6486464D02*
X2744451Y6496461D01*
X2724458D01*
X2714461Y6486464D01*
Y6476467D01*
X2724458Y6466471D01*
X2744451D01*
X2754448Y6456474D01*
Y6446477D01*
X2744451Y6436480D01*
X2724458D01*
X2714461Y6446477D01*
X2774441Y6486464D02*
X2784438Y6496461D01*
X2804432D01*
X2814429Y6486464D01*
Y6476467D01*
X2804432Y6466471D01*
X2794435D01*
X2804432D01*
X2814429Y6456474D01*
Y6446477D01*
X2804432Y6436480D01*
X2784438D01*
X2774441Y6446477D01*
X3777480Y6489461D02*
Y6439477D01*
X3787477Y6429480D01*
X3807471D01*
X3817467Y6439477D01*
Y6489461D01*
X3837461Y6429480D02*
X3857454D01*
X3847458D01*
Y6489461D01*
X3837461Y6479464D01*
X3887445D02*
X3897441Y6489461D01*
X3917435D01*
X3927432Y6479464D01*
Y6439477D01*
X3917435Y6429480D01*
X3897441D01*
X3887445Y6439477D01*
Y6479464D01*
X2227480Y6489461D02*
Y6439477D01*
X2237477Y6429480D01*
X2257471D01*
X2267467Y6439477D01*
Y6489461D01*
X2287461Y6429480D02*
X2307454D01*
X2297458D01*
Y6489461D01*
X2287461Y6479464D01*
X2377432Y6429480D02*
X2337445D01*
X2377432Y6469467D01*
Y6479464D01*
X2367435Y6489461D01*
X2347441D01*
X2337445Y6479464D01*
X589987Y7039984D02*
X579990Y7049981D01*
X559997D01*
X550000Y7039984D01*
Y6999997D01*
X559997Y6990000D01*
X579990D01*
X589987Y6999997D01*
X649968Y6990000D02*
X609981D01*
X649968Y7029987D01*
Y7039984D01*
X639971Y7049981D01*
X619977D01*
X609981Y7039984D01*
X699952Y6990000D02*
Y7049981D01*
X669961Y7019990D01*
X709948D01*
X220000Y3185000D02*
Y3165006D01*
Y3175003D01*
X279981D01*
X269984Y3185000D01*
X380000Y1665000D02*
Y1684994D01*
Y1674997D01*
X320019D01*
X330016Y1665000D01*
X380000Y465000D02*
Y484993D01*
Y474997D01*
X320019D01*
X330016Y465000D01*
X4270000Y1785000D02*
Y1765006D01*
Y1775003D01*
X4329981D01*
X4319984Y1785000D01*
X5870000Y4935000D02*
Y4915007D01*
Y4925003D01*
X5929981D01*
X5919984Y4935000D01*
D60*
X-248858Y4458819D02*
G03*
X-276221Y4431457I0J-27362D01*
G01*
X-67559Y4459016D02*
G03*
X-40197Y4486378I0J27362D01*
G01*
X-276221Y3788543D02*
G03*
X-248858Y3761181I27362J0D01*
G01*
X-40197Y3733622D02*
G03*
X-67559Y3760984I-27362J0D01*
G01*
X4425000Y5000000D02*
G03*
X4475000Y5000000I25000J0D01*
G01*
X2725000D02*
G03*
X2775000Y5000000I25000J0D01*
G01*
X5275000D02*
G03*
X5325000Y5000000I25000J0D01*
G01*
X2693307Y525000D02*
G03*
X2693307Y475000I0J-25000D01*
G01*
X5925000Y6395512D02*
G03*
X5975000Y6395512I25000J0D01*
G01*
X4366762D02*
G03*
X4416762Y6395512I25000J0D01*
G01*
X1925000D02*
G03*
X1975000Y6395512I25000J0D01*
G01*
X375000D02*
G03*
X425000Y6395512I25000J0D01*
G01*
X3925000D02*
G03*
X3975000Y6395512I25000J0D01*
G01*
X2375000D02*
G03*
X2425000Y6395512I25000J0D01*
G01*
X2693307Y1725000D02*
G03*
X2693307Y1675000I0J-25000D01*
G01*
X3575000Y5000000D02*
G03*
X3625000Y5000000I25000J0D01*
G01*
X1225000D02*
G03*
X1275000Y5000000I25000J0D01*
G01*
X4785000Y946535D02*
G03*
X4835000Y946535I25000J0D01*
G01*
X4785000Y1897638D02*
G03*
X4835000Y1897638I25000J0D01*
G01*
X-248661Y4459016D02*
X-67559D01*
X-248661Y3760984D02*
X-67559D01*
X78110Y3834409D02*
X448189D01*
X-40000Y3503701D02*
Y4716299D01*
X78110Y4385591D02*
X448189D01*
X448189Y3503701D02*
Y4716299D01*
X-276221Y3788543D02*
Y4431457D01*
X-40000Y3503701D02*
X448189D01*
X-40000Y4716299D02*
X448189D01*
X78110Y3503701D02*
Y4716299D01*
X3750000Y110000D02*
Y190000D01*
X3990000D01*
Y110000D02*
Y190000D01*
X3750000Y110000D02*
X3990000D01*
X3710000Y150000D02*
X3750000D01*
X3990000D02*
X4030000D01*
X4940000Y110000D02*
Y190000D01*
X4700000Y110000D02*
X4940000D01*
X4700000D02*
Y190000D01*
X4940000D01*
Y150000D02*
X4980000D01*
X4660000D02*
X4700000D01*
X5183228Y112598D02*
Y187402D01*
X5336772D01*
X5183228Y112598D02*
X5336772D01*
X3750000Y310000D02*
Y390000D01*
X3990000D01*
Y310000D02*
Y390000D01*
X3750000Y310000D02*
X3990000D01*
X3710000Y350000D02*
X3750000D01*
X3990000D02*
X4030000D01*
X4940000Y310000D02*
Y390000D01*
X4700000Y310000D02*
X4940000D01*
X4700000D02*
Y390000D01*
X4940000D01*
Y350000D02*
X4980000D01*
X4660000D02*
X4700000D01*
X5440000Y310000D02*
Y390000D01*
X5200000Y310000D02*
X5440000D01*
X5200000D02*
Y390000D01*
X5440000D01*
Y350000D02*
X5480000D01*
X5160000D02*
X5200000D01*
X4196063Y5000000D02*
X4425000D01*
X4475000D02*
X4703937D01*
X4196063Y3500000D02*
X4703937D01*
X4196063D02*
Y5000000D01*
X4703937Y3500000D02*
Y5000000D01*
X2496063D02*
X2725000D01*
X2775000D02*
X3003937D01*
X2496063Y3500000D02*
X3003937D01*
X2496063D02*
Y5000000D01*
X3003937Y3500000D02*
Y5000000D01*
X1255000Y5145000D02*
Y5295000D01*
X1705000D01*
Y5145000D02*
Y5295000D01*
X1255000Y5145000D02*
X1705000D01*
X705000D02*
Y5295000D01*
X1155000D01*
Y5145000D02*
Y5295000D01*
X705000Y5145000D02*
X1155000D01*
X5046063Y5000000D02*
X5275000D01*
X5325000D02*
X5553937D01*
X5046063Y3500000D02*
X5553937D01*
X5046063D02*
Y5000000D01*
X5553937Y3500000D02*
Y5000000D01*
X595000Y5145000D02*
Y5295000D01*
X145000Y5145000D02*
X595000D01*
X145000D02*
Y5295000D01*
X595000D01*
X145000Y4855000D02*
Y5005000D01*
X595000D01*
Y4855000D02*
Y5005000D01*
X145000Y4855000D02*
X595000D01*
X2693307Y525000D02*
Y753937D01*
Y246063D02*
Y475000D01*
X606693Y246063D02*
Y753937D01*
X2693307D01*
X606693Y246063D02*
X2693307D01*
X6054331Y5584488D02*
Y6395512D01*
X5845669Y5584488D02*
Y6395512D01*
Y5584488D02*
X6054331D01*
X5975000Y6395512D02*
X6054331D01*
X5845669D02*
X5925000D01*
X5198032Y5657953D02*
Y6402047D01*
X5701968D01*
Y5657953D02*
Y6402047D01*
X5198032Y5657953D02*
X5701968D01*
X4496093Y5584488D02*
Y6395512D01*
X4287431Y5584488D02*
Y6395512D01*
Y5584488D02*
X4496093D01*
X4416762Y6395512D02*
X4496093D01*
X4287431D02*
X4366762D01*
X4648032Y5657953D02*
Y6402047D01*
X5151968D01*
Y5657953D02*
Y6402047D01*
X4648032Y5657953D02*
X5151968D01*
X2054331Y5584488D02*
Y6395512D01*
X1845669Y5584488D02*
Y6395512D01*
Y5584488D02*
X2054331D01*
X1975000Y6395512D02*
X2054331D01*
X1845669D02*
X1925000D01*
X1198032Y5657953D02*
Y6402047D01*
X1701968D01*
Y5657953D02*
Y6402047D01*
X1198032Y5657953D02*
X1701968D01*
X504331Y5584488D02*
Y6395512D01*
X295669Y5584488D02*
Y6395512D01*
Y5584488D02*
X504331D01*
X425000Y6395512D02*
X504331D01*
X295669D02*
X375000D01*
X648032Y5657953D02*
Y6402047D01*
X1151968D01*
Y5657953D02*
Y6402047D01*
X648032Y5657953D02*
X1151968D01*
X3198032D02*
Y6402047D01*
X3701968D01*
Y5657953D02*
Y6402047D01*
X3198032Y5657953D02*
X3701968D01*
X4054331Y5584488D02*
Y6395512D01*
X3845669Y5584488D02*
Y6395512D01*
Y5584488D02*
X4054331D01*
X3975000Y6395512D02*
X4054331D01*
X3845669D02*
X3925000D01*
X2504331Y5584488D02*
Y6395512D01*
X2295669Y5584488D02*
Y6395512D01*
Y5584488D02*
X2504331D01*
X2425000Y6395512D02*
X2504331D01*
X2295669D02*
X2375000D01*
X2648032Y5657953D02*
Y6402047D01*
X3151968D01*
Y5657953D02*
Y6402047D01*
X2648032Y5657953D02*
X3151968D01*
X5255000Y505000D02*
Y1055000D01*
X5105000D02*
X5255000D01*
X5105000Y505000D02*
Y1055000D01*
Y505000D02*
X5255000D01*
X600000Y2500000D02*
X800000D01*
X600000Y3300000D02*
X800000D01*
X600000Y2500000D02*
Y3300000D01*
X800000Y2500000D02*
Y3300000D01*
X2693307Y1725000D02*
Y1953937D01*
Y1446063D02*
Y1675000D01*
X606693Y1446063D02*
Y1953937D01*
X2693307D01*
X606693Y1446063D02*
X2693307D01*
X3346063Y5000000D02*
X3575000D01*
X3625000D02*
X3853937D01*
X3346063Y3500000D02*
X3853937D01*
X3346063D02*
Y5000000D01*
X3853937Y3500000D02*
Y5000000D01*
X4914331Y513465D02*
Y946535D01*
X4705669Y513465D02*
Y946535D01*
Y513465D02*
X4914331D01*
X4835000Y946535D02*
X4914331D01*
X4705669D02*
X4785000D01*
X4914331Y1102362D02*
Y1897638D01*
X4705669Y1102362D02*
Y1897638D01*
Y1102362D02*
X4914331D01*
X4835000Y1897638D02*
X4914331D01*
X4705669D02*
X4785000D01*
D61*
X3561969Y149843D02*
G03*
X3561969Y149843I-4921J0D01*
G01*
X5254921Y5632362D02*
G03*
X5254921Y5632362I-4921J0D01*
G01*
X4704921D02*
G03*
X4704921Y5632362I-4921J0D01*
G01*
X1254921D02*
G03*
X1254921Y5632362I-4921J0D01*
G01*
X704921D02*
G03*
X704921Y5632362I-4921J0D01*
G01*
X3254921D02*
G03*
X3254921Y5632362I-4921J0D01*
G01*
X2704921D02*
G03*
X2704921Y5632362I-4921J0D01*
G01*
X4521969Y149843D02*
G03*
X4521969Y149843I-4921J0D01*
G01*
X954921Y4951181D02*
G03*
X954921Y4951181I-4921J0D01*
G01*
X1106693Y6850000D02*
G03*
X1106693Y6850000I-206693J0D01*
G01*
D62*
X1047244Y4960630D02*
G03*
X1047244Y4960630I-11811J0D01*
G01*
D63*
X96830Y3966090D02*
X106669Y3946411D01*
X126348Y3926732D01*
X146027D01*
X155866Y3936572D01*
Y3956250D01*
X146027Y3966090D01*
X136187D01*
X126348Y3956250D01*
Y3926732D01*
X146027Y4253898D02*
X155866Y4263737D01*
Y4283416D01*
X146027Y4293255D01*
X106669D01*
X96830Y4283416D01*
Y4263737D01*
X106669Y4253898D01*
X116509D01*
X126348Y4263737D01*
Y4293255D01*
X466909Y4347783D02*
Y4308425D01*
X496427D01*
X486587Y4328104D01*
Y4337943D01*
X496427Y4347783D01*
X516106D01*
X525945Y4337943D01*
Y4318265D01*
X516106Y4308425D01*
X525945Y3882047D02*
Y3901726D01*
Y3891887D01*
X466909D01*
X476748Y3882047D01*
X5784252Y3528346D02*
Y3508668D01*
Y3518507D01*
X5843288D01*
X5833449Y3528346D01*
X6110224Y3595673D02*
Y3575994D01*
X6100384Y3566155D01*
X6070866D01*
Y3595673D01*
X6080706Y3605512D01*
X6090545Y3595673D01*
Y3566155D01*
X5910224D02*
Y3595673D01*
X5900384Y3605512D01*
X5880706D01*
X5870866Y3595673D01*
Y3566155D01*
X5833449Y467716D02*
X5843288Y457877D01*
Y438199D01*
X5833449Y428359D01*
X5823609D01*
X5813770Y438199D01*
Y448038D01*
Y438199D01*
X5803931Y428359D01*
X5794091D01*
X5784252Y438199D01*
Y457877D01*
X5794091Y467716D01*
X5784252Y369323D02*
Y408680D01*
X5823609Y369323D01*
X5833449D01*
X5843288Y379163D01*
Y398841D01*
X5833449Y408680D01*
X5784252Y2552953D02*
Y2533274D01*
Y2543113D01*
X5843288D01*
X5833449Y2552953D01*
X5784252Y2503756D02*
Y2484077D01*
Y2493917D01*
X5843288D01*
X5833449Y2503756D01*
X5784252Y1528359D02*
Y1567716D01*
X5823609Y1528359D01*
X5833449D01*
X5843288Y1538198D01*
Y1557877D01*
X5833449Y1567716D01*
X5784252Y1508680D02*
Y1489002D01*
Y1498841D01*
X5843288D01*
X5833449Y1508680D01*
X2090315Y6744512D02*
X2100154Y6754351D01*
X2119833D01*
X2129672Y6744512D01*
Y6734672D01*
X2119833Y6724833D01*
X2109994D01*
X2119833D01*
X2129672Y6714994D01*
Y6705154D01*
X2119833Y6695315D01*
X2100154D01*
X2090315Y6705154D01*
X2229672Y6695315D02*
X2190315D01*
X2229672Y6734672D01*
Y6744512D01*
X2219833Y6754351D01*
X2200154D01*
X2190315Y6744512D01*
X2000158Y6695315D02*
X2019836D01*
X2009997D01*
Y6754351D01*
X2000158Y6744512D01*
D64*
X730000Y3316677D02*
Y3350000D01*
X763323Y3316677D01*
X771653D01*
X779984Y3325008D01*
Y3341669D01*
X771653Y3350000D01*
X630000D02*
Y3333339D01*
Y3341669D01*
X679984D01*
X671653Y3350000D01*
X630000Y2480000D02*
Y2463339D01*
Y2471669D01*
X679984D01*
X671653Y2480000D01*
X679984Y2405024D02*
Y2438347D01*
X654992D01*
X663323Y2421686D01*
Y2413355D01*
X654992Y2405024D01*
X638331D01*
X630000Y2413355D01*
Y2430016D01*
X638331Y2438347D01*
X730000Y2480000D02*
Y2463339D01*
Y2471669D01*
X779984D01*
X771653Y2480000D01*
X779984Y2405024D02*
X771653Y2421686D01*
X754992Y2438347D01*
X738331D01*
X730000Y2430016D01*
Y2413355D01*
X738331Y2405024D01*
X746661D01*
X754992Y2413355D01*
Y2438347D01*
D65*
X5324961Y150000D02*
D03*
X3934960Y590000D02*
D03*
%TF.MD5,90D5496A0EA4CF207110B29219A8C271*%
M02*
